<?xml version="1.0" encoding="UTF-8"?>
<svg xmlns="http://www.w3.org/2000/svg" xmlns:xlink="http://www.w3.org/1999/xlink" version="1.2" >
<font id="Uni Sans Regular">
<font-face  font-family="Uni Sans" units-per-em="1000" ascent="756" descent="-244" font-style="normal" font-weight="400" font-stretch="normal" cap-height="708" x-height="518" underline-position="-75" underline-thickness="50" />
<missing-glyph  horiz-adv-x="500" d="M499 0 L-9 0 L-9 700 L499 700 L499 0 Z M107 625 Q143 571 175.5 523 Q208 475 245 419 L384 625 L107 625 Z M200 350 Q181 379 165 402.5 Q149 426 133.5 448.5 Q118 471 101.5 495 Q85 519 66 549 L66 150 L200 350 Z M424 549 Q390 498 357.5 450 Q325 402 290 350 L424 151 L424 549 Z M384 75 Q348 129 315 177 Q282 225 245 281 Q209 227 176.5 179 Q144 131 107 75 L384 75 Z " />
<glyph glyph-name="A" unicode="A" horiz-adv-x="619" d="M616 0 L528 0 L446 227 L173 227 Q153 171 132.5 113.5 Q112 56 93 0 L4 0 L258 708 L360 708 L616 0 Z M417 311 Q402 352 389 389 Q376 426 363.5 463 Q351 500 337.5 538 Q324 576 309 618 Q282 540 256 465.5 Q230 391 201 311 L417 311 Z " />
<glyph glyph-name="Aacute" unicode="&#xc1;" horiz-adv-x="619" d="M440 889 L338 756 L250 756 L335 889 L440 889 Z M616 0 L528 0 L446 227 L173 227 Q153 171 132.5 113.5 Q112 56 93 0 L4 0 L258 708 L360 708 L616 0 Z M417 311 Q402 352 389 389 Q376 426 363.5 463 Q351 500 337.5 538 Q324 576 309 618 Q282 540 256 465.5 Q230 391 201 311 L417 311 Z " />
<glyph glyph-name="Abreve" unicode="&#x102;" horiz-adv-x="619" d="M309 756 Q282 756 258.5 766.5 Q235 777 217.5 795 Q200 813 190 837.5 Q180 862 180 889 L253 889 Q253 864 269.5 846.5 Q286 829 309 829 Q332 829 349 846.5 Q366 864 366 889 L442 889 Q442 862 431.5 837.5 Q421 813 403 795 Q385 777 360.5 766.5 Q336 756 309 756 Z M616 0 L528 0 L446 227 L173 227 Q153 171 132.5 113.5 Q112 56 93 0 L4 0 L258 708 L360 708 L616 0 Z M417 311 Q402 352 389 389 Q376 426 363.5 463 Q351 500 337.5 538 Q324 576 309 618 Q282 540 256 465.5 Q230 391 201 311 L417 311 Z " />
<glyph glyph-name="Acircumflex" unicode="&#xc2;" horiz-adv-x="619" d="M470 756 L375 756 L314 825 L250 756 L152 756 L279 889 L353 889 L470 756 Z M616 0 L528 0 L446 227 L173 227 Q153 171 132.5 113.5 Q112 56 93 0 L4 0 L258 708 L360 708 L616 0 Z M417 311 Q402 352 389 389 Q376 426 363.5 463 Q351 500 337.5 538 Q324 576 309 618 Q282 540 256 465.5 Q230 391 201 311 L417 311 Z " />
<glyph glyph-name="Adieresis" unicode="&#xc4;" horiz-adv-x="619" d="M167 822 Q167 845 182 860 Q197 875 219 875 Q241 875 256 860 Q271 845 271 822 Q271 800 256 785 Q241 770 219 770 Q197 770 182 785 Q167 800 167 822 Z M348 822 Q348 845 362.5 860 Q377 875 400 875 Q422 875 437 860 Q452 845 452 822 Q452 800 437 785 Q422 770 400 770 Q377 770 362.5 785 Q348 800 348 822 Z M616 0 L528 0 L446 227 L173 227 Q153 171 132.5 113.5 Q112 56 93 0 L4 0 L258 708 L360 708 L616 0 Z M417 311 Q402 352 389 389 Q376 426 363.5 463 Q351 500 337.5 538 Q324 576 309 618 Q282 540 256 465.5 Q230 391 201 311 L417 311 Z " />
<glyph glyph-name="Agrave" unicode="&#xc0;" horiz-adv-x="619" d="M282 891 L364 757 L282 757 L175 891 L282 891 Z M616 0 L528 0 L446 227 L173 227 Q153 171 132.5 113.5 Q112 56 93 0 L4 0 L258 708 L360 708 L616 0 Z M417 311 Q402 352 389 389 Q376 426 363.5 463 Q351 500 337.5 538 Q324 576 309 618 Q282 540 256 465.5 Q230 391 201 311 L417 311 Z " />
<glyph glyph-name="Amacron" unicode="&#x100;" horiz-adv-x="619" d="M180 851 L437 851 L437 779 L180 779 L180 851 Z M616 0 L528 0 L446 227 L173 227 Q153 171 132.5 113.5 Q112 56 93 0 L4 0 L258 708 L360 708 L616 0 Z M417 311 Q402 352 389 389 Q376 426 363.5 463 Q351 500 337.5 538 Q324 576 309 618 Q282 540 256 465.5 Q230 391 201 311 L417 311 Z " />
<glyph glyph-name="Aogonek" unicode="&#x104;" horiz-adv-x="617" d="M638 -211 Q606 -233 574.5 -239 Q543 -245 517.5 -238 Q492 -231 475.5 -213 Q459 -195 456 -168 Q452 -126 473.5 -82.5 Q495 -39 546 0 L527 0 L445 227 L172 227 Q152 171 131.5 113.5 Q111 56 92 0 L3 0 L257 708 L359 708 L615 0 Q560 -45 542.5 -83.5 Q525 -122 531 -141 Q536 -157 546 -164 Q556 -171 568 -171.5 Q580 -172 592.5 -167.5 Q605 -163 615 -155 L638 -211 Z M416 311 Q401 352 388 389 Q375 426 362.5 463 Q350 500 336.5 538 Q323 576 308 618 Q281 540 255 465.5 Q229 391 200 311 L416 311 Z " />
<glyph glyph-name="Aring" unicode="&#xc5;" horiz-adv-x="619" d="M446 227 L173 227 Q153 171 132.5 113.5 Q112 56 93 0 L4 0 L257 704 Q232 718 217 743 Q202 768 202 797 Q202 819 210.5 838.5 Q219 858 233.5 872.5 Q248 887 267.5 895.5 Q287 904 309 904 Q331 904 350 895 Q369 886 383 871 Q397 856 405 836.5 Q413 817 413 796 Q413 768 398.5 743.5 Q384 719 361 705 L616 0 L528 0 L446 227 Z M308 846 Q288 846 275 831 Q262 816 262 796 Q262 776 275.5 762 Q289 748 308 748 Q328 748 341 762.5 Q354 777 354 797 Q354 817 341 831.5 Q328 846 308 846 Z M417 311 Q402 352 389 389 Q376 426 363.5 463 Q351 500 337.5 538 Q324 576 309 618 Q282 540 256 465.5 Q230 391 201 311 L417 311 Z " />
<glyph glyph-name="Atilde" unicode="&#xc3;" horiz-adv-x="619" d="M164 793 Q172 836 200.5 861.5 Q229 887 261 887 Q280 887 295.5 879.5 Q311 872 324 862.5 Q337 853 347 845.5 Q357 838 366 838 Q374 838 386 844.5 Q398 851 404 874 L463 853 Q450 802 425 782.5 Q400 763 372 763 Q355 763 341 771 Q327 779 314.5 788 Q302 797 289 805 Q276 813 261 813 Q250 813 238 801.5 Q226 790 221 772 L164 793 Z M616 0 L528 0 L446 227 L173 227 Q153 171 132.5 113.5 Q112 56 93 0 L4 0 L258 708 L360 708 L616 0 Z M417 311 Q402 352 389 389 Q376 426 363.5 463 Q351 500 337.5 538 Q324 576 309 618 Q282 540 256 465.5 Q230 391 201 311 L417 311 Z " />
<glyph glyph-name="AE" unicode="&#xc6;" horiz-adv-x="801" d="M469 624 L469 395 L730 395 L730 312 L469 312 L469 82 L759 82 L759 0 L385 0 L385 227 L201 227 L88 0 L-8 0 L353 708 L759 708 L759 624 L469 624 Z M390 625 L236 303 L385 303 L390 625 Z " />
<glyph glyph-name="B" unicode="B" horiz-adv-x="626" d="M554 522 Q554 480 540.5 442.5 Q527 405 495 379 Q546 353 566.5 307.5 Q587 262 587 203 Q586 147 567 108 Q548 69 516 45 Q484 21 440 10.5 Q396 0 345 0 L74 0 L74 708 L346 708 Q389 708 426.5 696.5 Q464 685 492.5 662 Q521 639 537.5 604 Q554 569 554 522 Z M346 417 Q400 417 436 440.5 Q472 464 472 522 Q472 551 462 570.5 Q452 590 435 602 Q418 614 395 619 Q372 624 346 624 L158 624 L158 417 L346 417 Z M346 84 Q380 83 409 88.5 Q438 94 459 107.5 Q480 121 491.5 144.5 Q503 168 503 204 Q503 240 492 265 Q481 290 460.5 305 Q440 320 411 326.5 Q382 333 346 333 L158 333 L158 84 L346 84 Z " />
<glyph glyph-name="C" unicode="C" horiz-adv-x="596" d="M53 494 Q53 549 76 590.5 Q99 632 137 660.5 Q175 689 223.5 703.5 Q272 718 323 718 Q361 718 398.5 709.5 Q436 701 469 683 Q502 665 529 638.5 Q556 612 573 576 L498 540 Q473 588 423.5 612 Q374 636 320 636 Q286 636 253 627 Q220 618 194.5 600.5 Q169 583 153 556.5 Q137 530 137 496 L137 211 Q137 176 153 150.5 Q169 125 194.5 108 Q220 91 253 82.5 Q286 74 320 74 Q375 74 424.5 98 Q474 122 498 169 L573 134 Q556 98 528.5 71 Q501 44 467.5 26 Q434 8 396 -1 Q358 -10 320 -10 Q270 -10 222 4 Q174 18 136.5 45.5 Q99 73 76 114.5 Q53 156 53 211 L53 494 Z " />
<glyph glyph-name="Cacute" unicode="&#x106;" horiz-adv-x="596" d="M454 896 L352 763 L264 763 L349 896 L454 896 Z M53 494 Q53 549 76 590.5 Q99 632 137 660.5 Q175 689 223.5 703.5 Q272 718 323 718 Q361 718 398.5 709.5 Q436 701 469 683 Q502 665 529 638.5 Q556 612 573 576 L498 540 Q473 588 423.5 612 Q374 636 320 636 Q286 636 253 627 Q220 618 194.5 600.5 Q169 583 153 556.5 Q137 530 137 496 L137 211 Q137 176 153 150.5 Q169 125 194.5 108 Q220 91 253 82.5 Q286 74 320 74 Q375 74 424.5 98 Q474 122 498 169 L573 134 Q556 98 528.5 71 Q501 44 467.5 26 Q434 8 396 -1 Q358 -10 320 -10 Q270 -10 222 4 Q174 18 136.5 45.5 Q99 73 76 114.5 Q53 156 53 211 L53 494 Z " />
<glyph glyph-name="Ccaron" unicode="&#x10c;" horiz-adv-x="596" d="M155 896 L254 896 L323 830 L388 896 L489 896 L361 763 L283 763 L155 896 Z M53 494 Q53 549 76 590.5 Q99 632 137 660.5 Q175 689 223.5 703.5 Q272 718 323 718 Q361 718 398.5 709.5 Q436 701 469 683 Q502 665 529 638.5 Q556 612 573 576 L498 540 Q473 588 423.5 612 Q374 636 320 636 Q286 636 253 627 Q220 618 194.5 600.5 Q169 583 153 556.5 Q137 530 137 496 L137 211 Q137 176 153 150.5 Q169 125 194.5 108 Q220 91 253 82.5 Q286 74 320 74 Q375 74 424.5 98 Q474 122 498 169 L573 134 Q556 98 528.5 71 Q501 44 467.5 26 Q434 8 396 -1 Q358 -10 320 -10 Q270 -10 222 4 Q174 18 136.5 45.5 Q99 73 76 114.5 Q53 156 53 211 L53 494 Z " />
<glyph glyph-name="Ccedilla" unicode="&#xc7;" horiz-adv-x="596" d="M320 74 Q375 74 424.5 98 Q474 122 498 169 L573 134 Q541 68 479.5 32.5 Q418 -3 348 -9 L326 -64 Q372 -63 391.5 -86.5 Q411 -110 408 -143 Q404 -184 381 -206 Q358 -228 325.5 -234.5 Q293 -241 257.5 -234 Q222 -227 193 -211 L215 -157 Q236 -168 256 -173 Q276 -178 292.5 -176.5 Q309 -175 319.5 -167.5 Q330 -160 331 -146 Q333 -125 313 -116.5 Q293 -108 258 -118 L245 -106 L284 -8 Q239 -4 197.5 12 Q156 28 123.5 55.5 Q91 83 72 122 Q53 161 53 211 L53 494 Q53 549 76 590.5 Q99 632 137 660.5 Q175 689 223.5 703.5 Q272 718 323 718 Q361 718 398.5 709.5 Q436 701 469 683 Q502 665 529 638.5 Q556 612 573 576 L498 540 Q473 588 423.5 612 Q374 636 320 636 Q286 636 253 627 Q220 618 194.5 600.5 Q169 583 153 556.5 Q137 530 137 496 L137 211 Q137 176 153 150.5 Q169 125 194.5 108 Q220 91 253 82.5 Q286 74 320 74 Z " />
<glyph glyph-name="Cdotaccent" unicode="&#x10a;" horiz-adv-x="596" d="M265 830 Q265 854 281.5 870.5 Q298 887 322 887 Q346 887 362.5 870.5 Q379 854 379 830 Q379 806 362.5 789.5 Q346 773 322 773 Q298 773 281.5 789.5 Q265 806 265 830 Z M53 494 Q53 549 76 590.5 Q99 632 137 660.5 Q175 689 223.5 703.5 Q272 718 323 718 Q361 718 398.5 709.5 Q436 701 469 683 Q502 665 529 638.5 Q556 612 573 576 L498 540 Q473 588 423.5 612 Q374 636 320 636 Q286 636 253 627 Q220 618 194.5 600.5 Q169 583 153 556.5 Q137 530 137 496 L137 211 Q137 176 153 150.5 Q169 125 194.5 108 Q220 91 253 82.5 Q286 74 320 74 Q375 74 424.5 98 Q474 122 498 169 L573 134 Q556 98 528.5 71 Q501 44 467.5 26 Q434 8 396 -1 Q358 -10 320 -10 Q270 -10 222 4 Q174 18 136.5 45.5 Q99 73 76 114.5 Q53 156 53 211 L53 494 Z " />
<glyph glyph-name="D" unicode="D" horiz-adv-x="638" d="M314 708 Q365 708 413 696 Q461 684 499 658 Q537 632 560 591.5 Q583 551 583 495 L583 212 Q583 156 560 116 Q537 76 499 50 Q461 24 413 12 Q365 0 314 0 L74 0 L74 708 L314 708 Z M314 84 Q349 84 382 91 Q415 98 441 113.5 Q467 129 483 153 Q499 177 499 212 L499 495 Q499 530 483 554.5 Q467 579 441 594.5 Q415 610 382 617 Q349 624 314 624 L158 624 L158 84 L314 84 Z " />
<glyph glyph-name="Eth" unicode="&#xd0;" horiz-adv-x="642" d="M78 708 L319 708 Q369 708 417.5 696 Q466 684 503.5 658 Q541 632 564 591.5 Q587 551 587 495 L587 212 Q587 156 564 116 Q541 76 503.5 50 Q466 24 417.5 12 Q369 0 319 0 L78 0 L78 311 L18 311 L18 389 L78 389 L78 708 Z M319 84 Q353 84 386.5 91 Q420 98 446 113.5 Q472 129 488 153 Q504 177 504 212 L504 495 Q504 530 488 554.5 Q472 579 446 594.5 Q420 610 386.5 617 Q353 624 319 624 L162 624 L162 389 L282 389 L282 311 L162 311 L162 84 L319 84 Z " />
<glyph glyph-name="Dcaron" unicode="&#x10e;" horiz-adv-x="638" d="M146 889 L245 889 L314 823 L379 889 L480 889 L352 756 L274 756 L146 889 Z M314 708 Q365 708 413 696 Q461 684 499 658 Q537 632 560 591.5 Q583 551 583 495 L583 212 Q583 156 560 116 Q537 76 499 50 Q461 24 413 12 Q365 0 314 0 L74 0 L74 708 L314 708 Z M314 84 Q349 84 382 91 Q415 98 441 113.5 Q467 129 483 153 Q499 177 499 212 L499 495 Q499 530 483 554.5 Q467 579 441 594.5 Q415 610 382 617 Q349 624 314 624 L158 624 L158 84 L314 84 Z " />
<glyph glyph-name="Dcroat" unicode="&#x110;" horiz-adv-x="642" d="M78 708 L319 708 Q369 708 417.5 696 Q466 684 503.5 658 Q541 632 564 591.5 Q587 551 587 495 L587 212 Q587 156 564 116 Q541 76 503.5 50 Q466 24 417.5 12 Q369 0 319 0 L78 0 L78 311 L18 311 L18 389 L78 389 L78 708 Z M319 84 Q353 84 386.5 91 Q420 98 446 113.5 Q472 129 488 153 Q504 177 504 212 L504 495 Q504 530 488 554.5 Q472 579 446 594.5 Q420 610 386.5 617 Q353 624 319 624 L162 624 L162 389 L282 389 L282 311 L162 311 L162 84 L319 84 Z " />
<glyph glyph-name="E" unicode="E" horiz-adv-x="571" d="M158 396 L499 396 L499 312 L158 312 L158 84 L528 84 L528 0 L74 0 L74 708 L528 708 L528 624 L158 624 L158 396 Z " />
<glyph glyph-name="Eacute" unicode="&#xc9;" horiz-adv-x="571" d="M432 891 L330 758 L242 758 L327 891 L432 891 Z M158 396 L499 396 L499 312 L158 312 L158 84 L528 84 L528 0 L74 0 L74 708 L528 708 L528 624 L158 624 L158 396 Z " />
<glyph glyph-name="Ecaron" unicode="&#x11a;" horiz-adv-x="571" d="M133 891 L232 891 L301 825 L366 891 L467 891 L339 758 L261 758 L133 891 Z M158 396 L499 396 L499 312 L158 312 L158 84 L528 84 L528 0 L74 0 L74 708 L528 708 L528 624 L158 624 L158 396 Z " />
<glyph glyph-name="Ecircumflex" unicode="&#xca;" horiz-adv-x="571" d="M462 758 L367 758 L306 827 L242 758 L144 758 L271 891 L345 891 L462 758 Z M158 396 L499 396 L499 312 L158 312 L158 84 L528 84 L528 0 L74 0 L74 708 L528 708 L528 624 L158 624 L158 396 Z " />
<glyph glyph-name="Edieresis" unicode="&#xcb;" horiz-adv-x="571" d="M159 824 Q159 847 174 862 Q189 877 211 877 Q233 877 248 862 Q263 847 263 824 Q263 802 248 787 Q233 772 211 772 Q189 772 174 787 Q159 802 159 824 Z M340 824 Q340 847 354.5 862 Q369 877 392 877 Q414 877 429 862 Q444 847 444 824 Q444 802 429 787 Q414 772 392 772 Q369 772 354.5 787 Q340 802 340 824 Z M158 396 L499 396 L499 312 L158 312 L158 84 L528 84 L528 0 L74 0 L74 708 L528 708 L528 624 L158 624 L158 396 Z " />
<glyph glyph-name="Edotaccent" unicode="&#x116;" horiz-adv-x="571" d="M243 825 Q243 849 259.5 865.5 Q276 882 300 882 Q324 882 340.5 865.5 Q357 849 357 825 Q357 801 340.5 784.5 Q324 768 300 768 Q276 768 259.5 784.5 Q243 801 243 825 Z M158 396 L499 396 L499 312 L158 312 L158 84 L528 84 L528 0 L74 0 L74 708 L528 708 L528 624 L158 624 L158 396 Z " />
<glyph glyph-name="Egrave" unicode="&#xc8;" horiz-adv-x="571" d="M274 893 L356 759 L274 759 L167 893 L274 893 Z M158 396 L499 396 L499 312 L158 312 L158 84 L528 84 L528 0 L74 0 L74 708 L528 708 L528 624 L158 624 L158 396 Z " />
<glyph glyph-name="Emacron" unicode="&#x112;" horiz-adv-x="571" d="M172 853 L429 853 L429 781 L172 781 L172 853 Z M158 396 L499 396 L499 312 L158 312 L158 84 L528 84 L528 0 L74 0 L74 708 L528 708 L528 624 L158 624 L158 396 Z " />
<glyph glyph-name="Eogonek" unicode="&#x118;" horiz-adv-x="570" d="M551 -211 Q519 -233 487.5 -239 Q456 -245 430.5 -238 Q405 -231 388.5 -213 Q372 -195 369 -168 Q365 -126 387 -82.5 Q409 -39 460 0 L73 0 L73 708 L527 708 L527 624 L157 624 L157 396 L498 396 L498 312 L157 312 L157 84 L527 84 L527 0 Q501 -22 483.5 -43.5 Q466 -65 456.5 -84 Q447 -103 444 -117.5 Q441 -132 444 -141 Q449 -157 459 -164 Q469 -171 481 -171.5 Q493 -172 505.5 -167.5 Q518 -163 528 -155 L551 -211 Z " />
<glyph glyph-name="F" unicode="F" horiz-adv-x="558" d="M158 376 L482 376 L482 292 L158 292 L158 0 L74 0 L74 708 L527 708 L527 624 L158 624 L158 376 Z " />
<glyph glyph-name="G" unicode="G" horiz-adv-x="632" d="M53 497 Q53 552 76 593 Q99 634 136.5 662 Q174 690 222.5 704 Q271 718 321 718 Q359 718 396.5 709 Q434 700 467 682 Q500 664 527 637 Q554 610 571 574 L495 540 Q483 564 464 582 Q445 600 422 612 Q399 624 372.5 630 Q346 636 319 636 Q285 636 252 627.5 Q219 619 193.5 602 Q168 585 152 559 Q136 533 136 499 L136 214 Q136 179 152 152.5 Q168 126 194 108.5 Q220 91 253 82.5 Q286 74 321 74 Q355 74 388.5 82.5 Q422 91 448.5 108.5 Q475 126 491 152.5 Q507 179 507 214 L507 285 L298 285 L298 368 L590 368 L590 214 Q590 158 567 116 Q544 74 506 46 Q468 18 420 4 Q372 -10 321 -10 Q270 -10 222 4 Q174 18 136.5 46 Q99 74 76 116 Q53 158 53 214 L53 497 Z " />
<glyph glyph-name="Gbreve" unicode="&#x11e;" horiz-adv-x="632" d="M321 756 Q294 756 270.5 766.5 Q247 777 229.5 795 Q212 813 202 837.5 Q192 862 192 889 L265 889 Q265 864 281.5 846.5 Q298 829 321 829 Q344 829 361 846.5 Q378 864 378 889 L454 889 Q454 862 443.5 837.5 Q433 813 415 795 Q397 777 372.5 766.5 Q348 756 321 756 Z M53 497 Q53 552 76 593 Q99 634 136.5 662 Q174 690 222.5 704 Q271 718 321 718 Q359 718 396.5 709 Q434 700 467 682 Q500 664 527 637 Q554 610 571 574 L495 540 Q483 564 464 582 Q445 600 422 612 Q399 624 372.5 630 Q346 636 319 636 Q285 636 252 627.5 Q219 619 193.5 602 Q168 585 152 559 Q136 533 136 499 L136 214 Q136 179 152 152.5 Q168 126 194 108.5 Q220 91 253 82.5 Q286 74 321 74 Q355 74 388.5 82.5 Q422 91 448.5 108.5 Q475 126 491 152.5 Q507 179 507 214 L507 285 L298 285 L298 368 L590 368 L590 214 Q590 158 567 116 Q544 74 506 46 Q468 18 420 4 Q372 -10 321 -10 Q270 -10 222 4 Q174 18 136.5 46 Q99 74 76 116 Q53 158 53 214 L53 497 Z " />
<glyph glyph-name="Gcommaaccent" unicode="&#x122;" horiz-adv-x="632" d="M53 497 Q53 552 76 593 Q99 634 136.5 662 Q174 690 222.5 704 Q271 718 321 718 Q359 718 396.5 709 Q434 700 467 682 Q500 664 527 637 Q554 610 571 574 L495 540 Q483 564 464 582 Q445 600 422 612 Q399 624 372.5 630 Q346 636 319 636 Q285 636 252 627.5 Q219 619 193.5 602 Q168 585 152 559 Q136 533 136 499 L136 214 Q136 179 152 152.5 Q168 126 194 108.5 Q220 91 253 82.5 Q286 74 321 74 Q355 74 388.5 82.5 Q422 91 448.5 108.5 Q475 126 491 152.5 Q507 179 507 214 L507 285 L298 285 L298 368 L590 368 L590 214 Q590 158 567 116 Q544 74 506 46 Q468 18 420 4 Q372 -10 321 -10 Q270 -10 222 4 Q174 18 136.5 46 Q99 74 76 116 Q53 158 53 214 L53 497 Z M314 -254 L240 -254 L290 -88 L377 -88 L314 -254 Z " />
<glyph glyph-name="Gdotaccent" unicode="&#x120;" horiz-adv-x="632" d="M263 823 Q263 847 279.5 863.5 Q296 880 320 880 Q344 880 360.5 863.5 Q377 847 377 823 Q377 799 360.5 782.5 Q344 766 320 766 Q296 766 279.5 782.5 Q263 799 263 823 Z M53 497 Q53 552 76 593 Q99 634 136.5 662 Q174 690 222.5 704 Q271 718 321 718 Q359 718 396.5 709 Q434 700 467 682 Q500 664 527 637 Q554 610 571 574 L495 540 Q483 564 464 582 Q445 600 422 612 Q399 624 372.5 630 Q346 636 319 636 Q285 636 252 627.5 Q219 619 193.5 602 Q168 585 152 559 Q136 533 136 499 L136 214 Q136 179 152 152.5 Q168 126 194 108.5 Q220 91 253 82.5 Q286 74 321 74 Q355 74 388.5 82.5 Q422 91 448.5 108.5 Q475 126 491 152.5 Q507 179 507 214 L507 285 L298 285 L298 368 L590 368 L590 214 Q590 158 567 116 Q544 74 506 46 Q468 18 420 4 Q372 -10 321 -10 Q270 -10 222 4 Q174 18 136.5 46 Q99 74 76 116 Q53 158 53 214 L53 497 Z " />
<glyph glyph-name="H" unicode="H" horiz-adv-x="686" d="M158 0 L74 0 L74 708 L158 708 L158 395 L528 395 L528 708 L612 708 L612 0 L528 0 L528 312 L158 312 L158 0 Z " />
<glyph glyph-name="Hbar" unicode="&#x126;" horiz-adv-x="702" d="M620 0 L536 0 L536 312 L166 312 L166 0 L82 0 L82 528 L14 528 L14 593 L82 593 L82 708 L166 708 L166 593 L536 593 L536 708 L620 708 L620 593 L688 593 L688 528 L620 528 L620 0 Z M166 395 L536 395 L536 528 L166 528 L166 395 Z " />
<glyph glyph-name="I" unicode="I" horiz-adv-x="231" d="M157 0 L74 0 L74 708 L157 708 L157 0 Z " />
<glyph glyph-name="IJ" unicode="&#x132;" horiz-adv-x="826" d="M157 0 L74 0 L74 708 L157 708 L157 0 Z M757 708 L757 210 Q757 156 735 114.5 Q713 73 677 45.5 Q641 18 594.5 4 Q548 -10 500 -10 Q457 -10 415.5 2 Q374 14 339 38 Q304 62 279 98.5 Q254 135 245 183 L328 200 Q334 169 350.5 145.5 Q367 122 390.5 106 Q414 90 442.5 82 Q471 74 500 74 Q532 74 563 82.5 Q594 91 618.5 108.5 Q643 126 658 152 Q673 178 673 213 L673 624 L446 624 L446 708 L757 708 Z " />
<glyph glyph-name="Iacute" unicode="&#xcd;" horiz-adv-x="231" d="M247 888 L145 755 L57 755 L142 888 L247 888 Z M157 0 L74 0 L74 708 L157 708 L157 0 Z " />
<glyph glyph-name="Icircumflex" unicode="&#xce;" horiz-adv-x="231" d="M277 755 L182 755 L121 824 L57 755 L-41 755 L86 888 L160 888 L277 755 Z M157 0 L74 0 L74 708 L157 708 L157 0 Z " />
<glyph glyph-name="Idieresis" unicode="&#xcf;" horiz-adv-x="231" d="M-26 821 Q-26 844 -11 859 Q4 874 26 874 Q48 874 63 859 Q78 844 78 821 Q78 799 63 784 Q48 769 26 769 Q4 769 -11 784 Q-26 799 -26 821 Z M155 821 Q155 844 169.5 859 Q184 874 207 874 Q229 874 244 859 Q259 844 259 821 Q259 799 244 784 Q229 769 207 769 Q184 769 169.5 784 Q155 799 155 821 Z M157 0 L74 0 L74 708 L157 708 L157 0 Z " />
<glyph glyph-name="Idotaccent" unicode="&#x130;" horiz-adv-x="231" d="M58 822 Q58 846 74.5 862.5 Q91 879 115 879 Q139 879 155.5 862.5 Q172 846 172 822 Q172 798 155.5 781.5 Q139 765 115 765 Q91 765 74.5 781.5 Q58 798 58 822 Z M157 0 L74 0 L74 708 L157 708 L157 0 Z " />
<glyph glyph-name="Igrave" unicode="&#xcc;" horiz-adv-x="231" d="M89 890 L171 756 L89 756 L-18 890 L89 890 Z M157 0 L74 0 L74 708 L157 708 L157 0 Z " />
<glyph glyph-name="Imacron" unicode="&#x12a;" horiz-adv-x="231" d="M-13 850 L244 850 L244 778 L-13 778 L-13 850 Z M157 0 L74 0 L74 708 L157 708 L157 0 Z " />
<glyph glyph-name="Iogonek" unicode="&#x12e;" horiz-adv-x="231" d="M200 -211 Q168 -233 136.5 -239 Q105 -245 79.5 -238 Q54 -231 37.5 -213 Q21 -195 18 -168 Q14 -126 29 -84.5 Q44 -43 89 0 L74 0 L74 708 L157 708 L157 0 L156 0 Q133 -24 119 -46 Q105 -68 98.5 -86 Q92 -104 91 -118 Q90 -132 93 -141 Q98 -157 108 -164 Q118 -171 130 -171.5 Q142 -172 154.5 -167.5 Q167 -163 177 -155 L200 -211 Z " />
<glyph glyph-name="J" unicode="J" horiz-adv-x="595" d="M526 708 L526 210 Q526 156 504 114.5 Q482 73 446 45.5 Q410 18 363.5 4 Q317 -10 269 -10 Q226 -10 184.5 2 Q143 14 108 38 Q73 62 48 98.5 Q23 135 14 183 L97 200 Q103 169 119.5 145.5 Q136 122 159.5 106 Q183 90 211.5 82 Q240 74 269 74 Q301 74 332 82.5 Q363 91 387.5 108.5 Q412 126 427 152 Q442 178 442 213 L442 624 L215 624 L215 708 L526 708 Z " />
<glyph glyph-name="K" unicode="K" horiz-adv-x="630" d="M520 708 L631 708 L290 367 Q329 325 372 277.5 Q415 230 459 182 Q503 134 546 87.5 Q589 41 627 0 L518 0 L230 307 L158 235 L158 0 L74 0 L74 708 L158 708 L158 352 L520 708 Z " />
<glyph glyph-name="Kcommaaccent" unicode="&#x136;" horiz-adv-x="630" d="M520 708 L631 708 L290 367 Q329 325 372 277.5 Q415 230 459 182 Q503 134 546 87.5 Q589 41 627 0 L518 0 L230 307 L158 235 L158 0 L74 0 L74 708 L158 708 L158 352 L520 708 Z M310 -254 L236 -254 L286 -88 L373 -88 L310 -254 Z " />
<glyph glyph-name="L" unicode="L" horiz-adv-x="512" d="M74 708 L158 708 L158 84 L498 84 L498 0 L74 0 L74 708 Z " />
<glyph glyph-name="Lacute" unicode="&#x139;" horiz-adv-x="512" d="M254 889 L152 756 L64 756 L149 889 L254 889 Z M74 708 L158 708 L158 84 L498 84 L498 0 L74 0 L74 708 Z " />
<glyph glyph-name="Lcaron" unicode="&#x13d;" horiz-adv-x="514" d="M74 708 L158 708 L158 84 L498 84 L498 0 L74 0 L74 708 Z M394 542 L312 542 L362 708 L457 708 L394 542 Z " />
<glyph glyph-name="Lcommaaccent" unicode="&#x13b;" horiz-adv-x="512" d="M74 708 L158 708 L158 84 L498 84 L498 0 L74 0 L74 708 Z M279 -254 L205 -254 L255 -88 L342 -88 L279 -254 Z " />
<glyph glyph-name="Ldot" unicode="&#x13f;" horiz-adv-x="518" d="M74 708 L158 708 L158 84 L498 84 L498 0 L74 0 L74 708 Z M285 367 Q285 392 301.5 409 Q318 426 344 426 Q369 426 385.5 409 Q402 392 402 367 Q402 342 385.5 325 Q369 308 344 308 Q318 308 301.5 325 Q285 342 285 367 Z " />
<glyph glyph-name="Lslash" unicode="&#x141;" horiz-adv-x="524" d="M495 0 L87 0 L87 260 L23 233 L-2 296 L87 334 L87 708 L172 708 L172 370 L290 420 L314 357 L172 296 L172 85 L495 85 L495 0 Z " />
<glyph glyph-name="M" unicode="M" horiz-adv-x="796" d="M158 0 L74 0 L74 708 L179 708 L398 214 L617 708 L722 708 L722 0 L638 0 L638 551 L434 93 L363 93 L158 550 L158 0 Z " />
<glyph glyph-name="N" unicode="N" horiz-adv-x="686" d="M528 708 L612 708 L612 0 L506 0 L158 561 L158 0 L74 0 L74 708 L164 708 L528 123 L528 708 Z " />
<glyph glyph-name="Nacute" unicode="&#x143;" horiz-adv-x="686" d="M474 889 L372 756 L284 756 L369 889 L474 889 Z M528 708 L612 708 L612 0 L506 0 L158 561 L158 0 L74 0 L74 708 L164 708 L528 123 L528 708 Z " />
<glyph glyph-name="Ncaron" unicode="&#x147;" horiz-adv-x="686" d="M175 889 L274 889 L343 823 L408 889 L509 889 L381 756 L303 756 L175 889 Z M528 708 L612 708 L612 0 L506 0 L158 561 L158 0 L74 0 L74 708 L164 708 L528 123 L528 708 Z " />
<glyph glyph-name="Ncommaaccent" unicode="&#x145;" horiz-adv-x="686" d="M528 708 L612 708 L612 0 L506 0 L158 561 L158 0 L74 0 L74 708 L164 708 L528 123 L528 708 Z M336 -254 L262 -254 L312 -88 L399 -88 L336 -254 Z " />
<glyph glyph-name="Eng" unicode="&#x14a;" horiz-adv-x="685" d="M611 -9 Q611 -89 565.5 -133.5 Q520 -178 435 -178 L435 -98 Q485 -98 508 -75 Q531 -52 531 -9 L531 0 L157 561 L157 0 L73 0 L73 708 L163 708 L453 264 Q475 229 496.5 192.5 Q518 156 538 117 Q533 157 530.5 197 Q528 237 527 279 L527 708 L611 708 L611 -9 Z " />
<glyph glyph-name="Ntilde" unicode="&#xd1;" horiz-adv-x="686" d="M200 793 Q208 836 236.5 861.5 Q265 887 297 887 Q316 887 331.5 879.5 Q347 872 360 862.5 Q373 853 383 845.5 Q393 838 402 838 Q410 838 422 844.5 Q434 851 440 874 L499 853 Q486 802 461 782.5 Q436 763 408 763 Q391 763 377 771 Q363 779 350.5 788 Q338 797 325 805 Q312 813 297 813 Q286 813 274 801.5 Q262 790 257 772 L200 793 Z M528 708 L612 708 L612 0 L506 0 L158 561 L158 0 L74 0 L74 708 L164 708 L528 123 L528 708 Z " />
<glyph glyph-name="O" unicode="O" horiz-adv-x="673" d="M53 496 Q53 551 77 593 Q101 635 141 662.5 Q181 690 232 704 Q283 718 336 718 Q389 718 440 704 Q491 690 530.5 662.5 Q570 635 594.5 593 Q619 551 619 496 L619 213 Q619 157 594.5 115.5 Q570 74 530.5 46 Q491 18 440 4 Q389 -10 336 -10 Q283 -10 232 4 Q181 18 141 46 Q101 74 77 115.5 Q53 157 53 213 L53 496 Z M136 214 Q136 179 153 153 Q170 127 198 109.5 Q226 92 262 83 Q298 74 336 74 Q373 74 409 83 Q445 92 473.5 109.5 Q502 127 519 153 Q536 179 536 214 L536 496 Q536 533 518.5 559.5 Q501 586 473 603 Q445 620 408.5 628 Q372 636 335 636 Q297 636 261.5 627.5 Q226 619 198 601.5 Q170 584 153 558 Q136 532 136 496 L136 214 Z " />
<glyph glyph-name="Oacute" unicode="&#xd3;" horiz-adv-x="673" d="M467 889 L365 756 L277 756 L362 889 L467 889 Z M53 496 Q53 551 77 593 Q101 635 141 662.5 Q181 690 232 704 Q283 718 336 718 Q389 718 440 704 Q491 690 530.5 662.5 Q570 635 594.5 593 Q619 551 619 496 L619 213 Q619 157 594.5 115.5 Q570 74 530.5 46 Q491 18 440 4 Q389 -10 336 -10 Q283 -10 232 4 Q181 18 141 46 Q101 74 77 115.5 Q53 157 53 213 L53 496 Z M136 214 Q136 179 153 153 Q170 127 198 109.5 Q226 92 262 83 Q298 74 336 74 Q373 74 409 83 Q445 92 473.5 109.5 Q502 127 519 153 Q536 179 536 214 L536 496 Q536 533 518.5 559.5 Q501 586 473 603 Q445 620 408.5 628 Q372 636 335 636 Q297 636 261.5 627.5 Q226 619 198 601.5 Q170 584 153 558 Q136 532 136 496 L136 214 Z " />
<glyph glyph-name="Ocircumflex" unicode="&#xd4;" horiz-adv-x="673" d="M497 756 L402 756 L341 825 L277 756 L179 756 L306 889 L380 889 L497 756 Z M53 496 Q53 551 77 593 Q101 635 141 662.5 Q181 690 232 704 Q283 718 336 718 Q389 718 440 704 Q491 690 530.5 662.5 Q570 635 594.5 593 Q619 551 619 496 L619 213 Q619 157 594.5 115.5 Q570 74 530.5 46 Q491 18 440 4 Q389 -10 336 -10 Q283 -10 232 4 Q181 18 141 46 Q101 74 77 115.5 Q53 157 53 213 L53 496 Z M136 214 Q136 179 153 153 Q170 127 198 109.5 Q226 92 262 83 Q298 74 336 74 Q373 74 409 83 Q445 92 473.5 109.5 Q502 127 519 153 Q536 179 536 214 L536 496 Q536 533 518.5 559.5 Q501 586 473 603 Q445 620 408.5 628 Q372 636 335 636 Q297 636 261.5 627.5 Q226 619 198 601.5 Q170 584 153 558 Q136 532 136 496 L136 214 Z " />
<glyph glyph-name="Odieresis" unicode="&#xd6;" horiz-adv-x="673" d="M194 822 Q194 845 209 860 Q224 875 246 875 Q268 875 283 860 Q298 845 298 822 Q298 800 283 785 Q268 770 246 770 Q224 770 209 785 Q194 800 194 822 Z M375 822 Q375 845 389.5 860 Q404 875 427 875 Q449 875 464 860 Q479 845 479 822 Q479 800 464 785 Q449 770 427 770 Q404 770 389.5 785 Q375 800 375 822 Z M53 496 Q53 551 77 593 Q101 635 141 662.5 Q181 690 232 704 Q283 718 336 718 Q389 718 440 704 Q491 690 530.5 662.5 Q570 635 594.5 593 Q619 551 619 496 L619 213 Q619 157 594.5 115.5 Q570 74 530.5 46 Q491 18 440 4 Q389 -10 336 -10 Q283 -10 232 4 Q181 18 141 46 Q101 74 77 115.5 Q53 157 53 213 L53 496 Z M136 214 Q136 179 153 153 Q170 127 198 109.5 Q226 92 262 83 Q298 74 336 74 Q373 74 409 83 Q445 92 473.5 109.5 Q502 127 519 153 Q536 179 536 214 L536 496 Q536 533 518.5 559.5 Q501 586 473 603 Q445 620 408.5 628 Q372 636 335 636 Q297 636 261.5 627.5 Q226 619 198 601.5 Q170 584 153 558 Q136 532 136 496 L136 214 Z " />
<glyph glyph-name="Ograve" unicode="&#xd2;" horiz-adv-x="673" d="M309 891 L391 757 L309 757 L202 891 L309 891 Z M53 496 Q53 551 77 593 Q101 635 141 662.5 Q181 690 232 704 Q283 718 336 718 Q389 718 440 704 Q491 690 530.5 662.5 Q570 635 594.5 593 Q619 551 619 496 L619 213 Q619 157 594.5 115.5 Q570 74 530.5 46 Q491 18 440 4 Q389 -10 336 -10 Q283 -10 232 4 Q181 18 141 46 Q101 74 77 115.5 Q53 157 53 213 L53 496 Z M136 214 Q136 179 153 153 Q170 127 198 109.5 Q226 92 262 83 Q298 74 336 74 Q373 74 409 83 Q445 92 473.5 109.5 Q502 127 519 153 Q536 179 536 214 L536 496 Q536 533 518.5 559.5 Q501 586 473 603 Q445 620 408.5 628 Q372 636 335 636 Q297 636 261.5 627.5 Q226 619 198 601.5 Q170 584 153 558 Q136 532 136 496 L136 214 Z " />
<glyph glyph-name="Ohungarumlaut" unicode="&#x150;" horiz-adv-x="673" d="M284 756 L209 756 L270 881 L368 881 L284 756 Z M434 756 L359 756 L426 881 L527 881 L434 756 Z M53 496 Q53 551 77 593 Q101 635 141 662.5 Q181 690 232 704 Q283 718 336 718 Q389 718 440 704 Q491 690 530.5 662.5 Q570 635 594.5 593 Q619 551 619 496 L619 213 Q619 157 594.5 115.5 Q570 74 530.5 46 Q491 18 440 4 Q389 -10 336 -10 Q283 -10 232 4 Q181 18 141 46 Q101 74 77 115.5 Q53 157 53 213 L53 496 Z M136 214 Q136 179 153 153 Q170 127 198 109.5 Q226 92 262 83 Q298 74 336 74 Q373 74 409 83 Q445 92 473.5 109.5 Q502 127 519 153 Q536 179 536 214 L536 496 Q536 533 518.5 559.5 Q501 586 473 603 Q445 620 408.5 628 Q372 636 335 636 Q297 636 261.5 627.5 Q226 619 198 601.5 Q170 584 153 558 Q136 532 136 496 L136 214 Z " />
<glyph glyph-name="Omacron" unicode="&#x14c;" horiz-adv-x="673" d="M207 851 L464 851 L464 779 L207 779 L207 851 Z M53 496 Q53 551 77 593 Q101 635 141 662.5 Q181 690 232 704 Q283 718 336 718 Q389 718 440 704 Q491 690 530.5 662.5 Q570 635 594.5 593 Q619 551 619 496 L619 213 Q619 157 594.5 115.5 Q570 74 530.5 46 Q491 18 440 4 Q389 -10 336 -10 Q283 -10 232 4 Q181 18 141 46 Q101 74 77 115.5 Q53 157 53 213 L53 496 Z M136 214 Q136 179 153 153 Q170 127 198 109.5 Q226 92 262 83 Q298 74 336 74 Q373 74 409 83 Q445 92 473.5 109.5 Q502 127 519 153 Q536 179 536 214 L536 496 Q536 533 518.5 559.5 Q501 586 473 603 Q445 620 408.5 628 Q372 636 335 636 Q297 636 261.5 627.5 Q226 619 198 601.5 Q170 584 153 558 Q136 532 136 496 L136 214 Z " />
<glyph glyph-name="Oslash" unicode="&#xd8;" horiz-adv-x="673" d="M491 685 Q547 659 583 612 Q619 565 619 496 L619 213 Q619 157 594.5 115.5 Q570 74 530.5 46 Q491 18 440 4 Q389 -10 336 -10 Q307 -10 278.5 -6 Q250 -2 224 6 L192 -74 L135 -55 L168 29 Q117 57 85 102.5 Q53 148 53 213 L53 496 Q53 551 77 593 Q101 635 141 662.5 Q181 690 232 704 Q283 718 336 718 Q386 718 433 706 L464 785 L523 765 L491 685 Z M136 213 Q136 178 153 151.5 Q170 125 199 108 L403 629 Q372 636 335 636 Q297 636 261.5 627.5 Q226 619 198 601.5 Q170 584 153 558 Q136 532 136 496 L136 213 Z M536 496 Q536 537 515.5 564.5 Q495 592 462 609 L254 84 Q295 73 336 73 Q373 73 409 82 Q445 91 473.5 108.5 Q502 126 519 152 Q536 178 536 213 L536 496 Z " />
<glyph glyph-name="Otilde" unicode="&#xd5;" horiz-adv-x="673" d="M191 793 Q199 836 227.5 861.5 Q256 887 288 887 Q307 887 322.5 879.5 Q338 872 351 862.5 Q364 853 374 845.5 Q384 838 393 838 Q401 838 413 844.5 Q425 851 431 874 L490 853 Q477 802 452 782.5 Q427 763 399 763 Q382 763 368 771 Q354 779 341.5 788 Q329 797 316 805 Q303 813 288 813 Q277 813 265 801.5 Q253 790 248 772 L191 793 Z M53 496 Q53 551 77 593 Q101 635 141 662.5 Q181 690 232 704 Q283 718 336 718 Q389 718 440 704 Q491 690 530.5 662.5 Q570 635 594.5 593 Q619 551 619 496 L619 213 Q619 157 594.5 115.5 Q570 74 530.5 46 Q491 18 440 4 Q389 -10 336 -10 Q283 -10 232 4 Q181 18 141 46 Q101 74 77 115.5 Q53 157 53 213 L53 496 Z M136 214 Q136 179 153 153 Q170 127 198 109.5 Q226 92 262 83 Q298 74 336 74 Q373 74 409 83 Q445 92 473.5 109.5 Q502 127 519 153 Q536 179 536 214 L536 496 Q536 533 518.5 559.5 Q501 586 473 603 Q445 620 408.5 628 Q372 636 335 636 Q297 636 261.5 627.5 Q226 619 198 601.5 Q170 584 153 558 Q136 532 136 496 L136 214 Z " />
<glyph glyph-name="OE" unicode="&#x152;" horiz-adv-x="901" d="M528 394 L828 394 L828 311 L528 311 L528 84 L858 84 L858 0 L445 0 L445 35 Q437 22 423 13 Q409 4 392 -1 Q375 -6 356.5 -8 Q338 -10 320 -10 Q267 -9 219 5.5 Q171 20 134.5 47.5 Q98 75 76 116.5 Q54 158 54 213 L54 495 Q54 550 76.5 592 Q99 634 136.5 661.5 Q174 689 222.5 703.5 Q271 718 324 718 Q340 718 358 715 Q376 712 393 707 Q410 702 423.5 694 Q437 686 445 677 L445 708 L858 708 L858 624 L528 624 L528 394 Z M325 74 Q357 74 388 80 Q419 86 445 98 L445 613 Q419 624 388 629.5 Q357 635 325 634 Q288 634 254 626 Q220 618 194 601 Q168 584 152.5 557.5 Q137 531 137 495 L137 213 Q137 178 152.5 151.5 Q168 125 194 108 Q220 91 254 82.5 Q288 74 325 74 Z " />
<glyph glyph-name="P" unicode="P" horiz-adv-x="611" d="M74 708 L344 708 Q404 708 448.5 688.5 Q493 669 523 637 Q553 605 568 564 Q583 523 583 481 Q583 438 568 397.5 Q553 357 523 325.5 Q493 294 448.5 274.5 Q404 255 345 255 L157 255 L157 0 L74 0 L74 708 Z M344 339 Q383 339 412.5 351 Q442 363 461.5 383 Q481 403 490.5 428.5 Q500 454 500 481 Q500 508 490 533.5 Q480 559 460.5 579.5 Q441 600 412 612 Q383 624 344 624 L157 624 L157 339 L344 339 Z " />
<glyph glyph-name="Thorn" unicode="&#xde;" horiz-adv-x="611" d="M74 708 L157 708 L157 580 L344 580 Q404 580 448.5 560.5 Q493 541 523 509 Q553 477 568 436 Q583 395 583 353 Q583 310 568 269.5 Q553 229 523 197.5 Q493 166 448.5 146.5 Q404 127 345 127 L157 127 L157 0 L74 0 L74 708 Z M344 211 Q383 211 412.5 223 Q442 235 461.5 255 Q481 275 490.5 300.5 Q500 326 500 353 Q500 380 490 406 Q480 432 460.5 452 Q441 472 412 484.5 Q383 497 344 496 L157 496 L157 211 L344 211 Z " />
<glyph glyph-name="Q" unicode="Q" horiz-adv-x="673" d="M619 213 Q619 171 605 137.5 Q591 104 567 78 L622 8 L564 -33 L511 33 Q473 12 428 1 Q383 -10 336 -10 Q283 -10 232 4 Q181 18 141 46 Q101 74 77 115.5 Q53 157 53 213 L53 496 Q53 551 77 593 Q101 635 141 662.5 Q181 690 232 704 Q283 718 336 718 Q389 718 440 704 Q491 690 530.5 662.5 Q570 635 594.5 593 Q619 551 619 496 L619 213 Z M517 140 Q536 170 536 213 L536 496 Q536 533 518.5 559.5 Q501 586 473 603 Q445 620 408.5 628 Q372 636 335 636 Q297 636 261.5 627.5 Q226 619 198 602 Q170 585 153 558.5 Q136 532 136 496 L136 213 Q136 178 153 152 Q170 126 198 108.5 Q226 91 262 82.5 Q298 74 336 74 Q370 74 402.5 78 Q435 82 462 94 L403 168 L461 211 L517 140 Z " />
<glyph glyph-name="R" unicode="R" horiz-adv-x="619" d="M267 289 L158 289 L158 0 L74 0 L74 708 L344 708 Q395 708 439 696 Q483 684 515 658.5 Q547 633 566 593 Q585 553 586 496 Q586 443 569.5 405 Q553 367 524 342.5 Q495 318 455.5 305 Q416 292 371 290 L599 0 L496 0 L267 289 Z M345 367 Q381 367 410 373.5 Q439 380 459.5 395 Q480 410 491 435 Q502 460 502 496 Q502 533 490.5 557.5 Q479 582 458 597 Q437 612 408 618 Q379 624 345 624 L158 624 L158 367 L345 367 Z " />
<glyph glyph-name="Racute" unicode="&#x154;" horiz-adv-x="619" d="M432 889 L330 756 L242 756 L327 889 L432 889 Z M267 289 L158 289 L158 0 L74 0 L74 708 L344 708 Q395 708 439 696 Q483 684 515 658.5 Q547 633 566 593 Q585 553 586 496 Q586 443 569.5 405 Q553 367 524 342.5 Q495 318 455.5 305 Q416 292 371 290 L599 0 L496 0 L267 289 Z M345 367 Q381 367 410 373.5 Q439 380 459.5 395 Q480 410 491 435 Q502 460 502 496 Q502 533 490.5 557.5 Q479 582 458 597 Q437 612 408 618 Q379 624 345 624 L158 624 L158 367 L345 367 Z " />
<glyph glyph-name="Rcaron" unicode="&#x158;" horiz-adv-x="619" d="M133 889 L232 889 L301 823 L366 889 L467 889 L339 756 L261 756 L133 889 Z M267 289 L158 289 L158 0 L74 0 L74 708 L344 708 Q395 708 439 696 Q483 684 515 658.5 Q547 633 566 593 Q585 553 586 496 Q586 443 569.5 405 Q553 367 524 342.5 Q495 318 455.5 305 Q416 292 371 290 L599 0 L496 0 L267 289 Z M345 367 Q381 367 410 373.5 Q439 380 459.5 395 Q480 410 491 435 Q502 460 502 496 Q502 533 490.5 557.5 Q479 582 458 597 Q437 612 408 618 Q379 624 345 624 L158 624 L158 367 L345 367 Z " />
<glyph glyph-name="Rcommaaccent" unicode="&#x156;" horiz-adv-x="619" d="M267 289 L158 289 L158 0 L74 0 L74 708 L344 708 Q395 708 439 696 Q483 684 515 658.5 Q547 633 566 593 Q585 553 586 496 Q586 443 569.5 405 Q553 367 524 342.5 Q495 318 455.5 305 Q416 292 371 290 L599 0 L496 0 L267 289 Z M345 367 Q381 367 410 373.5 Q439 380 459.5 395 Q480 410 491 435 Q502 460 502 496 Q502 533 490.5 557.5 Q479 582 458 597 Q437 612 408 618 Q379 624 345 624 L158 624 L158 367 L345 367 Z M330 -254 L256 -254 L306 -88 L393 -88 L330 -254 Z " />
<glyph glyph-name="S" unicode="S" horiz-adv-x="593" d="M129 525 Q127 493 140.5 473.5 Q154 454 178.5 441.5 Q203 429 235 422 Q267 415 302 408 Q348 399 394 387.5 Q440 376 476 352.5 Q512 329 533 289 Q554 249 551 184 Q548 135 525.5 98.5 Q503 62 467 38 Q431 14 386 2 Q341 -10 294 -10 Q254 -10 214 -0.5 Q174 9 139 28 Q104 47 75.5 75.5 Q47 104 31 142 L108 177 Q119 151 139 132 Q159 113 184.5 99.5 Q210 86 238.5 79.5 Q267 73 296 73 Q327 73 357 80 Q387 87 411 101.5 Q435 116 450 137.5 Q465 159 467 188 Q470 226 456 250 Q442 274 415.5 289 Q389 304 354 312.5 Q319 321 282 329 Q239 338 197 350 Q155 362 121.5 384 Q88 406 67 440.5 Q46 475 46 528 Q49 574 71 609.5 Q93 645 127.5 669 Q162 693 205.5 705.5 Q249 718 295 718 Q334 718 373.5 709 Q413 700 447.5 681.5 Q482 663 510 635 Q538 607 554 570 L478 536 Q467 561 447.5 579.5 Q428 598 403.5 611 Q379 624 351 630.5 Q323 637 295 637 Q264 637 235 630 Q206 623 183 609 Q160 595 145.5 574 Q131 553 129 525 Z " />
<glyph glyph-name="Sacute" unicode="&#x15a;" horiz-adv-x="593" d="M426 889 L324 756 L236 756 L321 889 L426 889 Z M129 525 Q127 493 140.5 473.5 Q154 454 178.5 441.5 Q203 429 235 422 Q267 415 302 408 Q348 399 394 387.5 Q440 376 476 352.5 Q512 329 533 289 Q554 249 551 184 Q548 135 525.5 98.5 Q503 62 467 38 Q431 14 386 2 Q341 -10 294 -10 Q254 -10 214 -0.5 Q174 9 139 28 Q104 47 75.5 75.5 Q47 104 31 142 L108 177 Q119 151 139 132 Q159 113 184.5 99.5 Q210 86 238.5 79.5 Q267 73 296 73 Q327 73 357 80 Q387 87 411 101.5 Q435 116 450 137.5 Q465 159 467 188 Q470 226 456 250 Q442 274 415.5 289 Q389 304 354 312.5 Q319 321 282 329 Q239 338 197 350 Q155 362 121.5 384 Q88 406 67 440.5 Q46 475 46 528 Q49 574 71 609.5 Q93 645 127.5 669 Q162 693 205.5 705.5 Q249 718 295 718 Q334 718 373.5 709 Q413 700 447.5 681.5 Q482 663 510 635 Q538 607 554 570 L478 536 Q467 561 447.5 579.5 Q428 598 403.5 611 Q379 624 351 630.5 Q323 637 295 637 Q264 637 235 630 Q206 623 183 609 Q160 595 145.5 574 Q131 553 129 525 Z " />
<glyph glyph-name="Scaron" unicode="&#x160;" horiz-adv-x="593" d="M127 889 L226 889 L295 823 L360 889 L461 889 L333 756 L255 756 L127 889 Z M129 525 Q127 493 140.5 473.5 Q154 454 178.5 441.5 Q203 429 235 422 Q267 415 302 408 Q348 399 394 387.5 Q440 376 476 352.5 Q512 329 533 289 Q554 249 551 184 Q548 135 525.5 98.5 Q503 62 467 38 Q431 14 386 2 Q341 -10 294 -10 Q254 -10 214 -0.5 Q174 9 139 28 Q104 47 75.5 75.5 Q47 104 31 142 L108 177 Q119 151 139 132 Q159 113 184.5 99.5 Q210 86 238.5 79.5 Q267 73 296 73 Q327 73 357 80 Q387 87 411 101.5 Q435 116 450 137.5 Q465 159 467 188 Q470 226 456 250 Q442 274 415.5 289 Q389 304 354 312.5 Q319 321 282 329 Q239 338 197 350 Q155 362 121.5 384 Q88 406 67 440.5 Q46 475 46 528 Q49 574 71 609.5 Q93 645 127.5 669 Q162 693 205.5 705.5 Q249 718 295 718 Q334 718 373.5 709 Q413 700 447.5 681.5 Q482 663 510 635 Q538 607 554 570 L478 536 Q467 561 447.5 579.5 Q428 598 403.5 611 Q379 624 351 630.5 Q323 637 295 637 Q264 637 235 630 Q206 623 183 609 Q160 595 145.5 574 Q131 553 129 525 Z " />
<glyph glyph-name="Scedilla" unicode="&#x15e;" horiz-adv-x="593" d="M302 408 Q348 399 394 387.5 Q440 376 476 352.5 Q512 329 533 289 Q554 249 551 184 Q549 139 529 104.5 Q509 70 477.5 46 Q446 22 405.5 8 Q365 -6 322 -9 L300 -64 Q346 -63 365.5 -86.5 Q385 -110 382 -143 Q378 -184 355 -206 Q332 -228 299.5 -234.5 Q267 -241 231.5 -234 Q196 -227 167 -211 L189 -157 Q210 -168 230 -173 Q250 -178 266.5 -176.5 Q283 -175 293.5 -167.5 Q304 -160 305 -146 Q307 -125 287 -116.5 Q267 -108 232 -118 L219 -106 L258 -8 Q222 -4 187.5 7 Q153 18 123 37 Q93 56 69.5 82 Q46 108 31 142 L108 177 Q119 151 139 132 Q159 113 184.5 99.5 Q210 86 238.5 79.5 Q267 73 296 73 Q327 73 357 80 Q387 87 411 101.5 Q435 116 450 137.5 Q465 159 467 188 Q470 226 456 250 Q442 274 415.5 289 Q389 304 354 312.5 Q319 321 282 329 Q239 338 197 350 Q155 362 121.5 384 Q88 406 67 440.5 Q46 475 46 528 Q49 574 71 609.5 Q93 645 127.5 669 Q162 693 205.5 705.5 Q249 718 295 718 Q334 718 373.5 709 Q413 700 447.5 681.5 Q482 663 510 635 Q538 607 554 570 L478 536 Q467 561 447.5 579.5 Q428 598 403.5 611 Q379 624 351 630.5 Q323 637 295 637 Q264 637 235 630 Q206 623 183 609 Q160 595 145.5 574 Q131 553 129 525 Q127 493 140.5 473.5 Q154 454 178.5 441.5 Q203 429 235 422 Q267 415 302 408 Z " />
<glyph glyph-name="Scommaaccent" unicode="&#x218;" horiz-adv-x="593" d="M129 525 Q127 493 140.5 473.5 Q154 454 178.5 441.5 Q203 429 235 422 Q267 415 302 408 Q348 399 394 387.5 Q440 376 476 352.5 Q512 329 533 289 Q554 249 551 184 Q548 135 525.5 98.5 Q503 62 467 38 Q431 14 386 2 Q341 -10 294 -10 Q254 -10 214 -0.5 Q174 9 139 28 Q104 47 75.5 75.5 Q47 104 31 142 L108 177 Q119 151 139 132 Q159 113 184.5 99.5 Q210 86 238.5 79.5 Q267 73 296 73 Q327 73 357 80 Q387 87 411 101.5 Q435 116 450 137.5 Q465 159 467 188 Q470 226 456 250 Q442 274 415.5 289 Q389 304 354 312.5 Q319 321 282 329 Q239 338 197 350 Q155 362 121.5 384 Q88 406 67 440.5 Q46 475 46 528 Q49 574 71 609.5 Q93 645 127.5 669 Q162 693 205.5 705.5 Q249 718 295 718 Q334 718 373.5 709 Q413 700 447.5 681.5 Q482 663 510 635 Q538 607 554 570 L478 536 Q467 561 447.5 579.5 Q428 598 403.5 611 Q379 624 351 630.5 Q323 637 295 637 Q264 637 235 630 Q206 623 183 609 Q160 595 145.5 574 Q131 553 129 525 Z M287 -254 L213 -254 L263 -88 L350 -88 L287 -254 Z " />
<glyph glyph-name="T" unicode="T" horiz-adv-x="566" d="M325 624 L325 0 L241 0 L241 624 L14 624 L14 708 L552 708 L552 624 L325 624 Z " />
<glyph glyph-name="Tbar" unicode="&#x166;" horiz-adv-x="570" d="M327 407 L423 407 L423 335 L327 335 L327 0 L243 0 L243 335 L146 335 L146 407 L243 407 L243 624 L16 624 L16 708 L554 708 L554 624 L327 624 L327 407 Z " />
<glyph glyph-name="Tcaron" unicode="&#x164;" horiz-adv-x="566" d="M115 889 L214 889 L283 823 L348 889 L449 889 L321 756 L243 756 L115 889 Z M325 624 L325 0 L241 0 L241 624 L14 624 L14 708 L552 708 L552 624 L325 624 Z " />
<glyph glyph-name="Tcommaaccent" unicode="&#x162;" horiz-adv-x="566" d="M325 624 L325 0 L241 0 L241 624 L14 624 L14 708 L552 708 L552 624 L325 624 Z M276 -254 L202 -254 L252 -88 L339 -88 L276 -254 Z " />
<glyph glyph-name="uni021A" unicode="&#x21a;" horiz-adv-x="566" d="M325 624 L325 0 L241 0 L241 624 L14 624 L14 708 L552 708 L552 624 L325 624 Z M276 -254 L202 -254 L252 -88 L339 -88 L276 -254 Z " />
<glyph glyph-name="U" unicode="U" horiz-adv-x="676" d="M153 216 Q153 180 169 153.5 Q185 127 211 109 Q237 91 270 82.5 Q303 74 338 74 Q372 74 405.5 82.5 Q439 91 465 109 Q491 127 507 153.5 Q523 180 523 216 L523 708 L607 708 L607 216 Q607 160 584 117.5 Q561 75 523 46.5 Q485 18 436.5 4 Q388 -10 338 -10 Q287 -10 239 4 Q191 18 153 46.5 Q115 75 92 117.5 Q69 160 69 216 L69 708 L153 708 L153 216 Z " />
<glyph glyph-name="Uacute" unicode="&#xda;" horiz-adv-x="676" d="M469 889 L367 756 L279 756 L364 889 L469 889 Z M153 216 Q153 180 169 153.5 Q185 127 211 109 Q237 91 270 82.5 Q303 74 338 74 Q372 74 405.5 82.5 Q439 91 465 109 Q491 127 507 153.5 Q523 180 523 216 L523 708 L607 708 L607 216 Q607 160 584 117.5 Q561 75 523 46.5 Q485 18 436.5 4 Q388 -10 338 -10 Q287 -10 239 4 Q191 18 153 46.5 Q115 75 92 117.5 Q69 160 69 216 L69 708 L153 708 L153 216 Z " />
<glyph glyph-name="Ucircumflex" unicode="&#xdb;" horiz-adv-x="676" d="M499 756 L404 756 L343 825 L279 756 L181 756 L308 889 L382 889 L499 756 Z M153 216 Q153 180 169 153.5 Q185 127 211 109 Q237 91 270 82.5 Q303 74 338 74 Q372 74 405.5 82.5 Q439 91 465 109 Q491 127 507 153.5 Q523 180 523 216 L523 708 L607 708 L607 216 Q607 160 584 117.5 Q561 75 523 46.5 Q485 18 436.5 4 Q388 -10 338 -10 Q287 -10 239 4 Q191 18 153 46.5 Q115 75 92 117.5 Q69 160 69 216 L69 708 L153 708 L153 216 Z " />
<glyph glyph-name="Udieresis" unicode="&#xdc;" horiz-adv-x="676" d="M196 822 Q196 845 211 860 Q226 875 248 875 Q270 875 285 860 Q300 845 300 822 Q300 800 285 785 Q270 770 248 770 Q226 770 211 785 Q196 800 196 822 Z M377 822 Q377 845 391.5 860 Q406 875 429 875 Q451 875 466 860 Q481 845 481 822 Q481 800 466 785 Q451 770 429 770 Q406 770 391.5 785 Q377 800 377 822 Z M153 216 Q153 180 169 153.5 Q185 127 211 109 Q237 91 270 82.5 Q303 74 338 74 Q372 74 405.5 82.5 Q439 91 465 109 Q491 127 507 153.5 Q523 180 523 216 L523 708 L607 708 L607 216 Q607 160 584 117.5 Q561 75 523 46.5 Q485 18 436.5 4 Q388 -10 338 -10 Q287 -10 239 4 Q191 18 153 46.5 Q115 75 92 117.5 Q69 160 69 216 L69 708 L153 708 L153 216 Z " />
<glyph glyph-name="Ugrave" unicode="&#xd9;" horiz-adv-x="676" d="M311 891 L393 757 L311 757 L204 891 L311 891 Z M153 216 Q153 180 169 153.5 Q185 127 211 109 Q237 91 270 82.5 Q303 74 338 74 Q372 74 405.5 82.5 Q439 91 465 109 Q491 127 507 153.5 Q523 180 523 216 L523 708 L607 708 L607 216 Q607 160 584 117.5 Q561 75 523 46.5 Q485 18 436.5 4 Q388 -10 338 -10 Q287 -10 239 4 Q191 18 153 46.5 Q115 75 92 117.5 Q69 160 69 216 L69 708 L153 708 L153 216 Z " />
<glyph glyph-name="Uhungarumlaut" unicode="&#x170;" horiz-adv-x="676" d="M295 756 L220 756 L281 881 L379 881 L295 756 Z M445 756 L370 756 L437 881 L538 881 L445 756 Z M153 216 Q153 180 169 153.5 Q185 127 211 109 Q237 91 270 82.5 Q303 74 338 74 Q372 74 405.5 82.5 Q439 91 465 109 Q491 127 507 153.5 Q523 180 523 216 L523 708 L607 708 L607 216 Q607 160 584 117.5 Q561 75 523 46.5 Q485 18 436.5 4 Q388 -10 338 -10 Q287 -10 239 4 Q191 18 153 46.5 Q115 75 92 117.5 Q69 160 69 216 L69 708 L153 708 L153 216 Z " />
<glyph glyph-name="Umacron" unicode="&#x16a;" horiz-adv-x="676" d="M209 851 L466 851 L466 779 L209 779 L209 851 Z M153 216 Q153 180 169 153.5 Q185 127 211 109 Q237 91 270 82.5 Q303 74 338 74 Q372 74 405.5 82.5 Q439 91 465 109 Q491 127 507 153.5 Q523 180 523 216 L523 708 L607 708 L607 216 Q607 160 584 117.5 Q561 75 523 46.5 Q485 18 436.5 4 Q388 -10 338 -10 Q287 -10 239 4 Q191 18 153 46.5 Q115 75 92 117.5 Q69 160 69 216 L69 708 L153 708 L153 216 Z " />
<glyph glyph-name="Uogonek" unicode="&#x172;" horiz-adv-x="676" d="M607 216 Q607 154 580 111 Q553 68 509 34 Q464 -1 440 -29 Q416 -57 405 -79 Q394 -101 393 -116.5 Q392 -132 395 -141 Q400 -157 410 -164 Q420 -171 432 -171.5 Q444 -172 456.5 -167.5 Q469 -163 479 -155 L502 -211 Q470 -233 438.5 -239 Q407 -245 381.5 -238 Q356 -231 339.5 -213 Q323 -195 320 -168 Q316 -127 336.5 -84 Q357 -41 405 -3 Q373 -10 338 -10 Q287 -10 239 4 Q191 18 153 46.5 Q115 75 92 117.5 Q69 160 69 216 L69 708 L153 708 L153 216 Q153 180 169 153.5 Q185 127 211 109 Q237 91 270 82.5 Q303 74 338 74 Q372 74 405.5 82.5 Q439 91 465 109 Q491 127 507 153.5 Q523 180 523 216 L523 708 L607 708 L607 216 Z " />
<glyph glyph-name="Uring" unicode="&#x16e;" horiz-adv-x="676" d="M231 819 Q231 841 239.5 860.5 Q248 880 262.5 894.5 Q277 909 296.5 917.5 Q316 926 338 926 Q360 926 379 917 Q398 908 412 893 Q426 878 434 858.5 Q442 839 442 818 Q442 797 434 778 Q426 759 412 744.5 Q398 730 379 721 Q360 712 338 712 Q316 712 296.5 720.5 Q277 729 262.5 743.5 Q248 758 239.5 777.5 Q231 797 231 819 Z M383 819 Q383 839 370 853.5 Q357 868 337 868 Q317 868 304 853 Q291 838 291 818 Q291 798 304.5 784 Q318 770 337 770 Q357 770 370 784.5 Q383 799 383 819 Z M153 216 Q153 180 169 153.5 Q185 127 211 109 Q237 91 270 82.5 Q303 74 338 74 Q372 74 405.5 82.5 Q439 91 465 109 Q491 127 507 153.5 Q523 180 523 216 L523 708 L607 708 L607 216 Q607 160 584 117.5 Q561 75 523 46.5 Q485 18 436.5 4 Q388 -10 338 -10 Q287 -10 239 4 Q191 18 153 46.5 Q115 75 92 117.5 Q69 160 69 216 L69 708 L153 708 L153 216 Z " />
<glyph glyph-name="V" unicode="V" horiz-adv-x="617" d="M91 708 L309 95 L526 708 L614 708 L360 0 L257 0 L2 708 L91 708 Z " />
<glyph glyph-name="W" unicode="W" horiz-adv-x="933" d="M923 708 L718 0 L616 0 L467 471 L317 0 L215 0 L10 708 L97 708 L267 100 L430 619 L504 619 L666 101 L837 708 L923 708 Z " />
<glyph glyph-name="Wacute" unicode="&#x1e82;" horiz-adv-x="933" d="M598 889 L496 756 L408 756 L493 889 L598 889 Z M923 708 L718 0 L616 0 L467 471 L317 0 L215 0 L10 708 L97 708 L267 100 L430 619 L504 619 L666 101 L837 708 L923 708 Z " />
<glyph glyph-name="Wcircumflex" unicode="&#x174;" horiz-adv-x="933" d="M628 756 L533 756 L472 825 L408 756 L310 756 L437 889 L511 889 L628 756 Z M923 708 L718 0 L616 0 L467 471 L317 0 L215 0 L10 708 L97 708 L267 100 L430 619 L504 619 L666 101 L837 708 L923 708 Z " />
<glyph glyph-name="Wdieresis" unicode="&#x1e84;" horiz-adv-x="933" d="M325 822 Q325 845 340 860 Q355 875 377 875 Q399 875 414 860 Q429 845 429 822 Q429 800 414 785 Q399 770 377 770 Q355 770 340 785 Q325 800 325 822 Z M506 822 Q506 845 520.5 860 Q535 875 558 875 Q580 875 595 860 Q610 845 610 822 Q610 800 595 785 Q580 770 558 770 Q535 770 520.5 785 Q506 800 506 822 Z M923 708 L718 0 L616 0 L467 471 L317 0 L215 0 L10 708 L97 708 L267 100 L430 619 L504 619 L666 101 L837 708 L923 708 Z " />
<glyph glyph-name="Wgrave" unicode="&#x1e80;" horiz-adv-x="933" d="M440 891 L522 757 L440 757 L333 891 L440 891 Z M923 708 L718 0 L616 0 L467 471 L317 0 L215 0 L10 708 L97 708 L267 100 L430 619 L504 619 L666 101 L837 708 L923 708 Z " />
<glyph glyph-name="X" unicode="X" horiz-adv-x="595" d="M488 0 L297 284 L106 0 L4 0 L247 353 L6 708 L106 708 L297 428 L488 708 L589 708 L347 353 L590 0 L488 0 Z " />
<glyph glyph-name="Y" unicode="Y" horiz-adv-x="579" d="M247 0 L247 276 L1 708 L98 708 L290 365 L480 708 L578 708 L331 276 L331 0 L247 0 Z " />
<glyph glyph-name="Yacute" unicode="&#xdd;" horiz-adv-x="579" d="M421 889 L319 756 L231 756 L316 889 L421 889 Z M247 0 L247 276 L1 708 L98 708 L290 365 L480 708 L578 708 L331 276 L331 0 L247 0 Z " />
<glyph glyph-name="Ycircumflex" unicode="&#x176;" horiz-adv-x="579" d="M451 756 L356 756 L295 825 L231 756 L133 756 L260 889 L334 889 L451 756 Z M247 0 L247 276 L1 708 L98 708 L290 365 L480 708 L578 708 L331 276 L331 0 L247 0 Z " />
<glyph glyph-name="Ydieresis" unicode="&#x178;" horiz-adv-x="579" d="M148 822 Q148 845 163 860 Q178 875 200 875 Q222 875 237 860 Q252 845 252 822 Q252 800 237 785 Q222 770 200 770 Q178 770 163 785 Q148 800 148 822 Z M329 822 Q329 845 343.5 860 Q358 875 381 875 Q403 875 418 860 Q433 845 433 822 Q433 800 418 785 Q403 770 381 770 Q358 770 343.5 785 Q329 800 329 822 Z M247 0 L247 276 L1 708 L98 708 L290 365 L480 708 L578 708 L331 276 L331 0 L247 0 Z " />
<glyph glyph-name="Ygrave" unicode="&#x1ef2;" horiz-adv-x="579" d="M263 891 L345 757 L263 757 L156 891 L263 891 Z M247 0 L247 276 L1 708 L98 708 L290 365 L480 708 L578 708 L331 276 L331 0 L247 0 Z " />
<glyph glyph-name="Z" unicode="Z" horiz-adv-x="583" d="M531 708 L558 650 L144 84 L546 84 L546 0 L46 0 L22 59 L436 624 L41 624 L41 708 L531 708 Z " />
<glyph glyph-name="Zacute" unicode="&#x179;" horiz-adv-x="583" d="M425 889 L323 756 L235 756 L320 889 L425 889 Z M531 708 L558 650 L144 84 L546 84 L546 0 L46 0 L22 59 L436 624 L41 624 L41 708 L531 708 Z " />
<glyph glyph-name="Zcaron" unicode="&#x17d;" horiz-adv-x="583" d="M126 889 L225 889 L294 823 L359 889 L460 889 L332 756 L254 756 L126 889 Z M531 708 L558 650 L144 84 L546 84 L546 0 L46 0 L22 59 L436 624 L41 624 L41 708 L531 708 Z " />
<glyph glyph-name="Zdotaccent" unicode="&#x17b;" horiz-adv-x="583" d="M236 823 Q236 847 252.5 863.5 Q269 880 293 880 Q317 880 333.5 863.5 Q350 847 350 823 Q350 799 333.5 782.5 Q317 766 293 766 Q269 766 252.5 782.5 Q236 799 236 823 Z M531 708 L558 650 L144 84 L546 84 L546 0 L46 0 L22 59 L436 624 L41 624 L41 708 L531 708 Z " />
<glyph glyph-name="a" unicode="a" horiz-adv-x="488" d="M352 361 Q352 383 341.5 400.5 Q331 418 314 430 Q297 442 275 448 Q253 454 230 454 Q195 454 160 440.5 Q125 427 102 398 L52 447 Q88 487 137.5 507.5 Q187 528 236 528 Q273 528 308.5 517.5 Q344 507 371.5 486.5 Q399 466 415.5 434.5 Q432 403 432 361 L432 25 Q378 6 324 -2.5 Q270 -11 218 -10 Q179 -10 145 0 Q111 10 86.5 30 Q62 50 47.5 80 Q33 110 33 152 Q33 195 49.5 226 Q66 257 93 277 Q120 297 155 307 Q190 317 228 317 Q293 317 352 292 L352 361 Z M352 234 Q328 242 298 248 Q268 254 236 254 Q212 254 189.5 248.5 Q167 243 150 231 Q133 219 122.5 199.5 Q112 180 112 152 Q112 102 143 80.5 Q174 59 220 58 Q253 57 286.5 59 Q320 61 352 68 L352 234 Z " />
<glyph glyph-name="aacute" unicode="&#xe1;" horiz-adv-x="488" d="M369 709 L267 576 L187 576 L272 709 L369 709 Z M352 361 Q352 383 341.5 400.5 Q331 418 314 430 Q297 442 275 448 Q253 454 230 454 Q195 454 160 440.5 Q125 427 102 398 L52 447 Q88 487 137.5 507.5 Q187 528 236 528 Q273 528 308.5 517.5 Q344 507 371.5 486.5 Q399 466 415.5 434.5 Q432 403 432 361 L432 25 Q378 6 324 -2.5 Q270 -11 218 -10 Q179 -10 145 0 Q111 10 86.5 30 Q62 50 47.5 80 Q33 110 33 152 Q33 195 49.5 226 Q66 257 93 277 Q120 297 155 307 Q190 317 228 317 Q293 317 352 292 L352 361 Z M352 234 Q328 242 298 248 Q268 254 236 254 Q212 254 189.5 248.5 Q167 243 150 231 Q133 219 122.5 199.5 Q112 180 112 152 Q112 102 143 80.5 Q174 59 220 58 Q253 57 286.5 59 Q320 61 352 68 L352 234 Z " />
<glyph glyph-name="abreve" unicode="&#x103;" horiz-adv-x="488" d="M246 576 Q219 576 195.5 586.5 Q172 597 154.5 615 Q137 633 127 657.5 Q117 682 117 709 L190 709 Q190 684 206.5 666.5 Q223 649 246 649 Q269 649 286 666.5 Q303 684 303 709 L379 709 Q379 682 368.5 657.5 Q358 633 340 615 Q322 597 297.5 586.5 Q273 576 246 576 Z M352 361 Q352 383 341.5 400.5 Q331 418 314 430 Q297 442 275 448 Q253 454 230 454 Q195 454 160 440.5 Q125 427 102 398 L52 447 Q88 487 137.5 507.5 Q187 528 236 528 Q273 528 308.5 517.5 Q344 507 371.5 486.5 Q399 466 415.5 434.5 Q432 403 432 361 L432 25 Q378 6 324 -2.5 Q270 -11 218 -10 Q179 -10 145 0 Q111 10 86.5 30 Q62 50 47.5 80 Q33 110 33 152 Q33 195 49.5 226 Q66 257 93 277 Q120 297 155 307 Q190 317 228 317 Q293 317 352 292 L352 361 Z M352 234 Q328 242 298 248 Q268 254 236 254 Q212 254 189.5 248.5 Q167 243 150 231 Q133 219 122.5 199.5 Q112 180 112 152 Q112 102 143 80.5 Q174 59 220 58 Q253 57 286.5 59 Q320 61 352 68 L352 234 Z " />
<glyph glyph-name="acircumflex" unicode="&#xe2;" horiz-adv-x="488" d="M407 576 L312 576 L251 645 L187 576 L89 576 L216 709 L290 709 L407 576 Z M352 361 Q352 383 341.5 400.5 Q331 418 314 430 Q297 442 275 448 Q253 454 230 454 Q195 454 160 440.5 Q125 427 102 398 L52 447 Q88 487 137.5 507.5 Q187 528 236 528 Q273 528 308.5 517.5 Q344 507 371.5 486.5 Q399 466 415.5 434.5 Q432 403 432 361 L432 25 Q378 6 324 -2.5 Q270 -11 218 -10 Q179 -10 145 0 Q111 10 86.5 30 Q62 50 47.5 80 Q33 110 33 152 Q33 195 49.5 226 Q66 257 93 277 Q120 297 155 307 Q190 317 228 317 Q293 317 352 292 L352 361 Z M352 234 Q328 242 298 248 Q268 254 236 254 Q212 254 189.5 248.5 Q167 243 150 231 Q133 219 122.5 199.5 Q112 180 112 152 Q112 102 143 80.5 Q174 59 220 58 Q253 57 286.5 59 Q320 61 352 68 L352 234 Z " />
<glyph glyph-name="adieresis" unicode="&#xe4;" horiz-adv-x="488" d="M104 642 Q104 665 119 680 Q134 695 156 695 Q178 695 193 680 Q208 665 208 642 Q208 620 193 605 Q178 590 156 590 Q134 590 119 605 Q104 620 104 642 Z M285 642 Q285 665 299.5 680 Q314 695 337 695 Q359 695 374 680 Q389 665 389 642 Q389 620 374 605 Q359 590 337 590 Q314 590 299.5 605 Q285 620 285 642 Z M352 361 Q352 383 341.5 400.5 Q331 418 314 430 Q297 442 275 448 Q253 454 230 454 Q195 454 160 440.5 Q125 427 102 398 L52 447 Q88 487 137.5 507.5 Q187 528 236 528 Q273 528 308.5 517.5 Q344 507 371.5 486.5 Q399 466 415.5 434.5 Q432 403 432 361 L432 25 Q378 6 324 -2.5 Q270 -11 218 -10 Q179 -10 145 0 Q111 10 86.5 30 Q62 50 47.5 80 Q33 110 33 152 Q33 195 49.5 226 Q66 257 93 277 Q120 297 155 307 Q190 317 228 317 Q293 317 352 292 L352 361 Z M352 234 Q328 242 298 248 Q268 254 236 254 Q212 254 189.5 248.5 Q167 243 150 231 Q133 219 122.5 199.5 Q112 180 112 152 Q112 102 143 80.5 Q174 59 220 58 Q253 57 286.5 59 Q320 61 352 68 L352 234 Z " />
<glyph glyph-name="agrave" unicode="&#xe0;" horiz-adv-x="488" d="M239 711 L321 577 L244 577 L137 711 L239 711 Z M352 361 Q352 383 341.5 400.5 Q331 418 314 430 Q297 442 275 448 Q253 454 230 454 Q195 454 160 440.5 Q125 427 102 398 L52 447 Q88 487 137.5 507.5 Q187 528 236 528 Q273 528 308.5 517.5 Q344 507 371.5 486.5 Q399 466 415.5 434.5 Q432 403 432 361 L432 25 Q378 6 324 -2.5 Q270 -11 218 -10 Q179 -10 145 0 Q111 10 86.5 30 Q62 50 47.5 80 Q33 110 33 152 Q33 195 49.5 226 Q66 257 93 277 Q120 297 155 307 Q190 317 228 317 Q293 317 352 292 L352 361 Z M352 234 Q328 242 298 248 Q268 254 236 254 Q212 254 189.5 248.5 Q167 243 150 231 Q133 219 122.5 199.5 Q112 180 112 152 Q112 102 143 80.5 Q174 59 220 58 Q253 57 286.5 59 Q320 61 352 68 L352 234 Z " />
<glyph glyph-name="amacron" unicode="&#x101;" horiz-adv-x="488" d="M117 671 L374 671 L374 599 L117 599 L117 671 Z M352 361 Q352 383 341.5 400.5 Q331 418 314 430 Q297 442 275 448 Q253 454 230 454 Q195 454 160 440.5 Q125 427 102 398 L52 447 Q88 487 137.5 507.5 Q187 528 236 528 Q273 528 308.5 517.5 Q344 507 371.5 486.5 Q399 466 415.5 434.5 Q432 403 432 361 L432 25 Q378 6 324 -2.5 Q270 -11 218 -10 Q179 -10 145 0 Q111 10 86.5 30 Q62 50 47.5 80 Q33 110 33 152 Q33 195 49.5 226 Q66 257 93 277 Q120 297 155 307 Q190 317 228 317 Q293 317 352 292 L352 361 Z M352 234 Q328 242 298 248 Q268 254 236 254 Q212 254 189.5 248.5 Q167 243 150 231 Q133 219 122.5 199.5 Q112 180 112 152 Q112 102 143 80.5 Q174 59 220 58 Q253 57 286.5 59 Q320 61 352 68 L352 234 Z " />
<glyph glyph-name="aogonek" unicode="&#x105;" horiz-adv-x="492" d="M456 -205 Q424 -227 392.5 -233 Q361 -239 335.5 -232 Q310 -225 293.5 -207 Q277 -189 274 -162 Q271 -125 286 -84.5 Q301 -44 343 1 Q278 -11 219 -10 Q180 -10 146 2.5 Q112 15 87.5 38 Q63 61 48.5 94 Q34 127 34 169 Q34 215 51.5 247 Q69 279 98 299 Q127 319 164 327.5 Q201 336 240 336 Q270 336 299 328 Q328 320 353 306 L353 361 Q353 383 342.5 400 Q332 417 315 428 Q298 439 276 444.5 Q254 450 231 450 Q196 450 163 436 Q130 422 108 394 L53 447 Q89 487 138.5 507.5 Q188 528 237 528 Q274 528 309.5 517.5 Q345 507 372.5 486.5 Q400 466 416.5 434.5 Q433 403 433 361 L433 25 Q400 -4 382 -29.5 Q364 -55 355.5 -75.5 Q347 -96 346.5 -111 Q346 -126 349 -135 Q354 -151 364 -158 Q374 -165 386 -165.5 Q398 -166 410.5 -161.5 Q423 -157 433 -149 L456 -205 Z M221 61 Q254 60 287.5 62 Q321 64 353 71 L353 238 Q329 246 299 252.5 Q269 259 237 259 Q213 259 190.5 255.5 Q168 252 151 242 Q134 232 123.5 214.5 Q113 197 113 169 Q113 119 144 90.5 Q175 62 221 61 Z " />
<glyph glyph-name="aring" unicode="&#xe5;" horiz-adv-x="488" d="M143 659 Q143 680 151 698 Q159 716 173 729 Q187 742 206 749.5 Q225 757 246 757 Q267 757 285.5 749 Q304 741 317.5 727.5 Q331 714 338.5 696 Q346 678 346 658 Q346 638 338 620.5 Q330 603 316.5 589.5 Q303 576 285 568.5 Q267 561 246 561 Q225 561 206 568.5 Q187 576 173 589 Q159 602 151 620 Q143 638 143 659 Z M296 659 Q296 682 282 695 Q268 708 245 708 Q222 708 208 694 Q194 680 194 658 Q194 635 209 622.5 Q224 610 245 610 Q268 610 282 623 Q296 636 296 659 Z M352 361 Q352 383 341.5 400.5 Q331 418 314 430 Q297 442 275 448 Q253 454 230 454 Q195 454 160 440.5 Q125 427 102 398 L52 447 Q88 487 137.5 507.5 Q187 528 236 528 Q273 528 308.5 517.5 Q344 507 371.5 486.5 Q399 466 415.5 434.5 Q432 403 432 361 L432 25 Q378 6 324 -2.5 Q270 -11 218 -10 Q179 -10 145 0 Q111 10 86.5 30 Q62 50 47.5 80 Q33 110 33 152 Q33 195 49.5 226 Q66 257 93 277 Q120 297 155 307 Q190 317 228 317 Q293 317 352 292 L352 361 Z M352 234 Q328 242 298 248 Q268 254 236 254 Q212 254 189.5 248.5 Q167 243 150 231 Q133 219 122.5 199.5 Q112 180 112 152 Q112 102 143 80.5 Q174 59 220 58 Q253 57 286.5 59 Q320 61 352 68 L352 234 Z " />
<glyph glyph-name="atilde" unicode="&#xe3;" horiz-adv-x="488" d="M97 612 Q105 654 132 678.5 Q159 703 191 703 Q210 703 225 695.5 Q240 688 252.5 679.5 Q265 671 274.5 663.5 Q284 656 293 656 Q301 656 312.5 662.5 Q324 669 330 691 L387 670 Q375 621 350.5 602 Q326 583 299 583 Q282 583 269 590.5 Q256 598 243.5 607 Q231 616 218.5 623.5 Q206 631 191 631 Q181 631 169 620 Q157 609 152 592 L97 612 Z M352 361 Q352 383 341.5 400.5 Q331 418 314 430 Q297 442 275 448 Q253 454 230 454 Q195 454 160 440.5 Q125 427 102 398 L52 447 Q88 487 137.5 507.5 Q187 528 236 528 Q273 528 308.5 517.5 Q344 507 371.5 486.5 Q399 466 415.5 434.5 Q432 403 432 361 L432 25 Q378 6 324 -2.5 Q270 -11 218 -10 Q179 -10 145 0 Q111 10 86.5 30 Q62 50 47.5 80 Q33 110 33 152 Q33 195 49.5 226 Q66 257 93 277 Q120 297 155 307 Q190 317 228 317 Q293 317 352 292 L352 361 Z M352 234 Q328 242 298 248 Q268 254 236 254 Q212 254 189.5 248.5 Q167 243 150 231 Q133 219 122.5 199.5 Q112 180 112 152 Q112 102 143 80.5 Q174 59 220 58 Q253 57 286.5 59 Q320 61 352 68 L352 234 Z " />
<glyph glyph-name="ae" unicode="&#xe6;" horiz-adv-x="791" d="M352 360 Q352 382 341.5 399 Q331 416 314 427 Q297 438 275 443.5 Q253 449 230 449 Q196 449 162.5 435 Q129 421 107 393 L52 446 Q88 487 137 507 Q186 527 235 527 Q281 527 326.5 505 Q372 483 394 444 Q405 466 423 481.5 Q441 497 462 507 Q483 517 506 521.5 Q529 526 551 526 Q588 526 624 515.5 Q660 505 688 483 Q716 461 733 428.5 Q750 396 750 353 L750 226 L431 226 L431 160 Q431 137 441.5 120 Q452 103 468.5 91.5 Q485 80 506.5 74.5 Q528 69 551 69 Q587 69 621 86 Q655 103 670 139 L742 104 Q728 75 707.5 54 Q687 33 661.5 18.5 Q636 4 607.5 -3 Q579 -10 551 -10 Q510 -10 470.5 3.5 Q431 17 402 43 Q368 17 324 3.5 Q280 -10 233 -10 Q195 -10 159 0 Q123 10 95 31.5 Q67 53 50 86 Q33 119 33 165 Q33 208 49 240 Q65 272 92 293 Q119 314 153.5 324.5 Q188 335 224 335 Q261 335 292.5 327 Q324 319 352 302 L352 360 Z M671 355 Q671 378 660.5 395 Q650 412 633.5 423.5 Q617 435 595 440.5 Q573 446 551 446 Q529 446 507.5 440.5 Q486 435 469 424 Q452 413 441.5 396.5 Q431 380 431 358 L431 290 L671 290 L671 355 Z M361 103 Q352 128 352 162 L352 241 Q325 252 297.5 258.5 Q270 265 239 265 Q214 265 191.5 260 Q169 255 151.5 243.5 Q134 232 123.5 212.5 Q113 193 113 165 Q113 139 123.5 120.5 Q134 102 150.5 90.5 Q167 79 188.5 73.5 Q210 68 234 68 Q269 68 302.5 78 Q336 88 361 103 Z " />
<glyph glyph-name="b" unicode="b" horiz-adv-x="511" d="M142 496 Q203 528 268 528 Q306 528 341 517.5 Q376 507 403 485.5 Q430 464 446.5 431.5 Q463 399 463 355 L463 162 Q463 119 446 87 Q429 55 401 33.5 Q373 12 337.5 1.5 Q302 -9 265 -10 Q215 -10 164 0 Q113 10 62 27 L62 700 L142 700 L142 496 Z M142 78 Q171 69 202.5 65.5 Q234 62 265 62 Q287 62 308 69 Q329 76 345.5 88.5 Q362 101 372 119.5 Q382 138 382 162 L382 356 Q382 380 372 399 Q362 418 346 430.5 Q330 443 308.5 450 Q287 457 265 457 Q236 457 203.5 450.5 Q171 444 142 428 L142 78 Z " />
<glyph glyph-name="c" unicode="c" horiz-adv-x="464" d="M370 388 Q345 428 313 438 Q281 448 247 448 Q224 448 202.5 442.5 Q181 437 164.5 425.5 Q148 414 137.5 396.5 Q127 379 127 355 L127 161 Q127 138 137 120 Q147 102 163.5 90 Q180 78 202 71.5 Q224 65 248 65 Q286 65 322.5 83 Q359 101 377 147 L441 117 Q430 85 409.5 61 Q389 37 363 21 Q337 5 307 -2.5 Q277 -10 247 -10 Q210 -10 174 0.5 Q138 11 110 33 Q82 55 64.5 87 Q47 119 47 163 L47 355 Q47 398 64.5 430.5 Q82 463 110 485 Q138 507 174 517.5 Q210 528 247 528 Q302 528 348.5 507 Q395 486 433 425 L370 388 Z " />
<glyph glyph-name="cacute" unicode="&#x107;" horiz-adv-x="464" d="M378 709 L276 576 L188 576 L273 709 L378 709 Z M361 396 Q347 423 314.5 435.5 Q282 448 247 448 Q224 448 202.5 442.5 Q181 437 164.5 425.5 Q148 414 137.5 396.5 Q127 379 127 355 L127 161 Q127 138 137.5 121 Q148 104 164.5 92.5 Q181 81 202.5 75.5 Q224 70 247 70 Q286 70 321 90 Q356 110 368 152 L441 117 Q430 85 409.5 61 Q389 37 363 21 Q337 5 307 -2.5 Q277 -10 247 -10 Q210 -10 174 0.5 Q138 11 110 33 Q82 55 64.5 87 Q47 119 47 163 L47 355 Q47 398 64.5 430.5 Q82 463 110 485 Q138 507 174 517.5 Q210 528 247 528 Q302 528 353 502.5 Q404 477 433 425 L368 386 L361 396 Z " />
<glyph glyph-name="ccaron" unicode="&#x10d;" horiz-adv-x="464" d="M79 709 L178 709 L247 643 L312 709 L413 709 L285 576 L207 576 L79 709 Z M361 396 Q347 423 314.5 435.5 Q282 448 247 448 Q224 448 202.5 442.5 Q181 437 164.5 425.5 Q148 414 137.5 396.5 Q127 379 127 355 L127 161 Q127 138 137.5 121 Q148 104 164.5 92.5 Q181 81 202.5 75.5 Q224 70 247 70 Q286 70 321 90 Q356 110 368 152 L441 117 Q430 85 409.5 61 Q389 37 363 21 Q337 5 307 -2.5 Q277 -10 247 -10 Q210 -10 174 0.5 Q138 11 110 33 Q82 55 64.5 87 Q47 119 47 163 L47 355 Q47 398 64.5 430.5 Q82 463 110 485 Q138 507 174 517.5 Q210 528 247 528 Q302 528 353 502.5 Q404 477 433 425 L368 386 L361 396 Z " />
<glyph glyph-name="ccedilla" unicode="&#xe7;" horiz-adv-x="464" d="M441 117 Q421 60 375 29 Q329 -2 275 -8 L253 -64 Q299 -63 318.5 -86.5 Q338 -110 335 -143 Q331 -184 308 -206 Q285 -228 252.5 -234.5 Q220 -241 184.5 -234 Q149 -227 120 -211 L142 -157 Q163 -168 183 -173 Q203 -178 219.5 -176.5 Q236 -175 246.5 -167.5 Q257 -160 258 -146 Q260 -125 240 -116.5 Q220 -108 185 -118 L172 -106 L211 -8 Q179 -3 149 10 Q119 23 96.5 44 Q74 65 60.5 95 Q47 125 47 163 L47 355 Q47 398 64.5 430.5 Q82 463 110 485 Q138 507 174 517.5 Q210 528 247 528 Q302 528 353 502.5 Q404 477 433 425 L368 386 L361 396 Q347 423 314.5 435.5 Q282 448 247 448 Q224 448 202.5 442.5 Q181 437 164.5 425.5 Q148 414 137.5 396.5 Q127 379 127 355 L127 161 Q127 138 137.5 121 Q148 104 164.5 92.5 Q181 81 202.5 75.5 Q224 70 247 70 Q286 70 321 90 Q356 110 368 152 L441 117 Z " />
<glyph glyph-name="cdotaccent" unicode="&#x10b;" horiz-adv-x="464" d="M189 643 Q189 667 205.5 683.5 Q222 700 246 700 Q270 700 286.5 683.5 Q303 667 303 643 Q303 619 286.5 602.5 Q270 586 246 586 Q222 586 205.5 602.5 Q189 619 189 643 Z M361 396 Q347 423 314.5 435.5 Q282 448 247 448 Q224 448 202.5 442.5 Q181 437 164.5 425.5 Q148 414 137.5 396.5 Q127 379 127 355 L127 161 Q127 138 137.5 121 Q148 104 164.5 92.5 Q181 81 202.5 75.5 Q224 70 247 70 Q286 70 321 90 Q356 110 368 152 L441 117 Q430 85 409.5 61 Q389 37 363 21 Q337 5 307 -2.5 Q277 -10 247 -10 Q210 -10 174 0.5 Q138 11 110 33 Q82 55 64.5 87 Q47 119 47 163 L47 355 Q47 398 64.5 430.5 Q82 463 110 485 Q138 507 174 517.5 Q210 528 247 528 Q302 528 353 502.5 Q404 477 433 425 L368 386 L361 396 Z " />
<glyph glyph-name="d" unicode="d" horiz-adv-x="511" d="M449 27 Q398 10 347 0 Q296 -10 246 -10 Q209 -9 173.5 1.5 Q138 12 110 33.5 Q82 55 65 87 Q48 119 48 162 L48 354 Q48 396 65 428.5 Q82 461 110.5 482.5 Q139 504 174.5 515.5 Q210 527 248 527 Q281 527 311 520 Q341 513 369 495 L369 700 L449 700 L449 27 Z M246 61 Q276 61 308 64 Q340 67 369 76 L369 427 Q340 442 308.5 449 Q277 456 248 456 Q225 456 204 449.5 Q183 443 166 430.5 Q149 418 139 398.5 Q129 379 129 354 L129 163 Q129 140 139 121.5 Q149 103 165.5 89.5 Q182 76 203 68.5 Q224 61 246 61 Z " />
<glyph glyph-name="eth" unicode="&#xf0;" horiz-adv-x="504" d="M331 692 Q378 674 410 636 Q442 598 442 537 L442 32 L380 13 Q346 4 310 -3 Q274 -10 240 -10 Q204 -10 169.5 1 Q135 12 107.5 33.5 Q80 55 63.5 87 Q47 119 47 161 L47 309 Q47 351 64 383 Q81 415 108.5 436.5 Q136 458 171.5 469 Q207 480 244 480 Q275 480 304.5 475 Q334 470 363 458 L363 537 Q363 566 346.5 586 Q330 606 307 617 L283 542 L224 561 L246 629 Q211 630 176.5 616 Q142 602 121 576 L65 627 Q105 672 160 691.5 Q215 711 270 706 L290 769 L349 749 L331 692 Z M363 378 Q303 401 242 401 Q220 401 199.5 395 Q179 389 162.5 378 Q146 367 136 349.5 Q126 332 126 309 L126 155 Q126 132 136 114.5 Q146 97 162 86 Q178 75 198.5 69.5 Q219 64 241 64 Q276 64 308 71.5 Q340 79 363 88 L363 378 Z " />
<glyph glyph-name="dcaron" unicode="&#x10f;" horiz-adv-x="521" d="M449 27 Q398 10 347 0 Q296 -10 246 -10 Q209 -9 173.5 1.5 Q138 12 110 33.5 Q82 55 65 87 Q48 119 48 162 L48 354 Q48 396 65 428.5 Q82 461 110.5 482.5 Q139 504 174.5 515.5 Q210 527 248 527 Q281 527 311 521.5 Q341 516 369 495 L369 700 L449 700 L449 27 Z M543 534 L485 534 L505 700 L580 700 L543 534 Z M246 64 Q276 64 308 67 Q340 70 369 79 L369 423 Q309 454 248 454 Q225 454 203.5 447 Q182 440 165.5 427 Q149 414 139 395.5 Q129 377 129 354 L129 163 Q129 140 139 121.5 Q149 103 165.5 90.5 Q182 78 203 71 Q224 64 246 64 Z " />
<glyph glyph-name="dcroat" unicode="&#x111;" horiz-adv-x="511" d="M449 587 L449 27 Q398 10 347 0 Q296 -10 246 -10 Q209 -9 173.5 1.5 Q138 12 110 33.5 Q82 55 65 87 Q48 119 48 162 L48 354 Q48 396 65 428.5 Q82 461 110.5 482.5 Q139 504 174.5 515.5 Q210 527 248 527 Q281 527 311 521.5 Q341 516 369 495 L369 587 L265 587 L265 637 L369 637 L369 700 L449 700 L449 637 L504 637 L504 587 L449 587 Z M369 423 Q309 454 248 454 Q225 454 203.5 447 Q182 440 165.5 427 Q149 414 139 395.5 Q129 377 129 354 L129 163 Q129 140 139 121.5 Q149 103 165.5 90.5 Q182 78 203 71 Q224 64 246 64 Q276 64 308 67 Q340 70 369 79 L369 423 Z " />
<glyph glyph-name="e" unicode="e" horiz-adv-x="488" d="M129 156 Q129 132 139 115 Q149 98 166 86.5 Q183 75 204.5 69.5 Q226 64 249 64 Q284 64 317.5 81 Q351 98 367 134 L437 104 Q423 75 402.5 54 Q382 33 357.5 18.5 Q333 4 305 -3 Q277 -10 249 -10 Q211 -10 175 0.5 Q139 11 111 32.5 Q83 54 65.5 86.5 Q48 119 48 162 L48 356 Q48 399 65.5 431.5 Q83 464 111 485.5 Q139 507 175 517.5 Q211 528 249 528 Q286 528 321.5 517.5 Q357 507 385 485.5 Q413 464 430 431.5 Q447 399 447 356 L447 219 L129 219 L129 156 Z M371 360 Q371 383 360 400.5 Q349 418 332 430 Q315 442 293 448.5 Q271 455 249 455 Q224 455 202 448.5 Q180 442 163.5 430 Q147 418 138 400 Q129 382 129 358 L129 286 L371 286 L371 360 Z " />
<glyph glyph-name="eacute" unicode="&#xe9;" horiz-adv-x="488" d="M380 709 L278 576 L190 576 L275 709 L380 709 Z M129 156 Q129 132 139 115 Q149 98 166 86.5 Q183 75 204.5 69.5 Q226 64 249 64 Q284 64 317.5 81 Q351 98 367 134 L437 104 Q423 75 402.5 54 Q382 33 357.5 18.5 Q333 4 305 -3 Q277 -10 249 -10 Q211 -10 175 0.5 Q139 11 111 32.5 Q83 54 65.5 86.5 Q48 119 48 162 L48 356 Q48 399 65.5 431.5 Q83 464 111 485.5 Q139 507 175 517.5 Q211 528 249 528 Q286 528 321.5 517.5 Q357 507 385 485.5 Q413 464 430 431.5 Q447 399 447 356 L447 219 L129 219 L129 156 Z M371 360 Q371 383 360 400.5 Q349 418 332 430 Q315 442 293 448.5 Q271 455 249 455 Q224 455 202 448.5 Q180 442 163.5 430 Q147 418 138 400 Q129 382 129 358 L129 286 L371 286 L371 360 Z " />
<glyph glyph-name="ecaron" unicode="&#x11b;" horiz-adv-x="488" d="M81 709 L180 709 L249 643 L314 709 L415 709 L287 576 L209 576 L81 709 Z M129 156 Q129 132 139 115 Q149 98 166 86.5 Q183 75 204.5 69.5 Q226 64 249 64 Q284 64 317.5 81 Q351 98 367 134 L437 104 Q423 75 402.5 54 Q382 33 357.5 18.5 Q333 4 305 -3 Q277 -10 249 -10 Q211 -10 175 0.5 Q139 11 111 32.5 Q83 54 65.5 86.5 Q48 119 48 162 L48 356 Q48 399 65.5 431.5 Q83 464 111 485.5 Q139 507 175 517.5 Q211 528 249 528 Q286 528 321.5 517.5 Q357 507 385 485.5 Q413 464 430 431.5 Q447 399 447 356 L447 219 L129 219 L129 156 Z M371 360 Q371 383 360 400.5 Q349 418 332 430 Q315 442 293 448.5 Q271 455 249 455 Q224 455 202 448.5 Q180 442 163.5 430 Q147 418 138 400 Q129 382 129 358 L129 286 L371 286 L371 360 Z " />
<glyph glyph-name="ecircumflex" unicode="&#xea;" horiz-adv-x="488" d="M403 576 L311 576 L247 649 L180 576 L85 576 L212 709 L286 709 L403 576 Z M129 156 Q129 132 139 115 Q149 98 166 86.5 Q183 75 204.5 69.5 Q226 64 249 64 Q284 64 317.5 81 Q351 98 367 134 L437 104 Q423 75 402.5 54 Q382 33 357.5 18.5 Q333 4 305 -3 Q277 -10 249 -10 Q211 -10 175 0.5 Q139 11 111 32.5 Q83 54 65.5 86.5 Q48 119 48 162 L48 356 Q48 399 65.5 431.5 Q83 464 111 485.5 Q139 507 175 517.5 Q211 528 249 528 Q286 528 321.5 517.5 Q357 507 385 485.5 Q413 464 430 431.5 Q447 399 447 356 L447 219 L129 219 L129 156 Z M371 360 Q371 383 360 400.5 Q349 418 332 430 Q315 442 293 448.5 Q271 455 249 455 Q224 455 202 448.5 Q180 442 163.5 430 Q147 418 138 400 Q129 382 129 358 L129 286 L371 286 L371 360 Z " />
<glyph glyph-name="edieresis" unicode="&#xeb;" horiz-adv-x="488" d="M107 642 Q107 665 122 680 Q137 695 159 695 Q181 695 196 680 Q211 665 211 642 Q211 620 196 605 Q181 590 159 590 Q137 590 122 605 Q107 620 107 642 Z M288 642 Q288 665 302.5 680 Q317 695 340 695 Q362 695 377 680 Q392 665 392 642 Q392 620 377 605 Q362 590 340 590 Q317 590 302.5 605 Q288 620 288 642 Z M129 156 Q129 132 139 115 Q149 98 166 86.5 Q183 75 204.5 69.5 Q226 64 249 64 Q284 64 317.5 81 Q351 98 367 134 L437 104 Q423 75 402.5 54 Q382 33 357.5 18.5 Q333 4 305 -3 Q277 -10 249 -10 Q211 -10 175 0.5 Q139 11 111 32.5 Q83 54 65.5 86.5 Q48 119 48 162 L48 356 Q48 399 65.5 431.5 Q83 464 111 485.5 Q139 507 175 517.5 Q211 528 249 528 Q286 528 321.5 517.5 Q357 507 385 485.5 Q413 464 430 431.5 Q447 399 447 356 L447 219 L129 219 L129 156 Z M371 360 Q371 383 360 400.5 Q349 418 332 430 Q315 442 293 448.5 Q271 455 249 455 Q224 455 202 448.5 Q180 442 163.5 430 Q147 418 138 400 Q129 382 129 358 L129 286 L371 286 L371 360 Z " />
<glyph glyph-name="edotaccent" unicode="&#x117;" horiz-adv-x="488" d="M191 643 Q191 667 207.5 683.5 Q224 700 248 700 Q272 700 288.5 683.5 Q305 667 305 643 Q305 619 288.5 602.5 Q272 586 248 586 Q224 586 207.5 602.5 Q191 619 191 643 Z M129 156 Q129 132 139 115 Q149 98 166 86.5 Q183 75 204.5 69.5 Q226 64 249 64 Q284 64 317.5 81 Q351 98 367 134 L437 104 Q423 75 402.5 54 Q382 33 357.5 18.5 Q333 4 305 -3 Q277 -10 249 -10 Q211 -10 175 0.5 Q139 11 111 32.5 Q83 54 65.5 86.5 Q48 119 48 162 L48 356 Q48 399 65.5 431.5 Q83 464 111 485.5 Q139 507 175 517.5 Q211 528 249 528 Q286 528 321.5 517.5 Q357 507 385 485.5 Q413 464 430 431.5 Q447 399 447 356 L447 219 L129 219 L129 156 Z M371 360 Q371 383 360 400.5 Q349 418 332 430 Q315 442 293 448.5 Q271 455 249 455 Q224 455 202 448.5 Q180 442 163.5 430 Q147 418 138 400 Q129 382 129 358 L129 286 L371 286 L371 360 Z " />
<glyph glyph-name="egrave" unicode="&#xe8;" horiz-adv-x="488" d="M222 711 L304 577 L222 577 L115 711 L222 711 Z M129 156 Q129 132 139 115 Q149 98 166 86.5 Q183 75 204.5 69.5 Q226 64 249 64 Q284 64 317.5 81 Q351 98 367 134 L437 104 Q423 75 402.5 54 Q382 33 357.5 18.5 Q333 4 305 -3 Q277 -10 249 -10 Q211 -10 175 0.5 Q139 11 111 32.5 Q83 54 65.5 86.5 Q48 119 48 162 L48 356 Q48 399 65.5 431.5 Q83 464 111 485.5 Q139 507 175 517.5 Q211 528 249 528 Q286 528 321.5 517.5 Q357 507 385 485.5 Q413 464 430 431.5 Q447 399 447 356 L447 219 L129 219 L129 156 Z M371 360 Q371 383 360 400.5 Q349 418 332 430 Q315 442 293 448.5 Q271 455 249 455 Q224 455 202 448.5 Q180 442 163.5 430 Q147 418 138 400 Q129 382 129 358 L129 286 L371 286 L371 360 Z " />
<glyph glyph-name="emacron" unicode="&#x113;" horiz-adv-x="488" d="M120 671 L377 671 L377 599 L120 599 L120 671 Z M129 156 Q129 132 139 115 Q149 98 166 86.5 Q183 75 204.5 69.5 Q226 64 249 64 Q284 64 317.5 81 Q351 98 367 134 L437 104 Q423 75 402.5 54 Q382 33 357.5 18.5 Q333 4 305 -3 Q277 -10 249 -10 Q211 -10 175 0.5 Q139 11 111 32.5 Q83 54 65.5 86.5 Q48 119 48 162 L48 356 Q48 399 65.5 431.5 Q83 464 111 485.5 Q139 507 175 517.5 Q211 528 249 528 Q286 528 321.5 517.5 Q357 507 385 485.5 Q413 464 430 431.5 Q447 399 447 356 L447 219 L129 219 L129 156 Z M371 360 Q371 383 360 400.5 Q349 418 332 430 Q315 442 293 448.5 Q271 455 249 455 Q224 455 202 448.5 Q180 442 163.5 430 Q147 418 138 400 Q129 382 129 358 L129 286 L371 286 L371 360 Z " />
<glyph glyph-name="eogonek" unicode="&#x119;" horiz-adv-x="487" d="M128 156 Q128 132 138 115 Q148 98 165 86.5 Q182 75 203.5 69.5 Q225 64 248 64 Q283 64 316.5 81 Q350 98 366 134 L438 104 Q418 63 385 37 Q352 7 333.5 -20 Q315 -47 307 -68.5 Q299 -90 298.5 -106 Q298 -122 301 -131 Q306 -147 316 -154 Q326 -161 338 -161.5 Q350 -162 362.5 -157.5 Q375 -153 385 -145 L408 -201 Q376 -223 344.5 -229 Q313 -235 287.5 -228 Q262 -221 245.5 -203 Q229 -185 226 -158 Q223 -123 235.5 -84 Q248 -45 284 -7 Q266 -10 248 -10 Q210 -10 174 0.5 Q138 11 110 32.5 Q82 54 64.5 86.5 Q47 119 47 162 L47 356 Q47 399 64.5 431.5 Q82 464 110 485.5 Q138 507 174 517.5 Q210 528 248 528 Q285 528 320.5 517.5 Q356 507 384 485.5 Q412 464 429 431.5 Q446 399 446 356 L446 219 L128 219 L128 156 Z M370 358 Q370 381 359 398 Q348 415 331 426 Q314 437 292 442.5 Q270 448 248 448 Q225 448 203.5 442.5 Q182 437 165 425.5 Q148 414 138 397 Q128 380 128 356 L128 286 L370 286 L370 358 Z " />
<glyph glyph-name="f" unicode="f" horiz-adv-x="268" d="M257 631 Q203 631 173.5 606 Q144 581 144 536 L144 502 L250 502 L250 430 L144 430 L144 0 L64 0 L64 536 Q64 579 79 611.5 Q94 644 120 665.5 Q146 687 181 698 Q216 709 257 709 L257 631 Z " />
<glyph glyph-name="g" unicode="g" horiz-adv-x="506" d="M115 -68 Q123 -79 137.5 -88 Q152 -97 169.5 -104 Q187 -111 205.5 -115 Q224 -119 241 -119 Q264 -119 286.5 -115 Q309 -111 326.5 -100.5 Q344 -90 354.5 -72 Q365 -54 365 -26 L365 17 Q336 2 306.5 -4 Q277 -10 247 -10 Q209 -10 173.5 1 Q138 12 110 33.5 Q82 55 65 87.5 Q48 120 48 162 L48 358 Q48 400 64.5 432 Q81 464 108.5 485.5 Q136 507 171 517.5 Q206 528 243 528 Q269 528 292.5 526 Q316 524 340 519.5 Q364 515 389 507 Q414 499 444 487 L444 -26 Q444 -70 427 -101.5 Q410 -133 382.5 -153 Q355 -173 320 -183 Q285 -193 248 -193 Q197 -193 149 -174 Q101 -155 66 -117 L115 -68 Z M365 434 Q334 446 306 450.5 Q278 455 243 455 Q221 455 200.5 448 Q180 441 163.5 428.5 Q147 416 137.5 397.5 Q128 379 128 356 L128 158 Q128 113 162.5 87 Q197 61 245 61 Q279 61 307 66.5 Q335 72 365 83 L365 434 Z " />
<glyph glyph-name="gbreve" unicode="&#x11f;" horiz-adv-x="506" d="M263 576 Q236 576 212.5 586.5 Q189 597 171.5 615 Q154 633 144 657.5 Q134 682 134 709 L207 709 Q207 684 223.5 666.5 Q240 649 263 649 Q286 649 303 666.5 Q320 684 320 709 L396 709 Q396 682 385.5 657.5 Q375 633 357 615 Q339 597 314.5 586.5 Q290 576 263 576 Z M115 -68 Q123 -79 137.5 -88 Q152 -97 169.5 -104 Q187 -111 205.5 -115 Q224 -119 241 -119 Q264 -119 286.5 -115 Q309 -111 326.5 -100.5 Q344 -90 354.5 -72 Q365 -54 365 -26 L365 17 Q336 2 306.5 -4 Q277 -10 247 -10 Q209 -10 173.5 1 Q138 12 110 33.5 Q82 55 65 87.5 Q48 120 48 162 L48 358 Q48 400 64.5 432 Q81 464 108.5 485.5 Q136 507 171 517.5 Q206 528 243 528 Q269 528 292.5 526 Q316 524 340 519.5 Q364 515 389 507 Q414 499 444 487 L444 -26 Q444 -70 427 -101.5 Q410 -133 382.5 -153 Q355 -173 320 -183 Q285 -193 248 -193 Q197 -193 149 -174 Q101 -155 66 -117 L115 -68 Z M365 434 Q334 446 306 450.5 Q278 455 243 455 Q221 455 200.5 448 Q180 441 163.5 428.5 Q147 416 137.5 397.5 Q128 379 128 356 L128 158 Q128 113 162.5 87 Q197 61 245 61 Q279 61 307 66.5 Q335 72 365 83 L365 434 Z " />
<glyph glyph-name="gcommaaccent" unicode="&#x123;" horiz-adv-x="506" d="M246 708 L328 708 L295 587 L201 587 L246 708 Z M115 -68 Q123 -79 137.5 -88 Q152 -97 169.5 -104 Q187 -111 205.5 -115 Q224 -119 241 -119 Q264 -119 286.5 -115 Q309 -111 326.5 -100.5 Q344 -90 354.5 -72 Q365 -54 365 -26 L365 17 Q336 2 306.5 -4 Q277 -10 247 -10 Q209 -10 173.5 1 Q138 12 110 33.5 Q82 55 65 87.5 Q48 120 48 162 L48 358 Q48 400 64.5 432 Q81 464 108.5 485.5 Q136 507 171 517.5 Q206 528 243 528 Q269 528 292.5 526 Q316 524 340 519.5 Q364 515 389 507 Q414 499 444 487 L444 -26 Q444 -70 427 -101.5 Q410 -133 382.5 -153 Q355 -173 320 -183 Q285 -193 248 -193 Q197 -193 149 -174 Q101 -155 66 -117 L115 -68 Z M365 434 Q334 446 306 450.5 Q278 455 243 455 Q221 455 200.5 448 Q180 441 163.5 428.5 Q147 416 137.5 397.5 Q128 379 128 356 L128 158 Q128 113 162.5 87 Q197 61 245 61 Q279 61 307 66.5 Q335 72 365 83 L365 434 Z " />
<glyph glyph-name="gdotaccent" unicode="&#x121;" horiz-adv-x="506" d="M205 643 Q205 667 221.5 683.5 Q238 700 262 700 Q286 700 302.5 683.5 Q319 667 319 643 Q319 619 302.5 602.5 Q286 586 262 586 Q238 586 221.5 602.5 Q205 619 205 643 Z M115 -68 Q123 -79 137.5 -88 Q152 -97 169.5 -104 Q187 -111 205.5 -115 Q224 -119 241 -119 Q264 -119 286.5 -115 Q309 -111 326.5 -100.5 Q344 -90 354.5 -72 Q365 -54 365 -26 L365 17 Q336 2 306.5 -4 Q277 -10 247 -10 Q209 -10 173.5 1 Q138 12 110 33.5 Q82 55 65 87.5 Q48 120 48 162 L48 358 Q48 400 64.5 432 Q81 464 108.5 485.5 Q136 507 171 517.5 Q206 528 243 528 Q269 528 292.5 526 Q316 524 340 519.5 Q364 515 389 507 Q414 499 444 487 L444 -26 Q444 -70 427 -101.5 Q410 -133 382.5 -153 Q355 -173 320 -183 Q285 -193 248 -193 Q197 -193 149 -174 Q101 -155 66 -117 L115 -68 Z M365 434 Q334 446 306 450.5 Q278 455 243 455 Q221 455 200.5 448 Q180 441 163.5 428.5 Q147 416 137.5 397.5 Q128 379 128 356 L128 158 Q128 113 162.5 87 Q197 61 245 61 Q279 61 307 66.5 Q335 72 365 83 L365 434 Z " />
<glyph glyph-name="h" unicode="h" horiz-adv-x="522" d="M144 498 Q176 514 208.5 521 Q241 528 271 528 Q308 529 343 519 Q378 509 404 488 Q430 467 446 434 Q462 401 462 356 L462 0 L383 0 L383 357 Q383 382 372.5 400 Q362 418 345.5 430 Q329 442 307.5 448 Q286 454 264 454 Q233 454 206 448.5 Q179 443 144 428 L144 0 L64 0 L64 698 L144 698 L144 498 Z " />
<glyph glyph-name="hbar" unicode="&#x127;" horiz-adv-x="522" d="M263 528 Q300 529 336 518 Q372 507 400 485 Q428 463 445 430.5 Q462 398 462 356 L462 0 L383 0 L383 357 Q383 380 372.5 397 Q362 414 345.5 425 Q329 436 307.5 442 Q286 448 264 448 Q233 448 203.5 443 Q174 438 144 426 L144 0 L64 0 L64 585 L9 585 L9 635 L64 635 L64 698 L144 698 L144 635 L251 635 L251 585 L144 585 L144 498 Q169 512 201 520 Q233 528 263 528 Z " />
<glyph glyph-name="i" unicode="i" horiz-adv-x="208" d="M46 662 Q46 686 62.5 702 Q79 718 102 718 Q126 718 142 702 Q158 686 158 662 Q158 639 142 622.5 Q126 606 102 606 Q79 606 62.5 622.5 Q46 639 46 662 Z M144 518 L144 0 L64 0 L64 518 L144 518 Z " />
<glyph glyph-name="dotlessi" unicode="&#x131;" horiz-adv-x="212" d="M148 0 L64 0 L64 518 L148 518 L148 0 Z " />
<glyph glyph-name="iacute" unicode="&#xed;" horiz-adv-x="212" d="M237 699 L135 566 L47 566 L132 699 L237 699 Z M148 0 L64 0 L64 518 L148 518 L148 0 Z " />
<glyph glyph-name="icircumflex" unicode="&#xee;" horiz-adv-x="212" d="M267 566 L172 566 L111 635 L47 566 L-51 566 L76 699 L150 699 L267 566 Z M148 0 L64 0 L64 518 L148 518 L148 0 Z " />
<glyph glyph-name="idieresis" unicode="&#xef;" horiz-adv-x="212" d="M-22 632 Q-22 655 -7 670 Q8 685 30 685 Q52 685 67 670 Q82 655 82 632 Q82 610 67 595 Q52 580 30 580 Q8 580 -7 595 Q-22 610 -22 632 Z M129 632 Q129 655 143.5 670 Q158 685 181 685 Q203 685 218 670 Q233 655 233 632 Q233 610 218 595 Q203 580 181 580 Q158 580 143.5 595 Q129 610 129 632 Z M148 0 L64 0 L64 518 L148 518 L148 0 Z " />
<glyph glyph-name="igrave" unicode="&#xec;" horiz-adv-x="212" d="M79 701 L161 567 L79 567 L-28 701 L79 701 Z M148 0 L64 0 L64 518 L148 518 L148 0 Z " />
<glyph glyph-name="ij" unicode="&#x133;" horiz-adv-x="416" d="M46 662 Q46 686 62.5 702 Q79 718 102 718 Q126 718 142 702 Q158 686 158 662 Q158 639 142 622.5 Q126 606 102 606 Q79 606 62.5 622.5 Q46 639 46 662 Z M144 518 L144 0 L64 0 L64 518 L144 518 Z M255 662 Q255 686 271.5 702 Q288 718 311 718 Q335 718 351 702 Q367 686 367 662 Q367 639 351 622.5 Q335 606 311 606 Q288 606 271.5 622.5 Q255 639 255 662 Z M176 -98 Q226 -98 249 -75 Q272 -52 272 -9 L272 518 L352 518 L352 -9 Q352 -89 306.5 -133.5 Q261 -178 176 -178 L176 -98 Z " />
<glyph glyph-name="imacron" unicode="&#x12b;" horiz-adv-x="212" d="M-4 657 L214 657 L214 585 L-4 585 L-4 657 Z M148 0 L64 0 L64 518 L148 518 L148 0 Z " />
<glyph glyph-name="iogonek" unicode="&#x12f;" horiz-adv-x="212" d="M105 594 Q79 594 61 612 Q43 630 43 656 Q43 682 61 700 Q79 718 105 718 Q131 718 149 700 Q167 682 167 656 Q167 630 149 612 Q131 594 105 594 Z M193 -211 Q161 -233 129.5 -239 Q98 -245 72.5 -238 Q47 -231 30.5 -213 Q14 -195 11 -168 Q7 -126 22 -87.5 Q37 -49 82 0 L64 0 L64 518 L148 518 L148 0 Q123 -26 109.5 -47.5 Q96 -69 90 -87 Q84 -105 83.5 -118.5 Q83 -132 86 -141 Q91 -157 101 -164 Q111 -171 123 -171.5 Q135 -172 147.5 -167.5 Q160 -163 170 -155 L193 -211 Z " />
<glyph glyph-name="j" unicode="j" horiz-adv-x="208" d="M47 662 Q47 686 63.5 702 Q80 718 103 718 Q127 718 143 702 Q159 686 159 662 Q159 639 143 622.5 Q127 606 103 606 Q80 606 63.5 622.5 Q47 639 47 662 Z M-32 -98 Q18 -98 41 -75 Q64 -52 64 -9 L64 518 L144 518 L144 -9 Q144 -89 98.5 -133.5 Q53 -178 -32 -178 L-32 -98 Z " />
<glyph glyph-name="k" unicode="k" horiz-adv-x="497" d="M384 518 L488 518 L254 282 L483 0 L382 0 L198 225 L144 171 L144 0 L64 0 L64 698 L144 698 L144 278 L384 518 Z " />
<glyph glyph-name="kcommaaccent" unicode="&#x137;" horiz-adv-x="497" d="M384 518 L488 518 L254 282 L483 0 L382 0 L198 225 L144 171 L144 0 L64 0 L64 698 L144 698 L144 278 L384 518 Z M235 -254 L161 -254 L211 -88 L298 -88 L235 -254 Z " />
<glyph glyph-name="l" unicode="l" horiz-adv-x="242" d="M236 -10 Q151 -10 105.5 34.5 Q60 79 60 159 L60 699 L140 699 L140 159 Q140 116 163 90.5 Q186 65 236 65 L236 -10 Z " />
<glyph glyph-name="lacute" unicode="&#x13a;" horiz-adv-x="243" d="M250 889 L148 756 L60 756 L145 889 L250 889 Z M236 -10 Q151 -10 105.5 34.5 Q60 79 60 159 L60 699 L140 699 L140 159 Q140 116 163 93 Q186 70 236 70 L236 -10 Z " />
<glyph glyph-name="lcaron" unicode="&#x13e;" horiz-adv-x="253" d="M236 -10 Q151 -10 105.5 34.5 Q60 79 60 159 L60 699 L140 699 L140 159 Q140 116 163 93 Q186 70 236 70 L236 -10 Z M251 527 L183 527 L233 693 L314 693 L251 527 Z " />
<glyph glyph-name="lcommaaccent" unicode="&#x13c;" horiz-adv-x="243" d="M236 -10 Q151 -10 105.5 34.5 Q60 79 60 159 L60 699 L140 699 L140 159 Q140 116 163 93 Q186 70 236 70 L236 -10 Z M141 -254 L67 -254 L117 -88 L204 -88 L141 -254 Z " />
<glyph glyph-name="ldot" unicode="&#x140;" horiz-adv-x="288" d="M236 -10 Q151 -10 105.5 34.5 Q60 79 60 159 L60 699 L140 699 L140 159 Q140 116 163 93 Q186 70 236 70 L236 -10 Z M188 367 Q188 392 204.5 409 Q221 426 247 426 Q272 426 288.5 409 Q305 392 305 367 Q305 342 288.5 325 Q272 308 247 308 Q221 308 204.5 325 Q188 342 188 367 Z " />
<glyph glyph-name="lslash" unicode="&#x142;" horiz-adv-x="267" d="M158 168 Q158 125 181.5 102 Q205 79 255 79 L255 -1 Q170 -1 124.5 43.5 Q79 88 79 168 L79 310 L28 288 L3 351 L79 383 L79 705 L158 705 L158 416 L230 447 L254 384 L158 343 L158 168 Z " />
<glyph glyph-name="m" unicode="m" horiz-adv-x="794" d="M62 481 Q98 501 144.5 514.5 Q191 528 238 528 Q281 528 322.5 514 Q364 500 394 469 Q423 499 463.5 513.5 Q504 528 540 528 Q582 528 617.5 517.5 Q653 507 679 486 Q705 465 719.5 432.5 Q734 400 734 355 L734 0 L654 0 L654 361 Q654 388 644.5 406.5 Q635 425 619 436 Q603 447 582 451 Q561 455 539 455 Q521 455 502.5 450 Q484 445 469 435.5 Q454 426 444 412 Q434 398 434 380 L434 0 L356 0 L356 374 Q356 395 346 410.5 Q336 426 319 435.5 Q302 445 280.5 450 Q259 455 235 455 Q208 455 183 448.5 Q158 442 142 431 L142 0 L62 0 L62 481 Z " />
<glyph glyph-name="n" unicode="n" horiz-adv-x="519" d="M62 485 Q112 502 163.5 515 Q215 528 264 528 Q301 527 336 516.5 Q371 506 398.5 485 Q426 464 442.5 432.5 Q459 401 459 358 L459 0 L380 0 L380 361 Q380 385 369.5 402.5 Q359 420 342.5 431.5 Q326 443 305.5 448.5 Q285 454 264 454 Q229 454 196.5 446.5 Q164 439 142 431 L142 0 L62 0 L62 485 Z " />
<glyph glyph-name="nacute" unicode="&#x144;" horiz-adv-x="519" d="M389 709 L287 576 L199 576 L284 709 L389 709 Z M62 485 Q112 502 163.5 515 Q215 528 264 528 Q301 527 336 516.5 Q371 506 398.5 485 Q426 464 442.5 432.5 Q459 401 459 358 L459 0 L380 0 L380 361 Q380 385 369.5 402.5 Q359 420 342.5 431.5 Q326 443 305.5 448.5 Q285 454 264 454 Q229 454 196.5 446.5 Q164 439 142 431 L142 0 L62 0 L62 485 Z " />
<glyph glyph-name="ncaron" unicode="&#x148;" horiz-adv-x="519" d="M90 709 L189 709 L258 643 L323 709 L424 709 L296 576 L218 576 L90 709 Z M62 485 Q112 502 163.5 515 Q215 528 264 528 Q301 527 336 516.5 Q371 506 398.5 485 Q426 464 442.5 432.5 Q459 401 459 358 L459 0 L380 0 L380 361 Q380 385 369.5 402.5 Q359 420 342.5 431.5 Q326 443 305.5 448.5 Q285 454 264 454 Q229 454 196.5 446.5 Q164 439 142 431 L142 0 L62 0 L62 485 Z " />
<glyph glyph-name="ncommaaccent" unicode="&#x146;" horiz-adv-x="519" d="M62 485 Q112 502 163.5 515 Q215 528 264 528 Q301 527 336 516.5 Q371 506 398.5 485 Q426 464 442.5 432.5 Q459 401 459 358 L459 0 L380 0 L380 361 Q380 385 369.5 402.5 Q359 420 342.5 431.5 Q326 443 305.5 448.5 Q285 454 264 454 Q229 454 196.5 446.5 Q164 439 142 431 L142 0 L62 0 L62 485 Z M254 -254 L180 -254 L230 -88 L317 -88 L254 -254 Z " />
<glyph glyph-name="eng" unicode="&#x14b;" horiz-adv-x="517" d="M262 528 Q299 527 334 516.5 Q369 506 396.5 485 Q424 464 440.5 432.5 Q457 401 457 358 L457 -9 Q457 -89 412 -133.5 Q367 -178 282 -178 L282 -98 Q332 -98 355 -75 Q378 -52 378 -9 L378 358 Q378 382 367.5 399.5 Q357 417 340.5 428.5 Q324 440 303.5 445.5 Q283 451 262 451 Q227 451 194.5 443.5 Q162 436 140 428 L140 0 L60 0 L60 485 Q110 502 161.5 515 Q213 528 262 528 Z " />
<glyph glyph-name="ntilde" unicode="&#xf1;" horiz-adv-x="519" d="M113 613 Q121 656 149.5 681.5 Q178 707 210 707 Q229 707 244.5 699.5 Q260 692 273 682.5 Q286 673 296 665.5 Q306 658 315 658 Q323 658 335 664.5 Q347 671 353 694 L412 673 Q399 622 374 602.5 Q349 583 321 583 Q304 583 290 591 Q276 599 263.5 608 Q251 617 238 625 Q225 633 210 633 Q199 633 187 621.5 Q175 610 170 592 L113 613 Z M62 485 Q112 502 163.5 515 Q215 528 264 528 Q301 527 336 516.5 Q371 506 398.5 485 Q426 464 442.5 432.5 Q459 401 459 358 L459 0 L380 0 L380 361 Q380 385 369.5 402.5 Q359 420 342.5 431.5 Q326 443 305.5 448.5 Q285 454 264 454 Q229 454 196.5 446.5 Q164 439 142 431 L142 0 L62 0 L62 485 Z " />
<glyph glyph-name="o" unicode="o" horiz-adv-x="495" d="M47 355 Q47 398 64.5 430.5 Q82 463 110 484.5 Q138 506 174 517 Q210 528 248 528 Q285 528 321 517 Q357 506 385 484.5 Q413 463 430 430.5 Q447 398 447 355 L447 163 Q447 119 430 87 Q413 55 385 33.5 Q357 12 321 1 Q285 -10 248 -10 Q210 -10 174 1 Q138 12 110 33.5 Q82 55 64.5 87 Q47 119 47 163 L47 355 Z M248 452 Q226 452 204.5 446.5 Q183 441 165.5 429 Q148 417 137.5 399 Q127 381 127 357 L127 162 Q127 138 137.5 120 Q148 102 165.5 90 Q183 78 204.5 72 Q226 66 248 66 Q269 66 290 72 Q311 78 328.5 90 Q346 102 356.5 120 Q367 138 367 162 L367 357 Q367 381 356.5 399 Q346 417 328.5 429 Q311 441 290 446.5 Q269 452 248 452 Z " />
<glyph glyph-name="oacute" unicode="&#xf3;" horiz-adv-x="495" d="M369 709 L267 576 L185 576 L270 709 L369 709 Z M47 355 Q47 398 64.5 430.5 Q82 463 110 484.5 Q138 506 174 517 Q210 528 248 528 Q285 528 321 517 Q357 506 385 484.5 Q413 463 430 430.5 Q447 398 447 355 L447 163 Q447 119 430 87 Q413 55 385 33.5 Q357 12 321 1 Q285 -10 248 -10 Q210 -10 174 1 Q138 12 110 33.5 Q82 55 64.5 87 Q47 119 47 163 L47 355 Z M248 452 Q226 452 204.5 446.5 Q183 441 165.5 429 Q148 417 137.5 399 Q127 381 127 357 L127 162 Q127 138 137.5 120 Q148 102 165.5 90 Q183 78 204.5 72 Q226 66 248 66 Q269 66 290 72 Q311 78 328.5 90 Q346 102 356.5 120 Q367 138 367 162 L367 357 Q367 381 356.5 399 Q346 417 328.5 429 Q311 441 290 446.5 Q269 452 248 452 Z " />
<glyph glyph-name="ocircumflex" unicode="&#xf4;" horiz-adv-x="495" d="M404 576 L309 576 L248 645 L184 576 L86 576 L213 709 L287 709 L404 576 Z M47 355 Q47 398 64.5 430.5 Q82 463 110 484.5 Q138 506 174 517 Q210 528 248 528 Q285 528 321 517 Q357 506 385 484.5 Q413 463 430 430.5 Q447 398 447 355 L447 163 Q447 119 430 87 Q413 55 385 33.5 Q357 12 321 1 Q285 -10 248 -10 Q210 -10 174 1 Q138 12 110 33.5 Q82 55 64.5 87 Q47 119 47 163 L47 355 Z M248 452 Q226 452 204.5 446.5 Q183 441 165.5 429 Q148 417 137.5 399 Q127 381 127 357 L127 162 Q127 138 137.5 120 Q148 102 165.5 90 Q183 78 204.5 72 Q226 66 248 66 Q269 66 290 72 Q311 78 328.5 90 Q346 102 356.5 120 Q367 138 367 162 L367 357 Q367 381 356.5 399 Q346 417 328.5 429 Q311 441 290 446.5 Q269 452 248 452 Z " />
<glyph glyph-name="odieresis" unicode="&#xf6;" horiz-adv-x="495" d="M106 642 Q106 665 121 680 Q136 695 158 695 Q180 695 195 680 Q210 665 210 642 Q210 620 195 605 Q180 590 158 590 Q136 590 121 605 Q106 620 106 642 Z M287 642 Q287 665 301.5 680 Q316 695 339 695 Q361 695 376 680 Q391 665 391 642 Q391 620 376 605 Q361 590 339 590 Q316 590 301.5 605 Q287 620 287 642 Z M47 355 Q47 398 64.5 430.5 Q82 463 110 484.5 Q138 506 174 517 Q210 528 248 528 Q285 528 321 517 Q357 506 385 484.5 Q413 463 430 430.5 Q447 398 447 355 L447 163 Q447 119 430 87 Q413 55 385 33.5 Q357 12 321 1 Q285 -10 248 -10 Q210 -10 174 1 Q138 12 110 33.5 Q82 55 64.5 87 Q47 119 47 163 L47 355 Z M248 452 Q226 452 204.5 446.5 Q183 441 165.5 429 Q148 417 137.5 399 Q127 381 127 357 L127 162 Q127 138 137.5 120 Q148 102 165.5 90 Q183 78 204.5 72 Q226 66 248 66 Q269 66 290 72 Q311 78 328.5 90 Q346 102 356.5 120 Q367 138 367 162 L367 357 Q367 381 356.5 399 Q346 417 328.5 429 Q311 441 290 446.5 Q269 452 248 452 Z " />
<glyph glyph-name="ograve" unicode="&#xf2;" horiz-adv-x="495" d="M231 711 L313 577 L236 577 L129 711 L231 711 Z M47 355 Q47 398 64.5 430.5 Q82 463 110 484.5 Q138 506 174 517 Q210 528 248 528 Q285 528 321 517 Q357 506 385 484.5 Q413 463 430 430.5 Q447 398 447 355 L447 163 Q447 119 430 87 Q413 55 385 33.5 Q357 12 321 1 Q285 -10 248 -10 Q210 -10 174 1 Q138 12 110 33.5 Q82 55 64.5 87 Q47 119 47 163 L47 355 Z M248 452 Q226 452 204.5 446.5 Q183 441 165.5 429 Q148 417 137.5 399 Q127 381 127 357 L127 162 Q127 138 137.5 120 Q148 102 165.5 90 Q183 78 204.5 72 Q226 66 248 66 Q269 66 290 72 Q311 78 328.5 90 Q346 102 356.5 120 Q367 138 367 162 L367 357 Q367 381 356.5 399 Q346 417 328.5 429 Q311 441 290 446.5 Q269 452 248 452 Z " />
<glyph glyph-name="ohungarumlaut" unicode="&#x151;" horiz-adv-x="495" d="M205 576 L130 576 L191 701 L289 701 L205 576 Z M355 576 L280 576 L347 701 L448 701 L355 576 Z M47 355 Q47 398 64.5 430.5 Q82 463 110 484.5 Q138 506 174 517 Q210 528 248 528 Q285 528 321 517 Q357 506 385 484.5 Q413 463 430 430.5 Q447 398 447 355 L447 163 Q447 119 430 87 Q413 55 385 33.5 Q357 12 321 1 Q285 -10 248 -10 Q210 -10 174 1 Q138 12 110 33.5 Q82 55 64.5 87 Q47 119 47 163 L47 355 Z M248 452 Q226 452 204.5 446.5 Q183 441 165.5 429 Q148 417 137.5 399 Q127 381 127 357 L127 162 Q127 138 137.5 120 Q148 102 165.5 90 Q183 78 204.5 72 Q226 66 248 66 Q269 66 290 72 Q311 78 328.5 90 Q346 102 356.5 120 Q367 138 367 162 L367 357 Q367 381 356.5 399 Q346 417 328.5 429 Q311 441 290 446.5 Q269 452 248 452 Z " />
<glyph glyph-name="omacron" unicode="&#x14d;" horiz-adv-x="495" d="M118 671 L370 671 L370 602 L118 602 L118 671 Z M47 355 Q47 398 64.5 430.5 Q82 463 110 484.5 Q138 506 174 517 Q210 528 248 528 Q285 528 321 517 Q357 506 385 484.5 Q413 463 430 430.5 Q447 398 447 355 L447 163 Q447 119 430 87 Q413 55 385 33.5 Q357 12 321 1 Q285 -10 248 -10 Q210 -10 174 1 Q138 12 110 33.5 Q82 55 64.5 87 Q47 119 47 163 L47 355 Z M248 452 Q226 452 204.5 446.5 Q183 441 165.5 429 Q148 417 137.5 399 Q127 381 127 357 L127 162 Q127 138 137.5 120 Q148 102 165.5 90 Q183 78 204.5 72 Q226 66 248 66 Q269 66 290 72 Q311 78 328.5 90 Q346 102 356.5 120 Q367 138 367 162 L367 357 Q367 381 356.5 399 Q346 417 328.5 429 Q311 441 290 446.5 Q269 452 248 452 Z " />
<glyph glyph-name="oslash" unicode="&#xf8;" horiz-adv-x="495" d="M374 492 Q406 470 426.5 436.5 Q447 403 447 355 L447 163 Q447 119 430 87 Q413 55 385 33.5 Q357 12 321 1 Q285 -10 248 -10 Q210 -10 174 1 L142 -76 L91 -54 L123 24 Q89 46 68 80.5 Q47 115 47 163 L47 355 Q47 398 64.5 430.5 Q82 463 110 484.5 Q138 506 174 517 Q210 528 248 528 Q286 528 322 516 L350 585 L404 565 L374 492 Z M127 164 Q127 144 134.5 128.5 Q142 113 154 102 L292 442 Q271 448 248 448 Q226 448 204.5 442.5 Q183 437 165.5 426 Q148 415 137.5 397 Q127 379 127 355 L127 164 Z M367 355 Q367 374 360.5 389 Q354 404 343 415 L204 76 Q225 70 248 70 Q269 70 290 75.5 Q311 81 328.5 92.5 Q346 104 356.5 122 Q367 140 367 164 L367 355 Z " />
<glyph glyph-name="otilde" unicode="&#xf5;" horiz-adv-x="495" d="M99 613 Q107 656 135.5 681.5 Q164 707 196 707 Q215 707 230.5 699.5 Q246 692 259 682.5 Q272 673 282 665.5 Q292 658 301 658 Q309 658 321 664.5 Q333 671 339 694 L398 673 Q385 622 360 602.5 Q335 583 307 583 Q290 583 276 591 Q262 599 249.5 608 Q237 617 224 625 Q211 633 196 633 Q185 633 173 621.5 Q161 610 156 592 L99 613 Z M47 355 Q47 398 64.5 430.5 Q82 463 110 484.5 Q138 506 174 517 Q210 528 248 528 Q285 528 321 517 Q357 506 385 484.5 Q413 463 430 430.5 Q447 398 447 355 L447 163 Q447 119 430 87 Q413 55 385 33.5 Q357 12 321 1 Q285 -10 248 -10 Q210 -10 174 1 Q138 12 110 33.5 Q82 55 64.5 87 Q47 119 47 163 L47 355 Z M248 452 Q226 452 204.5 446.5 Q183 441 165.5 429 Q148 417 137.5 399 Q127 381 127 357 L127 162 Q127 138 137.5 120 Q148 102 165.5 90 Q183 78 204.5 72 Q226 66 248 66 Q269 66 290 72 Q311 78 328.5 90 Q346 102 356.5 120 Q367 138 367 162 L367 357 Q367 381 356.5 399 Q346 417 328.5 429 Q311 441 290 446.5 Q269 452 248 452 Z " />
<glyph glyph-name="oe" unicode="&#x153;" horiz-adv-x="804" d="M48 355 Q48 398 65 430.5 Q82 463 110 484.5 Q138 506 173.5 516.5 Q209 527 246 527 Q270 527 293.5 522 Q317 517 338 506 Q359 495 376 478 Q393 461 404 438 Q416 463 434.5 480 Q453 497 474 507.5 Q495 518 518 523 Q541 528 564 528 Q601 528 636.5 517 Q672 506 700 484.5 Q728 463 745.5 431 Q763 399 763 356 L763 224 L444 224 L444 165 Q444 141 454.5 123.5 Q465 106 482.5 94.5 Q500 83 521.5 77.5 Q543 72 564 72 Q600 72 633 89.5 Q666 107 682 142 L754 107 Q727 49 674 21 Q621 -7 564 -8 Q518 -8 474 9 Q430 26 404 65 Q378 25 335 9.5 Q292 -6 246 -7 Q209 -7 173.5 4 Q138 15 110 36 Q82 57 65 89 Q48 121 48 165 L48 355 Z M683 357 Q683 380 672.5 397.5 Q662 415 645.5 426.5 Q629 438 607.5 443.5 Q586 449 564 449 Q542 449 520.5 443.5 Q499 438 482 426.5 Q465 415 454.5 397 Q444 379 444 355 L444 292 L683 292 L683 357 Z M246 447 Q225 447 203.5 441.5 Q182 436 165 425 Q148 414 137.5 396.5 Q127 379 127 355 L127 165 Q127 141 137.5 123.5 Q148 106 165 95 Q182 84 203.5 78.5 Q225 73 246 73 Q267 73 288.5 78.5 Q310 84 326.5 95.5 Q343 107 353.5 124 Q364 141 364 165 L364 356 Q364 380 353.5 397 Q343 414 326 425 Q309 436 288 441.5 Q267 447 246 447 Z " />
<glyph glyph-name="p" unicode="p" horiz-adv-x="512" d="M63 491 Q114 508 165 518 Q216 528 266 528 Q303 528 338.5 517 Q374 506 402 485 Q430 464 447 431.5 Q464 399 464 356 L464 164 Q464 122 447 89.5 Q430 57 401.5 35 Q373 13 337 2 Q301 -9 263 -9 Q231 -9 201.5 -2.5 Q172 4 143 19 L143 -181 L63 -181 L63 491 Z M143 90 Q172 79 202.5 73 Q233 67 264 67 Q286 67 307.5 73.5 Q329 80 346 92 Q363 104 373 122 Q383 140 383 163 L383 357 Q383 379 373 396.5 Q363 414 346.5 426 Q330 438 309 444.5 Q288 451 266 451 Q235 451 203.5 449 Q172 447 143 439 L143 90 Z " />
<glyph glyph-name="thorn" unicode="&#xfe;" horiz-adv-x="512" d="M144 515 Q173 521 204.5 524.5 Q236 528 267 528 Q304 528 339.5 517 Q375 506 402.5 485 Q430 464 447 431.5 Q464 399 464 356 L464 163 Q464 121 447 88.5 Q430 56 402 34 Q374 12 338 1 Q302 -10 264 -10 Q232 -9 202.5 -3.5 Q173 2 144 13 L144 -186 L64 -186 L64 697 L144 697 L144 515 Z M144 86 Q202 63 266 63 Q288 63 309.5 69 Q331 75 347.5 86.5 Q364 98 374 115.5 Q384 133 384 156 L384 364 Q384 387 374 404 Q364 421 348 432 Q332 443 310.5 448.5 Q289 454 267 454 Q236 454 204.5 452 Q173 450 144 442 L144 86 Z " />
<glyph glyph-name="q" unicode="q" horiz-adv-x="512" d="M369 18 Q343 2 306.5 -4 Q270 -10 239 -10 Q201 -10 166.5 1 Q132 12 105.5 34 Q79 56 63.5 88.5 Q48 121 48 163 L48 356 Q48 399 65 431.5 Q82 464 110 485 Q138 506 173.5 517 Q209 528 246 528 Q296 528 345 519.5 Q394 511 449 493 L449 -181 L369 -181 L369 18 Z M369 440 Q333 451 305 453.5 Q277 456 246 456 Q224 456 202.5 449.5 Q181 443 164.5 430.5 Q148 418 138.5 400 Q129 382 129 359 L129 156 Q129 133 139 115.5 Q149 98 166 86 Q183 74 204 67 Q225 60 248 60 Q279 60 309.5 66 Q340 72 369 83 L369 440 Z " />
<glyph glyph-name="r" unicode="r" horiz-adv-x="312" d="M299 449 Q288 451 278 451.5 Q268 452 257 452 Q233 452 212 446 Q191 440 175 427.5 Q159 415 149.5 397 Q140 379 140 355 L140 0 L60 0 L60 355 Q60 399 77.5 431.5 Q95 464 123 485 Q151 506 185.5 517 Q220 528 254 528 Q265 528 276.5 527 Q288 526 299 524 L299 449 Z " />
<glyph glyph-name="racute" unicode="&#x155;" horiz-adv-x="313" d="M312 709 L210 576 L122 576 L207 709 L312 709 Z M299 444 Q289 447 278.5 447.5 Q268 448 257 448 Q233 448 212 442 Q191 436 175 424 Q159 412 149.5 394.5 Q140 377 140 355 L140 0 L60 0 L60 355 Q60 399 77.5 431.5 Q95 464 123 485 Q151 506 185.5 517 Q220 528 254 528 Q265 528 276.5 527 Q288 526 299 524 L299 444 Z " />
<glyph glyph-name="rcaron" unicode="&#x159;" horiz-adv-x="312" d="M12 709 L111 709 L180 643 L245 709 L346 709 L218 576 L140 576 L12 709 Z M298 444 Q288 447 277.5 447.5 Q267 448 256 448 Q232 448 211 442 Q190 436 174 424 Q158 412 148.5 394.5 Q139 377 139 355 L139 0 L59 0 L59 355 Q59 399 76.5 431.5 Q94 464 122 485 Q150 506 184.5 517 Q219 528 253 528 Q264 528 275.5 527 Q287 526 298 524 L298 444 Z " />
<glyph glyph-name="rcommaaccent" unicode="&#x157;" horiz-adv-x="313" d="M299 444 Q289 447 278.5 447.5 Q268 448 257 448 Q233 448 212 442 Q191 436 175 424 Q159 412 149.5 394.5 Q140 377 140 355 L140 0 L60 0 L60 355 Q60 399 77.5 431.5 Q95 464 123 485 Q151 506 185.5 517 Q220 528 254 528 Q265 528 276.5 527 Q288 526 299 524 L299 444 Z M87 -251 L16 -251 L64 -91 L147 -91 L87 -251 Z " />
<glyph glyph-name="s" unicode="s" horiz-adv-x="443" d="M88 139 Q114 100 155 82 Q196 64 236 64 Q254 64 271 69.5 Q288 75 302 85.5 Q316 96 324 111 Q332 126 332 146 Q332 167 322.5 180.5 Q313 194 298 202.5 Q283 211 265 216 Q247 221 230 224 Q198 230 165.5 238.5 Q133 247 107 264 Q81 281 64.5 307.5 Q48 334 48 376 Q48 417 65.5 446 Q83 475 110 493 Q137 511 170.5 519.5 Q204 528 236 528 Q277 528 318.5 513 Q360 498 392 466 L343 409 Q319 434 291 444 Q263 454 236 454 Q219 454 200 450.5 Q181 447 164.5 438 Q148 429 137.5 414.5 Q127 400 127 378 Q127 355 139 341 Q151 327 168.5 319 Q186 311 206.5 306.5 Q227 302 244 299 Q274 293 304 283 Q334 273 357.5 255.5 Q381 238 396 211 Q411 184 411 145 Q411 106 396 77 Q381 48 356.5 28.5 Q332 9 300.5 -0.5 Q269 -10 236 -10 Q175 -10 120.5 14 Q66 38 28 98 L88 139 Z " />
<glyph glyph-name="sacute" unicode="&#x15b;" horiz-adv-x="443" d="M357 709 L255 576 L167 576 L252 709 L357 709 Z M88 139 Q114 100 155 82 Q196 64 236 64 Q254 64 271 69 Q288 74 302 84 Q316 94 324 109 Q332 124 332 144 Q332 165 322.5 178.5 Q313 192 298 201 Q283 210 265 215 Q247 220 229 223 L230 223 Q198 229 165.5 238 Q133 247 107 264.5 Q81 282 64.5 309 Q48 336 48 378 Q48 419 65.5 447.5 Q83 476 110 494 Q137 512 170.5 520 Q204 528 236 528 Q277 528 318.5 513 Q360 498 392 466 L340 405 Q292 454 236 454 Q219 454 200 450.5 Q181 447 164.5 438 Q148 429 137.5 414.5 Q127 400 127 378 Q127 358 139 344.5 Q151 331 169 322 Q187 313 207 308 Q227 303 244 300 Q274 294 304 283 Q334 272 357.5 253.5 Q381 235 396 207 Q411 179 411 140 Q411 101 396 73 Q381 45 356.5 26.5 Q332 8 300.5 -1 Q269 -10 236 -10 Q175 -10 120.5 14 Q66 38 28 98 L88 139 Z " />
<glyph glyph-name="scaron" unicode="&#x161;" horiz-adv-x="443" d="M58 709 L157 709 L226 643 L291 709 L392 709 L264 576 L186 576 L58 709 Z M88 139 Q114 100 155 82 Q196 64 236 64 Q254 64 271 69 Q288 74 302 84 Q316 94 324 109 Q332 124 332 144 Q332 165 322.5 178.5 Q313 192 298 201 Q283 210 265 215 Q247 220 229 223 L230 223 Q198 229 165.5 238 Q133 247 107 264.5 Q81 282 64.5 309 Q48 336 48 378 Q48 419 65.5 447.5 Q83 476 110 494 Q137 512 170.5 520 Q204 528 236 528 Q277 528 318.5 513 Q360 498 392 466 L340 405 Q292 454 236 454 Q219 454 200 450.5 Q181 447 164.5 438 Q148 429 137.5 414.5 Q127 400 127 378 Q127 358 139 344.5 Q151 331 169 322 Q187 313 207 308 Q227 303 244 300 Q274 294 304 283 Q334 272 357.5 253.5 Q381 235 396 207 Q411 179 411 140 Q411 101 396 73 Q381 45 356.5 26.5 Q332 8 300.5 -1 Q269 -10 236 -10 Q175 -10 120.5 14 Q66 38 28 98 L88 139 Z " />
<glyph glyph-name="scedilla" unicode="&#x15f;" horiz-adv-x="443" d="M411 140 Q411 105 399 79 Q387 53 366.5 35 Q346 17 319.5 6 Q293 -5 264 -8 L242 -64 Q288 -63 307.5 -86.5 Q327 -110 324 -143 Q320 -184 297 -206 Q274 -228 241.5 -234.5 Q209 -241 173.5 -234 Q138 -227 109 -211 L131 -157 Q152 -168 172 -173 Q192 -178 208.5 -176.5 Q225 -175 235.5 -167.5 Q246 -160 247 -146 Q249 -125 229 -116.5 Q209 -108 174 -118 L161 -106 L200 -8 Q149 -3 104.5 22 Q60 47 28 98 L88 139 Q114 100 155 82 Q196 64 236 64 Q254 64 271 69 Q288 74 302 84 Q316 94 324 109 Q332 124 332 144 Q332 165 322.5 178.5 Q313 192 298 201 Q283 210 265 215 Q247 220 229 223 L230 223 Q198 229 165.5 238 Q133 247 107 264.5 Q81 282 64.5 309 Q48 336 48 378 Q48 419 65.5 447.5 Q83 476 110 494 Q137 512 170.5 520 Q204 528 236 528 Q277 528 318.5 513 Q360 498 392 466 L340 405 Q292 454 236 454 Q219 454 200 450.5 Q181 447 164.5 438 Q148 429 137.5 414.5 Q127 400 127 378 Q127 358 139 344.5 Q151 331 169 322 Q187 313 207 308 Q227 303 244 300 Q274 294 304 283 Q334 272 357.5 253.5 Q381 235 396 207 Q411 179 411 140 Z " />
<glyph glyph-name="scommaaccent" unicode="&#x219;" horiz-adv-x="443" d="M88 139 Q114 100 155 82 Q196 64 236 64 Q254 64 271 69 Q288 74 302 84 Q316 94 324 109 Q332 124 332 144 Q332 165 322.5 178.5 Q313 192 298 201 Q283 210 265 215 Q247 220 229 223 L230 223 Q198 229 165.5 238 Q133 247 107 264.5 Q81 282 64.5 309 Q48 336 48 378 Q48 419 65.5 447.5 Q83 476 110 494 Q137 512 170.5 520 Q204 528 236 528 Q277 528 318.5 513 Q360 498 392 466 L340 405 Q292 454 236 454 Q219 454 200 450.5 Q181 447 164.5 438 Q148 429 137.5 414.5 Q127 400 127 378 Q127 358 139 344.5 Q151 331 169 322 Q187 313 207 308 Q227 303 244 300 Q274 294 304 283 Q334 272 357.5 253.5 Q381 235 396 207 Q411 179 411 140 Q411 101 396 73 Q381 45 356.5 26.5 Q332 8 300.5 -1 Q269 -10 236 -10 Q175 -10 120.5 14 Q66 38 28 98 L88 139 Z M229 -254 L155 -254 L205 -88 L292 -88 L229 -254 Z " />
<glyph glyph-name="germandbls" unicode="&#xdf;" horiz-adv-x="584" d="M290 74 Q324 73 355 82 Q386 91 410 108.5 Q434 126 448 152.5 Q462 179 462 213 Q462 248 450 272.5 Q438 297 417 313 Q396 329 368 336 Q340 343 307 343 L206 343 L206 423 L307 423 Q332 423 354.5 430.5 Q377 438 394.5 452 Q412 466 422 487.5 Q432 509 432 538 Q432 568 419.5 588.5 Q407 609 386.5 622 Q366 635 340.5 640.5 Q315 646 289 646 Q263 646 237 639.5 Q211 633 190.5 619 Q170 605 157.5 583.5 Q145 562 145 532 L145 -1 L64 -1 L64 532 Q64 579 83.5 615.5 Q103 652 134.5 676.5 Q166 701 206.5 713.5 Q247 726 289 726 Q331 726 371.5 714.5 Q412 703 444 679.5 Q476 656 495.5 620.5 Q515 585 515 538 Q515 494 500.5 455 Q486 416 451 389 Q503 364 524.5 318 Q546 272 546 213 Q545 158 523 116 Q501 74 466 46 Q431 18 385.5 3.5 Q340 -11 291 -10 Q262 -9 238.5 -3.5 Q215 2 186 16 L187 105 Q215 87 241 80.5 Q267 74 290 74 Z " />
<glyph glyph-name="t" unicode="t" horiz-adv-x="284" d="M272 -8 Q264 -9 256.5 -9.5 Q249 -10 241 -10 Q202 -10 168.5 1.5 Q135 13 111 35 Q87 57 73.5 88.5 Q60 120 60 160 L60 649 L139 649 L139 518 L245 518 L245 444 L139 444 L139 160 Q139 138 148 117.5 Q157 97 174.5 82.5 Q192 68 216.5 61.5 Q241 55 272 61 L272 -8 Z " />
<glyph glyph-name="tbar" unicode="&#x167;" horiz-adv-x="290" d="M145 160 Q145 138 154 117.5 Q163 97 180.5 82.5 Q198 68 222.5 61.5 Q247 55 278 61 L278 -8 Q270 -9 262.5 -9.5 Q255 -10 247 -10 Q208 -10 174.5 1.5 Q141 13 117 35 Q93 57 79.5 88.5 Q66 120 66 160 L66 262 L15 262 L15 328 L66 328 L66 649 L145 649 L145 518 L251 518 L251 438 L145 438 L145 328 L226 328 L226 262 L145 262 L145 160 Z " />
<glyph glyph-name="tcaron" unicode="&#x165;" horiz-adv-x="284" d="M272 -8 Q264 -9 256.5 -9.5 Q249 -10 241 -10 Q202 -10 168.5 1.5 Q135 13 111 35 Q87 57 73.5 88.5 Q60 120 60 160 L60 649 L139 649 L139 518 L245 518 L245 438 L139 438 L139 160 Q139 138 148 117.5 Q157 97 174.5 82.5 Q192 68 216.5 61.5 Q241 55 272 61 L272 -8 Z M270 577 L203 577 L232 708 L310 708 L270 577 Z " />
<glyph glyph-name="tcommaaccent" unicode="&#x163;" horiz-adv-x="284" d="M272 -8 Q264 -9 256.5 -9.5 Q249 -10 241 -10 Q202 -10 168.5 1.5 Q135 13 111 35 Q87 57 73.5 88.5 Q60 120 60 160 L60 649 L139 649 L139 518 L245 518 L245 438 L139 438 L139 160 Q139 138 148 117.5 Q157 97 174.5 82.5 Q192 68 216.5 61.5 Q241 55 272 61 L272 -8 Z M157 -254 L83 -254 L133 -88 L220 -88 L157 -254 Z " />
<glyph glyph-name="uni021B" unicode="&#x21b;" horiz-adv-x="284" d="M272 -8 Q264 -9 256.5 -9.5 Q249 -10 241 -10 Q202 -10 168.5 1.5 Q135 13 111 35 Q87 57 73.5 88.5 Q60 120 60 160 L60 649 L139 649 L139 518 L245 518 L245 438 L139 438 L139 160 Q139 138 148 117.5 Q157 97 174.5 82.5 Q192 68 216.5 61.5 Q241 55 272 61 L272 -8 Z M157 -254 L83 -254 L133 -88 L220 -88 L157 -254 Z " />
<glyph glyph-name="u" unicode="u" horiz-adv-x="520" d="M458 28 Q422 15 392 7.5 Q362 0 337 -4 Q312 -8 292 -9 Q272 -10 256 -10 Q219 -10 184 1 Q149 12 121.5 33.5 Q94 55 77 87 Q60 119 60 162 L60 518 L140 518 L140 161 Q140 138 150 120.5 Q160 103 176.5 91 Q193 79 213.5 72.5 Q234 66 256 66 Q291 66 321.5 70 Q352 74 378 83 L378 518 L458 518 L458 28 Z " />
<glyph glyph-name="uacute" unicode="&#xfa;" horiz-adv-x="520" d="M390 699 L288 566 L200 566 L285 699 L390 699 Z M458 28 Q422 15 392 7.5 Q362 0 337 -4 Q312 -8 292 -9 Q272 -10 256 -10 Q219 -10 184 1 Q149 12 121.5 33.5 Q94 55 77 87 Q60 119 60 162 L60 518 L140 518 L140 161 Q140 138 150 120.5 Q160 103 176.5 91 Q193 79 213.5 72.5 Q234 66 256 66 Q291 66 321.5 70 Q352 74 378 83 L378 518 L458 518 L458 28 Z " />
<glyph glyph-name="ucircumflex" unicode="&#xfb;" horiz-adv-x="520" d="M420 566 L325 566 L264 635 L200 566 L102 566 L229 699 L303 699 L420 566 Z M458 28 Q422 15 392 7.5 Q362 0 337 -4 Q312 -8 292 -9 Q272 -10 256 -10 Q219 -10 184 1 Q149 12 121.5 33.5 Q94 55 77 87 Q60 119 60 162 L60 518 L140 518 L140 161 Q140 138 150 120.5 Q160 103 176.5 91 Q193 79 213.5 72.5 Q234 66 256 66 Q291 66 321.5 70 Q352 74 378 83 L378 518 L458 518 L458 28 Z " />
<glyph glyph-name="udieresis" unicode="&#xfc;" horiz-adv-x="520" d="M117 632 Q117 655 132 670 Q147 685 169 685 Q191 685 206 670 Q221 655 221 632 Q221 610 206 595 Q191 580 169 580 Q147 580 132 595 Q117 610 117 632 Z M298 632 Q298 655 312.5 670 Q327 685 350 685 Q372 685 387 670 Q402 655 402 632 Q402 610 387 595 Q372 580 350 580 Q327 580 312.5 595 Q298 610 298 632 Z M458 28 Q422 15 392 7.5 Q362 0 337 -4 Q312 -8 292 -9 Q272 -10 256 -10 Q219 -10 184 1 Q149 12 121.5 33.5 Q94 55 77 87 Q60 119 60 162 L60 518 L140 518 L140 161 Q140 138 150 120.5 Q160 103 176.5 91 Q193 79 213.5 72.5 Q234 66 256 66 Q291 66 321.5 70 Q352 74 378 83 L378 518 L458 518 L458 28 Z " />
<glyph glyph-name="ugrave" unicode="&#xf9;" horiz-adv-x="520" d="M232 701 L314 567 L232 567 L125 701 L232 701 Z M458 28 Q422 15 392 7.5 Q362 0 337 -4 Q312 -8 292 -9 Q272 -10 256 -10 Q219 -10 184 1 Q149 12 121.5 33.5 Q94 55 77 87 Q60 119 60 162 L60 518 L140 518 L140 161 Q140 138 150 120.5 Q160 103 176.5 91 Q193 79 213.5 72.5 Q234 66 256 66 Q291 66 321.5 70 Q352 74 378 83 L378 518 L458 518 L458 28 Z " />
<glyph glyph-name="uhungarumlaut" unicode="&#x171;" horiz-adv-x="520" d="M219 579 L144 579 L207 707 L305 707 L219 579 Z M369 579 L294 579 L363 707 L464 707 L369 579 Z M458 28 Q422 15 392 7.5 Q362 0 337 -4 Q312 -8 292 -9 Q272 -10 256 -10 Q219 -10 184 1 Q149 12 121.5 33.5 Q94 55 77 87 Q60 119 60 162 L60 518 L140 518 L140 161 Q140 138 150 120.5 Q160 103 176.5 91 Q193 79 213.5 72.5 Q234 66 256 66 Q291 66 321.5 70 Q352 74 378 83 L378 518 L458 518 L458 28 Z " />
<glyph glyph-name="umacron" unicode="&#x16b;" horiz-adv-x="520" d="M130 661 L387 661 L387 589 L130 589 L130 661 Z M458 28 Q422 15 392 7.5 Q362 0 337 -4 Q312 -8 292 -9 Q272 -10 256 -10 Q219 -10 184 1 Q149 12 121.5 33.5 Q94 55 77 87 Q60 119 60 162 L60 518 L140 518 L140 161 Q140 138 150 120.5 Q160 103 176.5 91 Q193 79 213.5 72.5 Q234 66 256 66 Q291 66 321.5 70 Q352 74 378 83 L378 518 L458 518 L458 28 Z " />
<glyph glyph-name="uogonek" unicode="&#x173;" horiz-adv-x="521" d="M485 -211 Q453 -233 421 -239 Q389 -245 363.5 -238 Q338 -231 321.5 -213 Q305 -195 302 -168 Q299 -131 314.5 -89 Q330 -47 369 2 Q332 -6 305 -8 Q278 -10 256 -10 Q219 -10 184 1 Q149 12 121.5 33.5 Q94 55 77 87 Q60 119 60 162 L60 518 L140 518 L140 161 Q140 138 150 120.5 Q160 103 176.5 91 Q193 79 213.5 72.5 Q234 66 256 66 Q291 66 321.5 70 Q352 74 378 83 L378 518 L458 518 L458 28 Q431 -4 414 -31 Q397 -58 388 -79.5 Q379 -101 377 -116.5 Q375 -132 378 -141 Q383 -157 393 -164 Q403 -171 415 -171.5 Q427 -172 439.5 -167.5 Q452 -163 462 -155 L485 -211 Z " />
<glyph glyph-name="uring" unicode="&#x16f;" horiz-adv-x="519" d="M152 629 Q152 651 160.5 670.5 Q169 690 183.5 704.5 Q198 719 217.5 727.5 Q237 736 259 736 Q281 736 300 727 Q319 718 333 703 Q347 688 355 668.5 Q363 649 363 628 Q363 607 355 588 Q347 569 333 554.5 Q319 540 300 531 Q281 522 259 522 Q237 522 217.5 530.5 Q198 539 183.5 553.5 Q169 568 160.5 587.5 Q152 607 152 629 Z M304 629 Q304 649 291 663.5 Q278 678 258 678 Q238 678 225 663 Q212 648 212 628 Q212 608 225.5 594 Q239 580 258 580 Q278 580 291 594.5 Q304 609 304 629 Z M458 28 Q422 15 392 7.5 Q362 0 337 -4 Q312 -8 292 -9 Q272 -10 256 -10 Q219 -10 184 1 Q149 12 121.5 33.5 Q94 55 77 87 Q60 119 60 162 L60 518 L140 518 L140 161 Q140 138 150 120.5 Q160 103 176.5 91 Q193 79 213.5 72.5 Q234 66 256 66 Q291 66 321.5 70 Q352 74 378 83 L378 518 L458 518 L458 28 Z " />
<glyph glyph-name="v" unicode="v" horiz-adv-x="479" d="M284 217 L388 518 L470 518 L287 0 L192 0 L9 518 L92 518 L196 215 L240 72 L242 72 L284 217 Z " />
<glyph glyph-name="w" unicode="w" horiz-adv-x="713" d="M392 510 L498 79 L501 79 L536 228 L621 518 L699 518 L544 0 L448 0 L393 232 L357 405 L321 231 L265 0 L169 0 L13 518 L94 518 L179 228 L214 79 L217 79 L320 510 L392 510 Z " />
<glyph glyph-name="wacute" unicode="&#x1e83;" horiz-adv-x="713" d="M487 699 L385 566 L297 566 L382 699 L487 699 Z M392 510 L498 79 L501 79 L536 228 L621 518 L699 518 L544 0 L448 0 L393 232 L357 405 L321 231 L265 0 L169 0 L13 518 L94 518 L179 228 L214 79 L217 79 L320 510 L392 510 Z " />
<glyph glyph-name="wcircumflex" unicode="&#x175;" horiz-adv-x="713" d="M517 566 L422 566 L361 635 L297 566 L199 566 L326 699 L400 699 L517 566 Z M392 510 L498 79 L501 79 L536 228 L621 518 L699 518 L544 0 L448 0 L393 232 L357 405 L321 231 L265 0 L169 0 L13 518 L94 518 L179 228 L214 79 L217 79 L320 510 L392 510 Z " />
<glyph glyph-name="wdieresis" unicode="&#x1e85;" horiz-adv-x="713" d="M214 632 Q214 655 229 670 Q244 685 266 685 Q288 685 303 670 Q318 655 318 632 Q318 610 303 595 Q288 580 266 580 Q244 580 229 595 Q214 610 214 632 Z M395 632 Q395 655 409.5 670 Q424 685 447 685 Q469 685 484 670 Q499 655 499 632 Q499 610 484 595 Q469 580 447 580 Q424 580 409.5 595 Q395 610 395 632 Z M392 510 L498 79 L501 79 L536 228 L621 518 L699 518 L544 0 L448 0 L393 232 L357 405 L321 231 L265 0 L169 0 L13 518 L94 518 L179 228 L214 79 L217 79 L320 510 L392 510 Z " />
<glyph glyph-name="wgrave" unicode="&#x1e81;" horiz-adv-x="713" d="M329 701 L411 567 L329 567 L222 701 L329 701 Z M392 510 L498 79 L501 79 L536 228 L621 518 L699 518 L544 0 L448 0 L393 232 L357 405 L321 231 L265 0 L169 0 L13 518 L94 518 L179 228 L214 79 L217 79 L320 510 L392 510 Z " />
<glyph glyph-name="x" unicode="x" horiz-adv-x="483" d="M468 0 L370 0 L242 198 L113 0 L15 0 L194 259 L15 518 L113 518 L242 316 L370 518 L468 518 L290 259 L468 0 Z " />
<glyph glyph-name="y" unicode="y" horiz-adv-x="533" d="M134 -63 Q155 -89 190.5 -102 Q226 -115 261 -115 Q285 -115 308 -110 Q331 -105 349 -93.5 Q367 -82 378 -63.5 Q389 -45 389 -18 L389 22 Q363 4 330 -2.5 Q297 -9 265 -10 Q226 -10 189.5 1.5 Q153 13 124 35.5 Q95 58 77.5 91.5 Q60 125 60 168 L60 518 L142 518 L142 166 Q142 142 152.5 124 Q163 106 180 93.5 Q197 81 218.5 74 Q240 67 263 67 Q325 67 389 92 L389 518 L469 518 L469 -18 Q469 -63 452 -96 Q435 -129 406.5 -150.5 Q378 -172 342 -182.5 Q306 -193 267 -193 Q216 -193 165 -172.5 Q114 -152 79 -113 L134 -63 Z " />
<glyph glyph-name="yacute" unicode="&#xfd;" horiz-adv-x="533" d="M396 699 L294 566 L206 566 L291 699 L396 699 Z M134 -63 Q155 -89 190.5 -102 Q226 -115 261 -115 Q285 -115 308 -110 Q331 -105 349 -93.5 Q367 -82 378 -63.5 Q389 -45 389 -18 L389 22 Q363 4 330 -2.5 Q297 -9 265 -10 Q226 -10 189.5 1.5 Q153 13 124 35.5 Q95 58 77.5 91.5 Q60 125 60 168 L60 518 L142 518 L142 166 Q142 142 152.5 124 Q163 106 180 93.5 Q197 81 218.5 74 Q240 67 263 67 Q325 67 389 92 L389 518 L469 518 L469 -18 Q469 -63 452 -96 Q435 -129 406.5 -150.5 Q378 -172 342 -182.5 Q306 -193 267 -193 Q216 -193 165 -172.5 Q114 -152 79 -113 L134 -63 Z " />
<glyph glyph-name="ycircumflex" unicode="&#x177;" horiz-adv-x="533" d="M426 566 L331 566 L270 635 L206 566 L108 566 L235 699 L309 699 L426 566 Z M134 -63 Q155 -89 190.5 -102 Q226 -115 261 -115 Q285 -115 308 -110 Q331 -105 349 -93.5 Q367 -82 378 -63.5 Q389 -45 389 -18 L389 22 Q363 4 330 -2.5 Q297 -9 265 -10 Q226 -10 189.5 1.5 Q153 13 124 35.5 Q95 58 77.5 91.5 Q60 125 60 168 L60 518 L142 518 L142 166 Q142 142 152.5 124 Q163 106 180 93.5 Q197 81 218.5 74 Q240 67 263 67 Q325 67 389 92 L389 518 L469 518 L469 -18 Q469 -63 452 -96 Q435 -129 406.5 -150.5 Q378 -172 342 -182.5 Q306 -193 267 -193 Q216 -193 165 -172.5 Q114 -152 79 -113 L134 -63 Z " />
<glyph glyph-name="ydieresis" unicode="&#xff;" horiz-adv-x="533" d="M123 632 Q123 655 138 670 Q153 685 175 685 Q197 685 212 670 Q227 655 227 632 Q227 610 212 595 Q197 580 175 580 Q153 580 138 595 Q123 610 123 632 Z M304 632 Q304 655 318.5 670 Q333 685 356 685 Q378 685 393 670 Q408 655 408 632 Q408 610 393 595 Q378 580 356 580 Q333 580 318.5 595 Q304 610 304 632 Z M134 -63 Q155 -89 190.5 -102 Q226 -115 261 -115 Q285 -115 308 -110 Q331 -105 349 -93.5 Q367 -82 378 -63.5 Q389 -45 389 -18 L389 22 Q363 4 330 -2.5 Q297 -9 265 -10 Q226 -10 189.5 1.5 Q153 13 124 35.5 Q95 58 77.5 91.5 Q60 125 60 168 L60 518 L142 518 L142 166 Q142 142 152.5 124 Q163 106 180 93.5 Q197 81 218.5 74 Q240 67 263 67 Q325 67 389 92 L389 518 L469 518 L469 -18 Q469 -63 452 -96 Q435 -129 406.5 -150.5 Q378 -172 342 -182.5 Q306 -193 267 -193 Q216 -193 165 -172.5 Q114 -152 79 -113 L134 -63 Z " />
<glyph glyph-name="ygrave" unicode="&#x1ef3;" horiz-adv-x="533" d="M238 701 L320 567 L238 567 L131 701 L238 701 Z M134 -63 Q155 -89 190.5 -102 Q226 -115 261 -115 Q285 -115 308 -110 Q331 -105 349 -93.5 Q367 -82 378 -63.5 Q389 -45 389 -18 L389 22 Q363 4 330 -2.5 Q297 -9 265 -10 Q226 -10 189.5 1.5 Q153 13 124 35.5 Q95 58 77.5 91.5 Q60 125 60 168 L60 518 L142 518 L142 166 Q142 142 152.5 124 Q163 106 180 93.5 Q197 81 218.5 74 Q240 67 263 67 Q325 67 389 92 L389 518 L469 518 L469 -18 Q469 -63 452 -96 Q435 -129 406.5 -150.5 Q378 -172 342 -182.5 Q306 -193 267 -193 Q216 -193 165 -172.5 Q114 -152 79 -113 L134 -63 Z " />
<glyph glyph-name="z" unicode="z" horiz-adv-x="468" d="M406 518 L438 466 L130 73 L433 73 L433 0 L54 0 L22 51 L325 444 L44 444 L44 518 L406 518 Z " />
<glyph glyph-name="zacute" unicode="&#x17a;" horiz-adv-x="468" d="M370 699 L268 566 L180 566 L265 699 L370 699 Z M406 518 L438 466 L130 73 L433 73 L433 0 L54 0 L22 51 L325 444 L44 444 L44 518 L406 518 Z " />
<glyph glyph-name="zcaron" unicode="&#x17e;" horiz-adv-x="468" d="M71 699 L170 699 L239 633 L304 699 L405 699 L277 566 L199 566 L71 699 Z M406 518 L438 466 L130 73 L433 73 L433 0 L54 0 L22 51 L325 444 L44 444 L44 518 L406 518 Z " />
<glyph glyph-name="zdotaccent" unicode="&#x17c;" horiz-adv-x="468" d="M181 633 Q181 657 197.5 673.5 Q214 690 238 690 Q262 690 278.5 673.5 Q295 657 295 633 Q295 609 278.5 592.5 Q262 576 238 576 Q214 576 197.5 592.5 Q181 609 181 633 Z M406 518 L438 466 L130 73 L433 73 L433 0 L54 0 L22 51 L325 444 L44 444 L44 518 L406 518 Z " />
<glyph glyph-name="fi" unicode="&#xfb01;" horiz-adv-x="491" d="M257 635 Q203 635 173.5 610 Q144 585 144 540 L144 444 L250 444 L250 364 L144 364 L144 0 L64 0 L64 540 Q64 583 79 615.5 Q94 648 120 669.5 Q146 691 181 702 Q216 713 257 713 L257 635 Z M329 649 Q329 673 345.5 689 Q362 705 385 705 Q409 705 425 689 Q441 673 441 649 Q441 626 425 609.5 Q409 593 385 593 Q362 593 345.5 609.5 Q329 626 329 649 Z M347 0 L347 521 L427 521 L427 0 L347 0 Z " />
<glyph glyph-name="fl" unicode="&#xfb02;" horiz-adv-x="523" d="M256 635 Q202 635 172.5 610 Q143 585 143 540 L143 444 L249 444 L249 364 L143 364 L143 0 L63 0 L63 540 Q63 583 78 615.5 Q93 648 119 669.5 Q145 691 180 702 Q215 713 256 713 L256 635 Z M516 -10 Q431 -10 385.5 34.5 Q340 79 340 159 L340 699 L420 699 L420 159 Q420 116 443 93 Q466 70 516 70 L516 -10 Z " />
<glyph glyph-name="ordfeminine" unicode="&#xaa;" horiz-adv-x="384" d="M249 590 Q249 611 228.5 623.5 Q208 636 184 636 Q164 636 140.5 626.5 Q117 617 100 596 L51 642 Q82 676 118 692 Q154 708 188 708 Q214 708 239 700.5 Q264 693 283.5 678 Q303 663 315 640.5 Q327 618 327 588 L327 360 Q285 346 248 341 Q211 336 176 337 Q148 337 124 345 Q100 353 82 368.5 Q64 384 54 407 Q44 430 44 460 Q44 494 56.5 515.5 Q69 537 89.5 549 Q110 561 136 565.5 Q162 570 190 570 Q222 570 249 555 L249 590 Z M249 503 Q235 506 219.5 508.5 Q204 511 188 511 Q162 511 142.5 499.5 Q123 488 122 460 Q122 434 138 420 Q154 406 177 405 Q194 405 212 406.5 Q230 408 249 410 L249 503 Z " />
<glyph glyph-name="ordmasculine" unicode="&#xba;" horiz-adv-x="411" d="M205 334 Q176 334 148 342 Q120 350 97.5 366.5 Q75 383 61 408 Q47 433 47 466 L47 576 Q47 609 61 633.5 Q75 658 97.5 674.5 Q120 691 148 699.5 Q176 708 205 708 Q234 708 262.5 699.5 Q291 691 313.5 674.5 Q336 658 350 633.5 Q364 609 364 576 L364 466 Q364 433 350 408 Q336 383 313.5 366.5 Q291 350 262.5 342 Q234 334 205 334 Z M122 466 Q122 449 129.5 438 Q137 427 149 420.5 Q161 414 176 411 Q191 408 205 408 Q220 408 235 411 Q250 414 262 420.5 Q274 427 281.5 438 Q289 449 289 466 L289 576 Q289 592 281.5 603.5 Q274 615 262 621.5 Q250 628 235 631 Q220 634 205 634 Q191 634 176 631 Q161 628 149 621.5 Q137 615 129.5 603.5 Q122 592 122 576 L122 466 Z " />
<glyph glyph-name="uni0410" unicode="&#x410;" horiz-adv-x="619" d="M616 0 L528 0 L446 227 L173 227 Q153 171 132.5 113.5 Q112 56 93 0 L4 0 L258 708 L360 708 L616 0 Z M417 311 Q402 352 389 389 Q376 426 363.5 463 Q351 500 337.5 538 Q324 576 309 618 Q282 540 256 465.5 Q230 391 201 311 L417 311 Z " />
<glyph glyph-name="uni0411" unicode="&#x411;" horiz-adv-x="619" d="M532 708 L532 624 L158 624 L158 421 L340 421 Q398 421 444 410 Q490 399 522.5 373.5 Q555 348 572 307.5 Q589 267 589 208 Q589 151 570.5 111.5 Q552 72 519 47 Q486 22 441.5 11 Q397 0 345 0 L74 0 L74 708 L532 708 Z M158 343 L158 84 L349 84 Q383 84 411.5 89 Q440 94 461 108 Q482 122 493.5 146.5 Q505 171 505 210 Q505 276 468 309.5 Q431 343 342 343 L158 343 Z " />
<glyph glyph-name="uni0412" unicode="&#x412;" horiz-adv-x="626" d="M554 522 Q554 480 540.5 442.5 Q527 405 495 379 Q546 353 566.5 307.5 Q587 262 587 203 Q586 147 567 108 Q548 69 516 45 Q484 21 440 10.5 Q396 0 345 0 L74 0 L74 708 L346 708 Q389 708 426.5 696.5 Q464 685 492.5 662 Q521 639 537.5 604 Q554 569 554 522 Z M346 417 Q400 417 436 440.5 Q472 464 472 522 Q472 551 462 570.5 Q452 590 435 602 Q418 614 395 619 Q372 624 346 624 L158 624 L158 417 L346 417 Z M346 84 Q380 83 409 88.5 Q438 94 459 107.5 Q480 121 491.5 144.5 Q503 168 503 204 Q503 240 492 265 Q481 290 460.5 305 Q440 320 411 326.5 Q382 333 346 333 L158 333 L158 84 L346 84 Z " />
<glyph glyph-name="uni0413" unicode="&#x413;" horiz-adv-x="523" d="M158 0 L74 0 L74 708 L509 708 L509 625 L158 625 L158 0 Z " />
<glyph glyph-name="uni0414" unicode="&#x414;" horiz-adv-x="689" d="M12 83 L32 83 Q66 87 88.5 105 Q111 123 126 164 Q141 205 149.5 274 Q158 343 165 450 L181 708 L589 708 L589 83 L658 83 L658 -125 L574 -125 L574 0 L96 0 L96 -125 L12 -125 L12 83 Z M505 83 L505 625 L268 625 L253 400 Q246 294 230.5 214 Q215 134 183 83 L505 83 Z " />
<glyph glyph-name="uni0415" unicode="&#x415;" horiz-adv-x="571" d="M158 396 L499 396 L499 312 L158 312 L158 84 L528 84 L528 0 L74 0 L74 708 L528 708 L528 624 L158 624 L158 396 Z " />
<glyph glyph-name="uni0401" unicode="&#x401;" horiz-adv-x="571" d="M167 806 Q167 829 182 844 Q197 859 219 859 Q241 859 256 844 Q271 829 271 806 Q271 784 256 769 Q241 754 219 754 Q197 754 182 769 Q167 784 167 806 Z M348 806 Q348 829 362.5 844 Q377 859 400 859 Q422 859 437 844 Q452 829 452 806 Q452 784 437 769 Q422 754 400 754 Q377 754 362.5 769 Q348 784 348 806 Z M158 396 L499 396 L499 312 L158 312 L158 84 L528 84 L528 0 L74 0 L74 708 L528 708 L528 624 L158 624 L158 396 Z " />
<glyph glyph-name="uni0416" unicode="&#x416;" horiz-adv-x="938" d="M112 0 L3 0 L296 372 L3 708 L113 708 L427 350 L427 708 L511 708 L511 350 L825 708 L935 708 L642 372 L935 0 L826 0 L577 319 L511 248 L511 0 L427 0 L427 248 L361 319 L112 0 Z " />
<glyph glyph-name="uni0417" unicode="&#x417;" horiz-adv-x="552" d="M272 718 Q324 718 363 703 Q402 688 428 662 Q454 636 467 600 Q480 564 480 522 Q480 428 410 379 Q461 353 486.5 307.5 Q512 262 512 203 Q511 147 491.5 106.5 Q472 66 439.5 40 Q407 14 363 2 Q319 -10 268 -10 Q187 -10 122.5 20.5 Q58 51 18 122 L96 161 Q125 116 168.5 95 Q212 74 271 74 Q305 74 334 81 Q363 88 384 103 Q405 118 417 143 Q429 168 429 204 Q429 277 386 306.5 Q343 336 271 336 L174 336 L174 414 L271 414 Q325 414 361 438.5 Q397 463 397 521 Q397 578 361 606 Q325 634 266 634 Q212 634 177 618 Q142 602 112 567 L41 604 Q83 666 140 692 Q197 718 272 718 Z " />
<glyph glyph-name="uni0418" unicode="&#x418;" horiz-adv-x="690" d="M74 0 L74 708 L158 708 L158 122 L519 708 L616 708 L616 0 L532 0 L532 564 L178 0 L74 0 Z " />
<glyph glyph-name="uni0419" unicode="&#x419;" horiz-adv-x="690" d="M349 771 Q318 771 289.5 780.5 Q261 790 238.5 808.5 Q216 827 200.5 855 Q185 883 181 921 L264 921 Q272 886 291.5 867 Q311 848 349 848 Q387 848 406.5 867 Q426 886 434 921 L517 921 Q513 883 497.5 855 Q482 827 459.5 808.5 Q437 790 408.5 780.5 Q380 771 349 771 Z M178 0 L532 564 L532 0 L616 0 L616 708 L519 708 L158 122 L158 708 L74 708 L74 0 L178 0 Z " />
<glyph glyph-name="uni041A" unicode="&#x41a;" horiz-adv-x="630" d="M520 708 L631 708 L290 367 L627 0 L518 0 L230 307 L158 235 L158 0 L74 0 L74 708 L158 708 L158 352 L520 708 Z " />
<glyph glyph-name="uni041B" unicode="&#x41b;" horiz-adv-x="677" d="M257 400 Q251 305 239.5 230.5 Q228 156 202.5 105 Q177 54 131 27 Q85 0 10 0 L10 83 Q59 83 88 105 Q117 127 133 172 Q149 217 156 286 Q163 355 169 450 L185 708 L603 708 L603 0 L519 0 L519 625 L272 625 L257 400 Z " />
<glyph glyph-name="uni041C" unicode="&#x41c;" horiz-adv-x="796" d="M158 0 L74 0 L74 708 L179 708 L398 214 L617 708 L722 708 L722 0 L638 0 L638 551 L434 93 L363 93 L158 550 L158 0 Z " />
<glyph glyph-name="uni041D" unicode="&#x41d;" horiz-adv-x="686" d="M158 0 L74 0 L74 708 L158 708 L158 395 L528 395 L528 708 L612 708 L612 0 L528 0 L528 312 L158 312 L158 0 Z " />
<glyph glyph-name="uni041E" unicode="&#x41e;" horiz-adv-x="673" d="M53 496 Q53 551 77 593 Q101 635 141 662.5 Q181 690 232 704 Q283 718 336 718 Q389 718 440 704 Q491 690 530.5 662.5 Q570 635 594.5 593 Q619 551 619 496 L619 213 Q619 157 594.5 115.5 Q570 74 530.5 46 Q491 18 440 4 Q389 -10 336 -10 Q283 -10 232 4 Q181 18 141 46 Q101 74 77 115.5 Q53 157 53 213 L53 496 Z M136 214 Q136 179 153 153 Q170 127 198 109.5 Q226 92 262 83 Q298 74 336 74 Q373 74 409 83 Q445 92 473.5 109.5 Q502 127 519 153 Q536 179 536 214 L536 496 Q536 533 518.5 559.5 Q501 586 473 603 Q445 620 408.5 628 Q372 636 335 636 Q297 636 261.5 627.5 Q226 619 198 601.5 Q170 584 153 558 Q136 532 136 496 L136 214 Z " />
<glyph glyph-name="uni041F" unicode="&#x41f;" horiz-adv-x="678" d="M158 0 L74 0 L74 708 L604 708 L604 0 L520 0 L520 625 L158 625 L158 0 Z " />
<glyph glyph-name="uni0420" unicode="&#x420;" horiz-adv-x="611" d="M74 708 L344 708 Q404 708 448.5 688.5 Q493 669 523 637 Q553 605 568 564 Q583 523 583 481 Q583 438 568 397.5 Q553 357 523 325.5 Q493 294 448.5 274.5 Q404 255 345 255 L157 255 L157 0 L74 0 L74 708 Z M344 339 Q383 339 412.5 351 Q442 363 461.5 383 Q481 403 490.5 428.5 Q500 454 500 481 Q500 508 490 533.5 Q480 559 460.5 579.5 Q441 600 412 612 Q383 624 344 624 L157 624 L157 339 L344 339 Z " />
<glyph glyph-name="uni0421" unicode="&#x421;" horiz-adv-x="596" d="M53 494 Q53 549 76 590.5 Q99 632 137 660.5 Q175 689 223.5 703.5 Q272 718 323 718 Q361 718 398.5 709.5 Q436 701 469 683 Q502 665 529 638.5 Q556 612 573 576 L498 540 Q473 588 423.5 612 Q374 636 320 636 Q286 636 253 627 Q220 618 194.5 600.5 Q169 583 153 556.5 Q137 530 137 496 L137 211 Q137 176 153 150.5 Q169 125 194.5 108 Q220 91 253 82.5 Q286 74 320 74 Q375 74 424.5 98 Q474 122 498 169 L573 134 Q556 98 528.5 71 Q501 44 467.5 26 Q434 8 396 -1 Q358 -10 320 -10 Q270 -10 222 4 Q174 18 136.5 45.5 Q99 73 76 114.5 Q53 156 53 211 L53 494 Z " />
<glyph glyph-name="uni0422" unicode="&#x422;" horiz-adv-x="566" d="M325 624 L325 0 L241 0 L241 624 L14 624 L14 708 L552 708 L552 624 L325 624 Z " />
<glyph glyph-name="uni0423" unicode="&#x423;" horiz-adv-x="523" d="M221 225 L-14 708 L83 708 L263 319 L439 708 L527 708 L208 0 L119 0 L221 225 Z " />
<glyph glyph-name="uni0424" unicode="&#x424;" horiz-adv-x="732" d="M324 66 Q271 66 220 75.5 Q169 85 129.5 108 Q90 131 65.5 168 Q41 205 41 261 L41 448 Q41 503 65.5 540.5 Q90 578 129.5 601 Q169 624 220 633.5 Q271 643 324 643 L324 708 L408 708 L408 643 Q461 643 512 633.5 Q563 624 602.5 601 Q642 578 666.5 540.5 Q691 503 691 448 L691 261 Q691 205 666.5 168 Q642 131 602.5 108 Q563 85 512 75.5 Q461 66 408 66 L408 0 L324 0 L324 66 Z M325 567 Q287 567 251 562 Q215 557 187 543.5 Q159 530 141.5 507 Q124 484 124 447 L124 261 Q124 224 141 201 Q158 178 186.5 165 Q215 152 250.5 147 Q286 142 324 142 L325 567 Z M608 447 Q608 484 590.5 507 Q573 530 545 543.5 Q517 557 480.5 562 Q444 567 407 567 L408 142 Q445 142 481 147 Q517 152 545.5 165 Q574 178 591 201 Q608 224 608 261 L608 447 Z " />
<glyph glyph-name="uni0425" unicode="&#x425;" horiz-adv-x="595" d="M488 0 L297 284 L106 0 L4 0 L247 353 L6 708 L106 708 L297 428 L488 708 L589 708 L347 353 L590 0 L488 0 Z " />
<glyph glyph-name="uni0427" unicode="&#x427;" horiz-adv-x="610" d="M452 290 Q418 261 376.5 242 Q335 223 283 223 Q232 223 188.5 236.5 Q145 250 112.5 277.5 Q80 305 61.5 346.5 Q43 388 43 444 L43 708 L127 708 L127 444 Q127 372 170 339.5 Q213 307 283 307 Q316 307 342 312.5 Q368 318 388 326.5 Q408 335 424 346 Q440 357 452 369 L452 708 L536 708 L536 0 L452 0 L452 290 Z " />
<glyph glyph-name="uni0426" unicode="&#x426;" horiz-adv-x="690" d="M157 708 L157 83 L506 83 L506 708 L590 708 L590 83 L659 83 L659 -125 L575 -125 L575 0 L73 0 L73 708 L157 708 Z " />
<glyph glyph-name="uni0428" unicode="&#x428;" horiz-adv-x="886" d="M485 708 L485 83 L728 83 L728 708 L812 708 L812 0 L74 0 L74 708 L158 708 L158 83 L401 83 L401 708 L485 708 Z " />
<glyph glyph-name="uni0429" unicode="&#x429;" horiz-adv-x="911" d="M157 708 L157 83 L400 83 L400 708 L484 708 L484 83 L727 83 L727 708 L811 708 L811 83 L880 83 L880 -125 L796 -125 L796 0 L73 0 L73 708 L157 708 Z " />
<glyph glyph-name="uni042F" unicode="&#x42f;" horiz-adv-x="625" d="M256 290 Q211 292 171 305 Q131 318 102 342.5 Q73 367 56 405 Q39 443 39 496 Q39 553 57.5 593 Q76 633 109 658.5 Q142 684 186 696 Q230 708 281 708 L551 708 L551 0 L467 0 L467 289 L364 289 L121 0 L9 0 L256 290 Z M467 625 L280 625 Q245 626 216.5 619.5 Q188 613 167 598 Q146 583 134.5 558 Q123 533 123 496 Q123 425 165.5 396 Q208 367 280 367 L467 367 L467 625 Z " />
<glyph glyph-name="uni042C" unicode="&#x42c;" horiz-adv-x="615" d="M74 0 L74 708 L158 708 L158 440 L336 440 Q394 440 440 427.5 Q486 415 518.5 388 Q551 361 568 318 Q585 275 585 214 Q585 157 566.5 116.5 Q548 76 515 50 Q482 24 437.5 12 Q393 0 341 0 L74 0 Z M158 362 L158 84 L345 84 Q379 84 407.5 90 Q436 96 457 111 Q478 126 489.5 151.5 Q501 177 501 216 Q501 286 464 324 Q427 362 338 362 L158 362 Z " />
<glyph glyph-name="uni042A" unicode="&#x42a;" horiz-adv-x="718" d="M16 708 L261 708 L261 440 L439 440 Q497 440 543 427.5 Q589 415 621.5 388 Q654 361 671 318 Q688 275 688 214 Q688 157 669.5 116.5 Q651 76 618 50 Q585 24 540.5 12 Q496 0 444 0 L177 0 L177 629 L16 629 L16 708 Z M261 362 L261 84 L448 84 Q482 84 510.5 90 Q539 96 560 111 Q581 126 592.5 151.5 Q604 177 604 216 Q604 286 567 324 Q530 362 441 362 L261 362 Z " />
<glyph glyph-name="uni042B" unicode="&#x42b;" horiz-adv-x="837" d="M74 0 L74 708 L158 708 L158 440 L336 440 Q394 440 440 427.5 Q486 415 518.5 388 Q551 361 568 318 Q585 275 585 214 Q585 157 566.5 116.5 Q548 76 515 50 Q482 24 437.5 12 Q393 0 341 0 L74 0 Z M763 708 L680 708 L680 0 L763 0 L763 708 Z M158 362 L158 84 L345 84 Q379 84 407.5 90 Q436 96 457 111 Q478 126 489.5 151.5 Q501 177 501 216 Q501 286 464 324 Q427 362 338 362 L158 362 Z " />
<glyph glyph-name="uni042D" unicode="&#x42d;" horiz-adv-x="601" d="M278 718 Q329 718 377.5 703.5 Q426 689 464 660.5 Q502 632 525 590.5 Q548 549 548 494 L548 214 Q548 159 525 117.5 Q502 76 464.5 48.5 Q427 21 379 7 Q331 -7 281 -7 Q243 -7 205 2 Q167 11 133.5 29 Q100 47 72.5 74 Q45 101 28 137 L103 172 Q127 125 176.5 101 Q226 77 281 77 Q315 77 348 85.5 Q381 94 406.5 111 Q432 128 448 153.5 Q464 179 464 214 L464 312 L150 312 L150 394 L464 394 L464 494 Q464 528 448 554.5 Q432 581 406.5 598.5 Q381 616 348 625 Q315 634 281 634 Q227 634 177.5 610 Q128 586 103 538 L28 576 Q45 612 72 638.5 Q99 665 132 683 Q165 701 202.5 709.5 Q240 718 278 718 Z " />
<glyph glyph-name="uni042E" unicode="&#x42e;" horiz-adv-x="922" d="M156 0 L72 0 L72 708 L156 708 L156 399 L302 399 L302 496 Q302 551 326 593 Q350 635 390 662.5 Q430 690 481 704 Q532 718 585 718 Q638 718 689 704 Q740 690 779.5 662.5 Q819 635 843.5 593 Q868 551 868 496 L868 213 Q868 157 843.5 115.5 Q819 74 779.5 46 Q740 18 689 4 Q638 -10 585 -10 Q532 -10 481 4 Q430 18 390 46 Q350 74 326 115.5 Q302 157 302 213 L302 320 L156 320 L156 0 Z M385 213 Q385 178 402 152 Q419 126 447 108.5 Q475 91 511 82 Q547 73 585 73 Q622 73 658 82 Q694 91 722.5 108.5 Q751 126 768 152 Q785 178 785 213 L785 495 Q785 532 767.5 558.5 Q750 585 722 602 Q694 619 657.5 627 Q621 635 584 635 Q546 635 510.5 626.5 Q475 618 447 600.5 Q419 583 402 557 Q385 531 385 495 L385 213 Z " />
<glyph glyph-name="uni0430" unicode="&#x430;" horiz-adv-x="488" d="M352 361 Q352 383 341.5 400.5 Q331 418 314 430 Q297 442 275 448 Q253 454 230 454 Q195 454 160 440.5 Q125 427 102 398 L52 447 Q88 487 137.5 507.5 Q187 528 236 528 Q273 528 308.5 517.5 Q344 507 371.5 486.5 Q399 466 415.5 434.5 Q432 403 432 361 L432 25 Q378 6 324 -2.5 Q270 -11 218 -10 Q179 -10 145 0 Q111 10 86.5 30 Q62 50 47.5 80 Q33 110 33 152 Q33 195 49.5 226 Q66 257 93 277 Q120 297 155 307 Q190 317 228 317 Q293 317 352 292 L352 361 Z M352 234 Q328 242 298 248 Q268 254 236 254 Q212 254 189.5 248.5 Q167 243 150 231 Q133 219 122.5 199.5 Q112 180 112 152 Q112 102 143 80.5 Q174 59 220 58 Q253 57 286.5 59 Q320 61 352 68 L352 234 Z " />
<glyph glyph-name="uni0431" unicode="&#x431;" horiz-adv-x="508" d="M60 532 Q60 575 76.5 604.5 Q93 634 121 653 Q149 672 184 681.5 Q219 691 257 694 Q308 699 340.5 708.5 Q373 718 401 732 L428 667 Q396 644 353 633.5 Q310 623 262 618 Q238 615 216 611 Q194 607 177 598 Q160 589 150 573.5 Q140 558 140 531 L140 446 Q165 465 198.5 477.5 Q232 490 275 490 Q315 490 349 480 Q383 470 408 449 Q433 428 446.5 396 Q460 364 460 320 L460 163 Q460 119 443 87 Q426 55 398 33 Q370 11 334 0.5 Q298 -10 261 -10 Q223 -10 187 0.5 Q151 11 123 33 Q95 55 77.5 87 Q60 119 60 163 L60 532 Z M140 163 Q140 139 150.5 121 Q161 103 178.5 91.5 Q196 80 217.5 74.5 Q239 69 261 69 Q282 69 303 74.5 Q324 80 341.5 91.5 Q359 103 369.5 121 Q380 139 380 163 L380 320 Q380 347 371 365 Q362 383 346.5 394 Q331 405 310.5 409.5 Q290 414 267 414 Q198 414 140 375 L140 163 Z " />
<glyph glyph-name="uni0432" unicode="&#x432;" horiz-adv-x="502" d="M443 384 Q443 348 429 321.5 Q415 295 392 275 Q429 255 445.5 222.5 Q462 190 462 148 Q462 107 447.5 78.5 Q433 50 407.5 32.5 Q382 15 347.5 7.5 Q313 0 274 0 L64 0 L64 518 L275 518 Q306 518 336.5 509.5 Q367 501 390.5 484.5 Q414 468 428.5 443 Q443 418 443 384 Z M271 297 Q309 297 335.5 314 Q362 331 362 373 Q362 413 335 429 Q308 445 271 445 L144 445 L144 297 L271 297 Z M270 73 Q294 73 314.5 76 Q335 79 350 87.5 Q365 96 373.5 111.5 Q382 127 382 152 Q382 177 374 193.5 Q366 210 351 219.5 Q336 229 315 233 Q294 237 269 237 L144 237 L144 73 L270 73 Z " />
<glyph glyph-name="uni0433" unicode="&#x433;" horiz-adv-x="390" d="M64 518 L378 518 L378 441 L144 441 L144 0 L64 0 L64 518 Z " />
<glyph glyph-name="uni0434" unicode="&#x434;" horiz-adv-x="560" d="M474 518 L474 77 L529 77 L529 -107 L449 -107 L449 0 L95 0 L95 -107 L15 -107 L15 77 L26 77 Q59 80 77.5 97.5 Q96 115 106 148 Q116 181 119.5 229 Q123 277 128 340 L141 518 L474 518 Z M394 77 L394 441 L214 441 L205 310 Q203 280 199.5 246 Q196 212 190 180.5 Q184 149 175.5 121.5 Q167 94 154 77 L394 77 Z " />
<glyph glyph-name="uni0435" unicode="&#x435;" horiz-adv-x="488" d="M129 156 Q129 132 139 115 Q149 98 166 86.5 Q183 75 204.5 69.5 Q226 64 249 64 Q284 64 317.5 81 Q351 98 367 134 L437 104 Q423 75 402.5 54 Q382 33 357.5 18.5 Q333 4 305 -3 Q277 -10 249 -10 Q211 -10 175 0.5 Q139 11 111 32.5 Q83 54 65.5 86.5 Q48 119 48 162 L48 356 Q48 399 65.5 431.5 Q83 464 111 485.5 Q139 507 175 517.5 Q211 528 249 528 Q286 528 321.5 517.5 Q357 507 385 485.5 Q413 464 430 431.5 Q447 399 447 356 L447 219 L129 219 L129 156 Z M371 360 Q371 383 360 400.5 Q349 418 332 430 Q315 442 293 448.5 Q271 455 249 455 Q224 455 202 448.5 Q180 442 163.5 430 Q147 418 138 400 Q129 382 129 358 L129 286 L371 286 L371 360 Z " />
<glyph glyph-name="uni0451" unicode="&#x451;" horiz-adv-x="488" d="M107 642 Q107 665 122 680 Q137 695 159 695 Q181 695 196 680 Q211 665 211 642 Q211 620 196 605 Q181 590 159 590 Q137 590 122 605 Q107 620 107 642 Z M288 642 Q288 665 302.5 680 Q317 695 340 695 Q362 695 377 680 Q392 665 392 642 Q392 620 377 605 Q362 590 340 590 Q317 590 302.5 605 Q288 620 288 642 Z M129 156 Q129 132 139 115 Q149 98 166 86.5 Q183 75 204.5 69.5 Q226 64 249 64 Q284 64 317.5 81 Q351 98 367 134 L437 104 Q423 75 402.5 54 Q382 33 357.5 18.5 Q333 4 305 -3 Q277 -10 249 -10 Q211 -10 175 0.5 Q139 11 111 32.5 Q83 54 65.5 86.5 Q48 119 48 162 L48 356 Q48 399 65.5 431.5 Q83 464 111 485.5 Q139 507 175 517.5 Q211 528 249 528 Q286 528 321.5 517.5 Q357 507 385 485.5 Q413 464 430 431.5 Q447 399 447 356 L447 219 L129 219 L129 156 Z M371 360 Q371 383 360 400.5 Q349 418 332 430 Q315 442 293 448.5 Q271 455 249 455 Q224 455 202 448.5 Q180 442 163.5 430 Q147 418 138 400 Q129 382 129 358 L129 286 L371 286 L371 360 Z " />
<glyph glyph-name="uni0436" unicode="&#x436;" horiz-adv-x="753" d="M337 0 L337 203 L303 237 L117 0 L16 0 L243 286 L11 518 L115 518 L337 293 L337 518 L416 518 L416 293 L638 518 L742 518 L510 286 L737 0 L636 0 L450 237 L416 203 L416 0 L337 0 Z " />
<glyph glyph-name="uni0437" unicode="&#x437;" horiz-adv-x="446" d="M217 528 Q255 528 286.5 517 Q318 506 340 487 Q362 468 374 442 Q386 416 386 385 Q386 350 368 321.5 Q350 293 324 279 Q362 265 385 229.5 Q408 194 408 147 Q408 106 391 76 Q374 46 346.5 27 Q319 8 284.5 -1 Q250 -10 215 -10 Q155 -10 105 12.5 Q55 35 25 87 L87 124 Q126 65 212 65 Q235 65 256 69.5 Q277 74 292.5 84 Q308 94 317.5 110 Q327 126 327 148 Q327 199 296.5 219.5 Q266 240 212 240 L141 240 L141 305 L212 305 Q252 305 278.5 323.5 Q305 342 305 384 Q305 421 279 436.5 Q253 452 210 452 Q169 452 141 438 Q113 424 91 398 L38 438 Q69 485 115.5 506.5 Q162 528 217 528 Z " />
<glyph glyph-name="uni0438" unicode="&#x438;" horiz-adv-x="532" d="M178 176 L365 518 L468 518 L468 0 L388 0 L388 342 L390 410 L388 410 L353 340 L163 0 L64 0 L64 518 L144 518 L144 180 L142 106 L144 106 L178 176 Z " />
<glyph glyph-name="uni0439" unicode="&#x439;" horiz-adv-x="532" d="M272 569 Q249 569 227 577 Q205 585 187 600.5 Q169 616 156.5 639.5 Q144 663 141 694 L214 694 Q220 668 236.5 655.5 Q253 643 272 643 Q291 643 307.5 655.5 Q324 668 330 694 L403 694 Q400 663 387.5 639.5 Q375 616 357 600.5 Q339 585 316.5 577 Q294 569 272 569 Z M178 176 L365 518 L468 518 L468 0 L388 0 L388 342 L390 410 L388 410 L353 340 L163 0 L64 0 L64 518 L144 518 L144 180 L142 106 L144 106 L178 176 Z " />
<glyph glyph-name="uni043A" unicode="&#x43a;" horiz-adv-x="498" d="M144 278 Q204 338 264 398 Q324 458 384 518 L488 518 L254 282 L483 0 L382 0 L198 225 L144 171 L144 0 L64 0 L64 518 L144 518 L144 278 Z " />
<glyph glyph-name="uni043B" unicode="&#x43b;" horiz-adv-x="531" d="M216 441 L203 265 Q198 202 193.5 153 Q189 104 171.5 70 Q154 36 117.5 18 Q81 0 12 0 L12 78 Q53 78 74 86 Q95 94 105.5 118 Q116 142 119.5 186 Q123 230 128 303 L143 518 L467 518 L467 0 L387 0 L387 441 L216 441 Z " />
<glyph glyph-name="uni043C" unicode="&#x43c;" horiz-adv-x="640" d="M144 0 L64 0 L64 518 L163 518 L320 183 L477 518 L576 518 L576 0 L496 0 L496 383 L347 68 L293 68 L144 383 L144 0 Z " />
<glyph glyph-name="uni043D" unicode="&#x43d;" horiz-adv-x="527" d="M144 309 L383 309 L383 518 L463 518 L463 0 L383 0 L383 232 L144 232 L144 0 L64 0 L64 518 L144 518 L144 309 Z " />
<glyph glyph-name="uni043E" unicode="&#x43e;" horiz-adv-x="495" d="M47 355 Q47 398 64.5 430.5 Q82 463 110 484.5 Q138 506 174 517 Q210 528 248 528 Q285 528 321 517 Q357 506 385 484.5 Q413 463 430 430.5 Q447 398 447 355 L447 163 Q447 119 430 87 Q413 55 385 33.5 Q357 12 321 1 Q285 -10 248 -10 Q210 -10 174 1 Q138 12 110 33.5 Q82 55 64.5 87 Q47 119 47 163 L47 355 Z M248 452 Q226 452 204.5 446.5 Q183 441 165.5 429 Q148 417 137.5 399 Q127 381 127 357 L127 162 Q127 138 137.5 120 Q148 102 165.5 90 Q183 78 204.5 72 Q226 66 248 66 Q269 66 290 72 Q311 78 328.5 90 Q346 102 356.5 120 Q367 138 367 162 L367 357 Q367 381 356.5 399 Q346 417 328.5 429 Q311 441 290 446.5 Q269 452 248 452 Z " />
<glyph glyph-name="uni043F" unicode="&#x43f;" horiz-adv-x="523" d="M64 0 L64 518 L459 518 L459 0 L379 0 L379 441 L144 441 L144 0 L64 0 Z " />
<glyph glyph-name="uni0440" unicode="&#x440;" horiz-adv-x="524" d="M70 491 Q121 508 172 518 Q223 528 273 528 Q310 528 345.5 517 Q381 506 409 485 Q437 464 454 431.5 Q471 399 471 356 L471 164 Q471 122 454 89.5 Q437 57 408.5 35 Q380 13 344 2 Q308 -9 270 -9 Q238 -9 208.5 -2.5 Q179 4 150 19 L150 -181 L70 -181 L70 491 Z M150 90 Q179 79 209.5 73 Q240 67 271 67 Q293 67 314.5 73.5 Q336 80 353 92 Q370 104 380 122 Q390 140 390 163 L390 357 Q390 379 380 396.5 Q370 414 353.5 426 Q337 438 316 444.5 Q295 451 273 451 Q242 451 210.5 449 Q179 447 150 439 L150 90 Z " />
<glyph glyph-name="uni0441" unicode="&#x441;" horiz-adv-x="467" d="M370 388 Q345 428 313 438 Q281 448 247 448 Q224 448 202.5 442.5 Q181 437 164.5 425.5 Q148 414 137.5 396.5 Q127 379 127 355 L127 161 Q127 138 137 120 Q147 102 163.5 90 Q180 78 202 71.5 Q224 65 248 65 Q286 65 322.5 83 Q359 101 377 147 L441 117 Q430 85 409.5 61 Q389 37 363 21 Q337 5 307 -2.5 Q277 -10 247 -10 Q210 -10 174 0.5 Q138 11 110 33 Q82 55 64.5 87 Q47 119 47 163 L47 355 Q47 398 64.5 430.5 Q82 463 110 485 Q138 507 174 517.5 Q210 528 247 528 Q302 528 348.5 507 Q395 486 433 425 L370 388 Z " />
<glyph glyph-name="uni0442" unicode="&#x442;" horiz-adv-x="430" d="M15 441 L15 518 L415 518 L415 441 L255 441 L255 0 L175 0 L175 441 L15 441 Z " />
<glyph glyph-name="uni0443" unicode="&#x443;" horiz-adv-x="533" d="M134 -63 Q155 -89 190.5 -102 Q226 -115 261 -115 Q285 -115 308 -110 Q331 -105 349 -93.5 Q367 -82 378 -63.5 Q389 -45 389 -18 L389 22 Q363 4 330 -2.5 Q297 -9 265 -10 Q226 -10 189.5 1.5 Q153 13 124 35.5 Q95 58 77.5 91.5 Q60 125 60 168 L60 518 L142 518 L142 166 Q142 142 152.5 124 Q163 106 180 93.5 Q197 81 218.5 74 Q240 67 263 67 Q325 67 389 92 L389 518 L469 518 L469 -18 Q469 -63 452 -96 Q435 -129 406.5 -150.5 Q378 -172 342 -182.5 Q306 -193 267 -193 Q216 -193 165 -172.5 Q114 -152 79 -113 L134 -63 Z " />
<glyph glyph-name="uni0444" unicode="&#x444;" horiz-adv-x="698" d="M389 514 Q394 517 403.5 519.5 Q413 522 424.5 524 Q436 526 448 527 Q460 528 469 528 Q498 528 530 517.5 Q562 507 588.5 485 Q615 463 632.5 430.5 Q650 398 650 355 L650 163 Q650 119 632.5 87 Q615 55 588.5 33 Q562 11 530 0.5 Q498 -10 469 -10 Q460 -10 448 -9 Q436 -8 424.5 -6 Q413 -4 403.5 -1.5 Q394 1 389 4 L389 -181 L309 -181 L309 4 Q304 1 294.5 -1.5 Q285 -4 273.5 -6 Q262 -8 250 -9 Q238 -10 229 -10 Q200 -10 168 0.5 Q136 11 109.5 33 Q83 55 65.5 87 Q48 119 48 163 L48 355 Q48 398 65.5 430.5 Q83 463 109.5 485 Q136 507 168 517.5 Q200 528 229 528 Q238 528 250 527 Q262 526 273.5 524 Q285 522 294.5 519.5 Q304 517 309 514 L309 708 L389 708 L389 514 Z M309 441 Q298 446 280 448.5 Q262 451 249 451 Q229 451 207.5 445 Q186 439 168.5 427 Q151 415 139.5 397 Q128 379 128 355 L128 163 Q128 139 139.5 121 Q151 103 168.5 91 Q186 79 207.5 73 Q229 67 249 67 Q262 67 280 69.5 Q298 72 309 77 L309 441 Z M389 77 Q400 72 418 69.5 Q436 67 449 67 Q469 67 490.5 73 Q512 79 529.5 91 Q547 103 558.5 121 Q570 139 570 163 L570 355 Q570 379 558.5 397 Q547 415 529.5 427 Q512 439 490.5 445 Q469 451 449 451 Q436 451 418 448.5 Q400 446 389 441 L389 77 Z " />
<glyph glyph-name="uni0445" unicode="&#x445;" horiz-adv-x="483" d="M468 0 L370 0 L242 195 L113 0 L15 0 L194 259 L15 518 L113 518 L242 322 L370 518 L468 518 L290 259 L468 0 Z " />
<glyph glyph-name="uni0447" unicode="&#x447;" horiz-adv-x="489" d="M116 328 Q116 275 147.5 252.5 Q179 230 224 229 Q255 229 285.5 235 Q316 241 345 255 L345 518 L425 518 L425 0 L345 0 L345 185 Q317 167 287 158.5 Q257 150 225 150 Q187 150 153 161 Q119 172 93 194 Q67 216 51.5 248.5 Q36 281 36 323 L36 518 L116 518 L116 328 Z " />
<glyph glyph-name="uni0446" unicode="&#x446;" horiz-adv-x="540" d="M430 -107 L430 0 L63 0 L63 518 L143 518 L143 77 L373 77 L373 518 L453 518 L453 77 L510 77 L510 -107 L430 -107 Z " />
<glyph glyph-name="uni0448" unicode="&#x448;" horiz-adv-x="728" d="M144 518 L144 77 L324 77 L324 518 L404 518 L404 77 L584 77 L584 518 L664 518 L664 0 L64 0 L64 518 L144 518 Z " />
<glyph glyph-name="uni0449" unicode="&#x449;" horiz-adv-x="750" d="M143 518 L143 77 L323 77 L323 518 L403 518 L403 77 L583 77 L583 518 L663 518 L663 77 L720 77 L720 -107 L640 -107 L640 0 L63 0 L63 518 L143 518 Z " />
<glyph glyph-name="uni044F" unicode="&#x44f;" horiz-adv-x="502" d="M186 212 Q157 214 131 224.5 Q105 235 85.5 254 Q66 273 55 300.5 Q44 328 44 363 Q44 405 57.5 434 Q71 463 95 482 Q119 501 151.5 509.5 Q184 518 222 518 L438 518 L438 0 L358 0 L358 212 L281 212 L113 0 L15 0 L186 212 Z M358 445 L223 445 Q176 445 150.5 426 Q125 407 125 362 Q125 311 152.5 291.5 Q180 272 234 272 L358 272 L358 445 Z " />
<glyph glyph-name="uni044C" unicode="&#x44c;" horiz-adv-x="492" d="M305 337 Q386 337 426.5 291 Q467 245 467 165 Q467 122 452.5 91 Q438 60 412.5 39.5 Q387 19 352.5 9.5 Q318 0 279 0 L64 0 L64 518 L144 518 L144 337 L305 337 Z M275 74 Q323 74 355 94.5 Q387 115 387 166 Q387 195 379 213.5 Q371 232 356 243.5 Q341 255 320 259.5 Q299 264 274 264 L144 264 L144 74 L275 74 Z " />
<glyph glyph-name="uni044A" unicode="&#x44a;" horiz-adv-x="565" d="M14 445 L14 518 L216 518 L216 337 L377 337 Q458 337 498.5 291 Q539 245 539 165 Q539 122 524.5 91 Q510 60 484.5 39.5 Q459 19 424.5 9.5 Q390 0 351 0 L136 0 L136 445 L14 445 Z M347 74 Q395 74 427 94.5 Q459 115 459 166 Q459 195 451 213.5 Q443 232 428 243.5 Q413 255 392 259.5 Q371 264 346 264 L216 264 L216 74 L347 74 Z " />
<glyph glyph-name="uni044B" unicode="&#x44b;" horiz-adv-x="698" d="M305 337 Q386 337 426.5 291 Q467 245 467 165 Q467 122 452.5 91 Q438 60 412.5 39.5 Q387 19 352.5 9.5 Q318 0 279 0 L64 0 L64 518 L144 518 L144 337 L305 337 Z M554 518 L634 518 L634 0 L554 0 L554 518 Z M275 74 Q323 74 355 94.5 Q387 115 387 166 Q387 195 379 213.5 Q371 232 356 243.5 Q341 255 320 259.5 Q299 264 274 264 L144 264 L144 74 L275 74 Z " />
<glyph glyph-name="uni044D" unicode="&#x44d;" horiz-adv-x="469" d="M342 354 Q342 378 331.5 395.5 Q321 413 304.5 424.5 Q288 436 266 441.5 Q244 447 222 447 Q187 447 154.5 434.5 Q122 422 108 395 L101 385 L36 424 Q65 476 116 501.5 Q167 527 222 527 Q259 527 295 516.5 Q331 506 359 484 Q387 462 404.5 429.5 Q422 397 422 354 L422 165 Q422 121 404.5 89 Q387 57 359 35 Q331 13 295 2.5 Q259 -8 222 -8 Q192 -8 162 -0.5 Q132 7 106 23 Q80 39 59.5 63 Q39 87 28 119 L101 154 Q113 112 148 92 Q183 72 222 72 Q244 72 266 77.5 Q288 83 304.5 94.5 Q321 106 331.5 123 Q342 140 342 163 L342 227 L144 227 L144 297 L342 297 L342 354 Z " />
<glyph glyph-name="uni044E" unicode="&#x44e;" horiz-adv-x="721" d="M141 0 L61 0 L61 518 L141 518 L141 309 L273 309 L273 355 Q273 398 290.5 430.5 Q308 463 336 484.5 Q364 506 400 517 Q436 528 474 528 Q511 528 547 517 Q583 506 611 484.5 Q639 463 656 430.5 Q673 398 673 355 L673 163 Q673 119 656 87 Q639 55 611 33.5 Q583 12 547 1 Q511 -10 474 -10 Q436 -10 400 1 Q364 12 336 33.5 Q308 55 290.5 87 Q273 119 273 163 L273 235 L141 235 L141 0 Z M474 448 Q452 448 430.5 442.5 Q409 437 391.5 426 Q374 415 363.5 397 Q353 379 353 355 L353 163 Q353 139 363.5 121 Q374 103 391.5 91.5 Q409 80 430.5 74.5 Q452 69 474 69 Q495 69 516 74.5 Q537 80 554.5 91.5 Q572 103 582.5 121 Q593 139 593 163 L593 355 Q593 379 582.5 397 Q572 415 554.5 426 Q537 437 516 442.5 Q495 448 474 448 Z " />
<glyph glyph-name="Delta" unicode="&#x2206;" horiz-adv-x="593" d="M338 714 L568 57 L568 0 L25 0 L25 56 L256 714 L338 714 Z M466 80 Q422 208 380 330 Q338 452 295 579 L122 80 L466 80 Z " />
<glyph glyph-name="uni03A9" unicode="&#x3a9;" horiz-adv-x="772" d="M180 79 Q153 104 130 135.5 Q107 167 89.5 204.5 Q72 242 62 285 Q52 328 52 377 Q52 455 78.5 518 Q105 581 151 625.5 Q197 670 258.5 694 Q320 718 391 718 Q464 718 524.5 691.5 Q585 665 628 619 Q671 573 695 511.5 Q719 450 719 381 Q719 331 709 287 Q699 243 682 205 Q665 167 642 135 Q619 103 594 79 L731 79 L731 0 L446 0 L446 57 Q486 79 520.5 112 Q555 145 580.5 186.5 Q606 228 620.5 277 Q635 326 635 381 Q635 427 618.5 472.5 Q602 518 570.5 554.5 Q539 591 493 613.5 Q447 636 389 636 Q334 636 287.5 616.5 Q241 597 207.5 562 Q174 527 155.5 479.5 Q137 432 137 375 Q137 324 152 278 Q167 232 192.5 191.5 Q218 151 253 117 Q288 83 329 57 L329 0 L40 0 L40 79 L180 79 Z " />
<glyph glyph-name="Omega" unicode="&#x2126;" horiz-adv-x="781" d="M185 79 Q158 104 135 135.5 Q112 167 94.5 204.5 Q77 242 67 285 Q57 328 57 377 Q57 455 83.5 517.5 Q110 580 156 624 Q202 668 263.5 692 Q325 716 396 716 Q469 716 529.5 689.5 Q590 663 633 617.5 Q676 572 700 511 Q724 450 724 381 Q724 331 714 287 Q704 243 687 205 Q670 167 647 135 Q624 103 599 79 L736 79 L736 0 L451 0 L451 57 Q491 79 525.5 112 Q560 145 585.5 186.5 Q611 228 625.5 277 Q640 326 640 381 Q640 427 623.5 472.5 Q607 518 575.5 555 Q544 592 498 615 Q452 638 394 638 Q339 638 292.5 618 Q246 598 212.5 563 Q179 528 160.5 480 Q142 432 142 375 Q142 324 157 278 Q172 232 197.5 191.5 Q223 151 258 117 Q293 83 334 57 L334 0 L45 0 L45 79 L185 79 Z " />
<glyph glyph-name="mu" unicode="&#xb5;" horiz-adv-x="524" d="M383 46 Q360 19 323 4 Q286 -11 241 -11 Q211 -11 186.5 -2 Q162 7 143 22 L143 -216 L60 -216 L60 512 L144 512 L144 194 Q144 170 148 147 Q152 124 162.5 106 Q173 88 192 77 Q211 66 241 66 Q269 66 294.5 76 Q320 86 338.5 107 Q357 128 368 159 Q379 190 379 232 L379 512 L463 512 L465 -2 L384 -2 L383 46 Z " />
<glyph glyph-name="uni03BC" unicode="&#x3bc;" horiz-adv-x="532" d="M388 0 Q387 24 389 31.5 Q391 39 387 46 Q364 19 327 4 Q290 -11 245 -11 Q215 -11 190.5 -2 Q166 7 147 22 L147 -216 L64 -216 L64 512 L148 512 L148 194 Q148 170 152 147 Q156 124 166.5 106 Q177 88 196 77 Q215 66 245 66 Q273 66 298.5 76 Q324 86 342.5 107 Q361 128 372 159 Q383 190 383 232 L383 512 L467 512 L469 0 L388 0 Z " />
<glyph glyph-name="pi" unicode="&#x3c0;" horiz-adv-x="558" d="M506 0 Q467 2 441 13 Q415 24 399.5 43 Q384 62 378 88.5 Q372 115 372 147 L372 442 L201 442 L201 0 L122 0 L122 442 Q87 441 65 436 Q43 431 26 425 L9 486 Q31 500 64 509 Q97 518 148 518 L534 518 L526 442 L453 442 L453 153 Q453 113 463.5 95 Q474 77 505 79 L506 0 Z " />
<glyph glyph-name="zero" unicode="0" horiz-adv-x="621" d="M311 -10 Q266 -10 220 2.5 Q174 15 137.5 40.5 Q101 66 78 105 Q55 144 55 198 L55 510 Q55 564 78 603 Q101 642 137.5 667.5 Q174 693 220 705.5 Q266 718 311 718 Q356 718 401.5 705.5 Q447 693 483.5 667.5 Q520 642 543 603 Q566 564 566 510 L566 198 Q566 144 543 105 Q520 66 483.5 40.5 Q447 15 401.5 2.5 Q356 -10 311 -10 Z M138 196 Q138 161 154 137 Q170 113 195 98 Q220 83 250.5 76.5 Q281 70 311 70 Q341 70 371.5 76.5 Q402 83 427 98 Q452 113 468 137 Q484 161 484 196 L484 510 Q484 546 468 570 Q452 594 427 608.5 Q402 623 371.5 629.5 Q341 636 311 636 Q281 636 250.5 629.5 Q220 623 195 608.5 Q170 594 154 570 Q138 546 138 510 L138 196 Z " />
<glyph glyph-name="one" unicode="1" horiz-adv-x="319" d="M170 0 L170 589 L70 482 L8 532 L175 708 L251 708 L251 0 L170 0 Z " />
<glyph glyph-name="two" unicode="2" horiz-adv-x="570" d="M288 636 Q228 636 181.5 609.5 Q135 583 113 535 L39 566 Q71 641 139 679.5 Q207 718 290 718 Q343 718 386 701.5 Q429 685 460 657.5 Q491 630 507.5 593.5 Q524 557 524 517 Q524 475 501 427 Q478 379 437 337 L180 83 L524 83 L524 1 L62 1 L36 61 L377 394 Q410 426 425.5 457.5 Q441 489 441 518 Q441 542 430 563.5 Q419 585 399 601 Q379 617 351 626.5 Q323 636 288 636 Z " />
<glyph glyph-name="three" unicode="3" horiz-adv-x="581" d="M104 170 Q116 146 135 127.5 Q154 109 178 96.5 Q202 84 229 77 Q256 70 284 70 Q317 70 348 78.5 Q379 87 403 104 Q427 121 442 145.5 Q457 170 457 203 Q457 275 416 309 Q375 343 303 342 L234 342 L234 414 L303 414 Q357 414 391.5 442 Q426 470 426 526 Q426 555 414 576 Q402 597 382 611 Q362 625 336.5 631.5 Q311 638 284 638 Q236 638 193.5 617 Q151 596 128 554 L57 591 Q72 622 97 646 Q122 670 152 686 Q182 702 216 710 Q250 718 284 718 Q327 718 367 706 Q407 694 438 670 Q469 646 488 610 Q507 574 507 526 Q507 505 502.5 483.5 Q498 462 488.5 443 Q479 424 463.5 408 Q448 392 426 382 Q485 362 512 311.5 Q539 261 539 202 Q538 149 516 109 Q494 69 458.5 42.5 Q423 16 377.5 3 Q332 -10 284 -10 Q246 -10 208 -1 Q170 8 136 26 Q102 44 74 71 Q46 98 29 134 L104 170 Z " />
<glyph glyph-name="four" unicode="4" horiz-adv-x="565" d="M526 177 L470 177 L470 2 L388 2 L388 177 L66 177 L12 250 L384 708 L470 708 L470 253 L526 253 L526 177 Z M388 253 L390 592 L118 253 L388 253 Z " />
<glyph glyph-name="five" unicode="5" horiz-adv-x="581" d="M114 167 Q137 121 185.5 97.5 Q234 74 287 74 Q320 74 351 83.5 Q382 93 407 111.5 Q432 130 447 157 Q462 184 462 218 L462 250 Q462 284 448 309.5 Q434 335 410.5 352 Q387 369 356 377.5 Q325 386 292 386 Q241 386 200.5 376 Q160 366 113 344 L67 342 L67 708 L509 708 L509 624 L149 624 L149 443 Q184 457 219 464 Q254 471 292 470 Q338 470 383 456 Q428 442 463.5 415 Q499 388 521 347 Q543 306 544 251 L544 218 Q544 164 521.5 121.5 Q499 79 462.5 49.5 Q426 20 379.5 5 Q333 -10 285 -10 Q248 -10 211.5 -1 Q175 8 142.5 26 Q110 44 83 70.5 Q56 97 39 132 L114 167 Z " />
<glyph glyph-name="six" unicode="6" horiz-adv-x="617" d="M318 636 Q283 636 251 628 Q219 620 193.5 604 Q168 588 153 564 Q138 540 138 508 L138 369 Q155 391 177 406 Q199 421 223 430.5 Q247 440 271.5 444 Q296 448 318 448 Q367 448 413.5 434.5 Q460 421 496 394.5 Q532 368 554 329 Q576 290 576 238 L576 197 Q576 145 554 106.5 Q532 68 496 42.5 Q460 17 413.5 4.5 Q367 -8 318 -8 Q268 -8 221 5 Q174 18 137 44 Q100 70 77.5 109.5 Q55 149 55 201 L55 509 Q55 561 77.5 600.5 Q100 640 137 666.5 Q174 693 221 705.5 Q268 718 318 718 Q356 718 392.5 709 Q429 700 461.5 683 Q494 666 520.5 640 Q547 614 564 580 L489 543 Q464 595 419 615.5 Q374 636 318 636 Z M493 237 Q493 269 478.5 293 Q464 317 439.5 333 Q415 349 383.5 357 Q352 365 318 365 Q283 365 251 357 Q219 349 193.5 333 Q168 317 153 293 Q138 269 138 237 L138 202 Q138 170 153 146 Q168 122 193.5 106 Q219 90 251 82 Q283 74 318 74 Q352 74 383.5 82 Q415 90 439.5 106 Q464 122 478.5 146 Q493 170 493 202 L493 237 Z " />
<glyph glyph-name="seven" unicode="7" horiz-adv-x="513" d="M476 708 L503 653 L154 0 L63 0 L393 626 L28 626 L28 708 L476 708 Z " />
<glyph glyph-name="eight" unicode="8" horiz-adv-x="613" d="M297 -10 Q249 -10 203.5 3.5 Q158 17 122.5 43.5 Q87 70 65 110 Q43 150 42 203 Q42 258 69.5 306 Q97 354 156 380 Q135 387 119.5 402 Q104 417 93.5 435.5 Q83 454 78 474.5 Q73 495 73 514 Q73 563 92.5 599.5 Q112 636 143 660 Q174 684 214.5 696 Q255 708 297 708 L315 708 Q357 708 397.5 696 Q438 684 469.5 660 Q501 636 520 599.5 Q539 563 539 514 Q539 494 534 473.5 Q529 453 519.5 435 Q510 417 496 402.5 Q482 388 463 379 Q490 370 510 351.5 Q530 333 543.5 309.5 Q557 286 564 258.5 Q571 231 571 203 Q570 150 548 111 Q526 72 490 46 Q454 20 408.5 6.5 Q363 -7 315 -10 L297 -10 Z M297 628 Q270 628 244 621.5 Q218 615 198 601 Q178 587 166 565.5 Q154 544 154 514 Q154 482 166.5 462 Q179 442 199 431 Q219 420 245 416.5 Q271 413 297 413 L315 413 Q341 413 366.5 416.5 Q392 420 412.5 431 Q433 442 445.5 462 Q458 482 458 514 Q458 544 446 565.5 Q434 587 414 601 Q394 615 368 621.5 Q342 628 315 628 L297 628 Z M315 72 Q345 72 375.5 79.5 Q406 87 431.5 102.5 Q457 118 473 143 Q489 168 489 204 Q489 245 474.5 272 Q460 299 436 314.5 Q412 330 380.5 336 Q349 342 315 342 L297 342 Q263 342 231.5 336 Q200 330 176 314.5 Q152 299 137.5 272 Q123 245 123 204 Q123 168 139 143 Q155 118 180.5 102.5 Q206 87 236.5 79.5 Q267 72 297 72 L315 72 Z " />
<glyph glyph-name="nine" unicode="9" horiz-adv-x="617" d="M129 167 Q151 119 198 96 Q245 73 300 73 Q334 73 366.5 81 Q399 89 424.5 105 Q450 121 465 145 Q480 169 480 201 L480 332 Q465 309 443.5 294 Q422 279 398 270.5 Q374 262 349 259 Q324 256 300 256 Q251 256 204.5 269.5 Q158 283 121.5 309 Q85 335 63 373.5 Q41 412 41 464 L41 509 Q41 561 63 600 Q85 639 121.5 665.5 Q158 692 204.5 705 Q251 718 300 718 Q349 718 396 705.5 Q443 693 479.5 666.5 Q516 640 538.5 600.5 Q561 561 562 509 L562 200 Q562 148 539.5 109 Q517 70 480 43.5 Q443 17 396 4 Q349 -9 300 -9 Q262 -9 225 0 Q188 9 155.5 26 Q123 43 97 69 Q71 95 54 129 L129 167 Z M124 465 Q124 433 138.5 409 Q153 385 177.5 369 Q202 353 234 345 Q266 337 300 337 Q334 337 366.5 345 Q399 353 424.5 369 Q450 385 465 409 Q480 433 480 465 L480 508 Q480 541 465 565 Q450 589 424.5 604.5 Q399 620 366.5 628 Q334 636 300 636 Q266 636 234 628 Q202 620 177.5 604 Q153 588 138.5 564 Q124 540 124 508 L124 465 Z " />
<glyph glyph-name="fraction" unicode="&#x2044;" horiz-adv-x="522" d="M70 -37 L5 3 L451 735 L517 695 L70 -37 Z " />
<glyph glyph-name="onehalf" unicode="&#xbd;" horiz-adv-x="781" d="M142 -37 L77 3 L523 735 L589 695 L142 -37 Z M197 279 L123 279 L123 596 L80 538 L24 583 L132 708 L197 708 L197 279 Z M685 199 L549 75 L741 75 L741 0 L455 0 L433 53 L633 245 Q658 264 665 285.5 Q672 307 664.5 326 Q657 345 636.5 357 Q616 369 587 369 Q568 369 552.5 363 Q537 357 524.5 348 Q512 339 503.5 329 Q495 319 491 310 L431 337 Q452 391 493 414 Q534 437 585 437 Q630 437 672 415.5 Q714 394 734 350 Q741 329 741 308 Q741 275 725 248 Q709 221 684 199 L685 199 Z " />
<glyph glyph-name="onequarter" unicode="&#xbc;" horiz-adv-x="723" d="M154 -37 L88 3 L534 735 L601 695 L154 -37 Z M196 279 L122 279 L122 596 L79 538 L23 583 L131 708 L196 708 L196 279 Z M649 446 L649 171 L688 171 L688 100 L649 100 L649 -2 L574 -2 L574 100 L384 100 L342 161 L578 446 L649 446 Z M443 171 L574 171 L577 336 L443 171 Z " />
<glyph glyph-name="threequarters" unicode="&#xbe;" horiz-adv-x="805" d="M238 -37 L173 3 L619 735 L685 695 L238 -37 Z M328 587 Q328 564 315 541 Q302 518 279 505 Q311 493 329 465.5 Q347 438 347 406 Q346 376 334 351 Q322 326 301 308 Q280 290 251.5 280.5 Q223 271 188 272 Q174 272 153.5 275 Q133 278 110.5 289 Q88 300 66 320.5 Q44 341 27 376 L92 408 Q112 370 137 356 Q162 342 188 342 Q222 342 247.5 357.5 Q273 373 273 412 Q272 437 253 454 Q234 471 200 471 L156 471 L156 528 L200 528 Q222 528 239 543.5 Q256 559 256 588 Q256 609 237 623.5 Q218 638 188 638 Q165 638 145.5 629 Q126 620 109 589 L44 617 Q57 648 75.5 666.5 Q94 685 114.5 694.5 Q135 704 154.5 706.5 Q174 709 188 709 Q251 709 289.5 676 Q328 643 328 587 Z M664 446 L735 446 L735 171 L774 171 L774 100 L735 100 L735 -2 L660 -2 L660 100 L470 100 L428 161 L664 446 Z M663 336 L529 171 L660 171 L663 336 Z " />
<glyph glyph-name="onesuperior" unicode="&#xb9;" horiz-adv-x="258" d="M22 583 L130 708 L195 708 L195 279 L121 279 L121 596 L78 538 L22 583 Z " />
<glyph glyph-name="twosuperior" unicode="&#xb2;" horiz-adv-x="414" d="M357 271 L71 271 L49 324 L249 516 Q274 535 281 556.5 Q288 578 280.5 597 Q273 616 252.5 628 Q232 640 203 640 Q184 640 168.5 634 Q153 628 140.5 619 Q128 610 119.5 600 Q111 590 107 581 L47 608 Q68 662 109 685 Q150 708 201 708 Q234 708 262.5 698 Q291 688 312 670.5 Q333 653 345 629.5 Q357 606 357 579 Q357 546 341 519 Q325 492 300 470 L301 470 L165 346 L357 346 L357 271 Z " />
<glyph glyph-name="threesuperior" unicode="&#xb3;" horiz-adv-x="398" d="M338 587 Q338 564 325 541 Q312 518 289 505 Q321 493 339 465.5 Q357 438 357 406 Q356 376 344 351 Q332 326 311 308 Q290 290 261.5 280.5 Q233 271 198 272 Q184 272 163.5 275 Q143 278 120.5 289 Q98 300 76 320.5 Q54 341 37 376 L102 408 Q122 370 147 356 Q172 342 198 342 Q232 342 257.5 357.5 Q283 373 283 412 Q282 437 263 454 Q244 471 210 471 L166 471 L166 528 L210 528 Q232 528 249 543.5 Q266 559 266 588 Q266 609 247 623.5 Q228 638 198 638 Q175 638 155.5 629 Q136 620 119 589 L54 617 Q67 648 85.5 666.5 Q104 685 124.5 694.5 Q145 704 164.5 706.5 Q184 709 198 709 Q261 709 299.5 676 Q338 643 338 587 Z " />
<glyph glyph-name="asterisk" unicode="&#x2a;" horiz-adv-x="448" d="M414 532 L283 491 L366 378 L310 335 L225 450 L142 334 L82 377 L167 492 L33 535 L53 604 L190 560 L190 698 L261 698 L261 559 L393 602 L414 532 Z " />
<glyph glyph-name="backslash" unicode="&#x5c;" horiz-adv-x="416" d="M22 710 L97 736 L395 -11 L319 -37 L22 710 Z " />
<glyph glyph-name="bullet" unicode="&#x2022;" horiz-adv-x="425" d="M62 349 Q62 380 74 408 Q86 436 106 456 Q126 476 153.5 488 Q181 500 213 500 Q244 500 271.5 488 Q299 476 319 456 Q339 436 351 408 Q363 380 363 349 Q363 318 351 290.5 Q339 263 319 242.5 Q299 222 271.5 210 Q244 198 213 198 Q181 198 153.5 210 Q126 222 106 242.5 Q86 263 74 290.5 Q62 318 62 349 Z " />
<glyph glyph-name="colon" unicode="&#x3a;" horiz-adv-x="234" d="M58 426 Q58 451 75 468 Q92 485 117 485 Q142 485 159 468 Q176 451 176 426 Q176 401 159 384 Q142 367 117 367 Q92 367 75 384 Q58 401 58 426 Z M58 67 Q58 93 75 109.5 Q92 126 117 126 Q142 126 159 109.5 Q176 93 176 67 Q176 42 159 25.5 Q142 9 117 9 Q92 9 75 25.5 Q58 42 58 67 Z " />
<glyph glyph-name="comma" unicode="&#x2c;" horiz-adv-x="220" d="M85 -131 L3 -131 L73 88 L167 88 L85 -131 Z " />
<glyph glyph-name="ellipsis" unicode="&#x2026;" horiz-adv-x="609" d="M48 53 Q48 78 65 95 Q82 112 107 112 Q132 112 149 95 Q166 78 166 53 Q166 28 149 11 Q132 -6 107 -6 Q82 -6 65 11 Q48 28 48 53 Z M246 53 Q246 78 263 95 Q280 112 305 112 Q330 112 347 95 Q364 78 364 53 Q364 28 347 11 Q330 -6 305 -6 Q280 -6 263 11 Q246 28 246 53 Z M444 53 Q444 78 460.5 95 Q477 112 502 112 Q528 112 544.5 95 Q561 78 561 53 Q561 28 544.5 11 Q528 -6 502 -6 Q477 -6 460.5 11 Q444 28 444 53 Z " />
<glyph glyph-name="exclam" unicode="&#x21;" horiz-adv-x="216" d="M67 694 L149 694 L149 172 L67 172 L67 694 Z M49 49 Q49 74 66 91 Q83 108 108 108 Q133 108 150 91 Q167 74 167 49 Q167 24 150 7 Q133 -10 108 -10 Q83 -10 66 7 Q49 24 49 49 Z " />
<glyph glyph-name="exclamdown" unicode="&#xa1;" horiz-adv-x="209" d="M163 470 Q163 444 146.5 427.5 Q130 411 105 411 Q79 411 62.5 427.5 Q46 444 46 470 Q46 495 62.5 511.5 Q79 528 105 528 Q130 528 146.5 511.5 Q163 495 163 470 Z M146 -176 L63 -176 L63 346 L146 346 L146 -176 Z " />
<glyph glyph-name="numbersign" unicode="&#x23;" horiz-adv-x="602" d="M515 211 L407 211 Q392 158 375.5 104 Q359 50 345 -1 L259 -1 L321 211 L195 211 Q181 158 164.5 104 Q148 50 134 -1 L47 -1 L109 211 L29 211 L46 290 L133 290 Q143 324 152 351.5 Q161 379 171 415 L68 415 L85 495 L195 495 L254 697 L341 697 L281 495 L406 495 L466 697 L553 697 L492 495 L574 495 L552 415 L468 415 L432 290 L533 290 L515 211 Z M257 415 Q247 381 238.5 353.5 Q230 326 220 290 L344 290 Q355 324 363.5 351.5 Q372 379 382 415 L257 415 Z " />
<glyph glyph-name="period" unicode="&#x2e;" horiz-adv-x="214" d="M48 53 Q48 78 65 95 Q82 112 107 112 Q132 112 149 95 Q166 78 166 53 Q166 28 149 11 Q132 -6 107 -6 Q82 -6 65 11 Q48 28 48 53 Z " />
<glyph glyph-name="periodcentered" unicode="&#xb7;" horiz-adv-x="226" d="M55 315 Q55 340 71.5 357 Q88 374 114 374 Q139 374 155.5 357 Q172 340 172 315 Q172 290 155.5 273 Q139 256 114 256 Q88 256 71.5 273 Q55 290 55 315 Z " />
<glyph glyph-name="question" unicode="&#x3f;" horiz-adv-x="486" d="M32 630 Q67 674 119 696 Q171 718 228 718 Q271 718 312.5 705 Q354 692 385.5 666 Q417 640 436 601 Q455 562 455 511 Q455 461 438.5 424 Q422 387 395 361 Q368 335 332.5 319 Q297 303 258 296 Q256 258 254.5 225.5 Q253 193 251 156 L180 156 L174 365 Q212 365 248.5 375 Q285 385 313 404 Q341 423 358 450 Q375 477 374 512 Q373 543 360.5 566.5 Q348 590 327 606 Q306 622 280 629.5 Q254 637 226 637 Q188 637 150.5 620 Q113 603 86 570 L23 619 L32 630 Z M162 44 Q162 67 177.5 82.5 Q193 98 216 98 Q239 98 254.5 82.5 Q270 67 270 44 Q270 21 254.5 5.5 Q239 -10 216 -10 Q193 -10 177.5 5.5 Q162 21 162 44 Z " />
<glyph glyph-name="questiondown" unicode="&#xbf;" horiz-adv-x="481" d="M322 474 Q322 451 306.5 435.5 Q291 420 268 420 Q245 420 229.5 435.5 Q214 451 214 474 Q214 497 229.5 512.5 Q245 528 268 528 Q291 528 306.5 512.5 Q322 497 322 474 Z M452 -112 Q417 -156 365 -178 Q313 -200 256 -200 Q212 -200 171 -187 Q130 -174 98.5 -148 Q67 -122 48 -83 Q29 -44 29 7 Q29 57 45.5 94 Q62 131 89 157 Q116 183 151.5 198.5 Q187 214 226 222 Q228 260 229.5 292.5 Q231 325 233 362 L304 362 L310 153 Q272 153 235.5 143 Q199 133 171 114 Q143 95 126 68 Q109 41 110 6 Q111 -26 123.5 -49 Q136 -72 157 -88 Q178 -104 204 -111.5 Q230 -119 258 -119 Q296 -119 333.5 -102 Q371 -85 398 -52 L461 -101 L452 -112 Z " />
<glyph glyph-name="quotedbl" unicode="&#x22;" horiz-adv-x="326" d="M127 455 L60 455 L60 698 L145 698 L127 455 Z M257 455 L191 455 L191 698 L276 698 L257 455 Z " />
<glyph glyph-name="quotesingle" unicode="&#x27;" horiz-adv-x="197" d="M131 455 L60 455 L60 698 L144 698 L131 455 Z " />
<glyph glyph-name="semicolon" unicode="&#x3b;" horiz-adv-x="254" d="M63 412 Q63 437 79.5 454 Q96 471 122 471 Q147 471 163.5 454 Q180 437 180 412 Q180 387 163.5 370 Q147 353 122 353 Q96 353 79.5 370 Q63 387 63 412 Z M111 -131 L29 -131 L90 112 L193 112 L111 -131 Z " />
<glyph glyph-name="slash" unicode="&#x2f;" horiz-adv-x="415" d="M97 -38 L22 -11 L320 736 L394 710 L97 -38 Z " />
<glyph glyph-name="underscore" unicode="&#x5f;" horiz-adv-x="621" d="M561 -83 L60 -83 L60 -3 L561 -3 L561 -83 Z " />
<glyph glyph-name="braceleft" unicode="&#x7b;" horiz-adv-x="293" d="M211 672 Q191 672 188 655.5 Q185 639 185 610 L185 458 Q186 399 169.5 361.5 Q153 324 139 308 Q153 292 169.5 256 Q186 220 185 160 L185 5 Q185 -24 190 -38.5 Q195 -53 215 -53 L259 -53 L259 -125 L198 -125 Q152 -125 127 -91 Q102 -57 102 3 L102 141 Q102 166 99 190 Q96 214 88.5 232.5 Q81 251 68 262 Q55 273 35 273 L35 345 Q55 345 68 356.5 Q81 368 88.5 386.5 Q96 405 99 429 Q102 453 102 478 L102 616 Q102 676 127 710 Q152 744 198 744 L259 744 L259 672 L211 672 Z " />
<glyph glyph-name="braceright" unicode="&#x7d;" horiz-adv-x="294" d="M96 744 Q142 744 167 710 Q192 676 192 616 L192 478 Q192 453 195 429 Q198 405 205.5 386.5 Q213 368 226 356.5 Q239 345 259 345 L259 273 Q239 273 226 262 Q213 251 205.5 232.5 Q198 214 195 190 Q192 166 192 141 L192 3 Q192 -57 167 -91 Q142 -125 96 -125 L35 -125 L35 -53 L78 -53 Q99 -53 104 -38.5 Q109 -24 109 5 L109 160 Q109 191 113.5 215 Q118 239 124.5 257.5 Q131 276 139 289 Q147 302 154 310 Q140 326 124 362 Q108 398 109 458 L109 610 Q109 639 106 655.5 Q103 672 83 672 L35 672 L35 744 L96 744 Z " />
<glyph glyph-name="bracketleft" unicode="&#x5b;" horiz-adv-x="265" d="M145 -51 L231 -51 L231 -126 L62 -126 L62 743 L231 743 L231 668 L145 668 L145 -51 Z " />
<glyph glyph-name="bracketright" unicode="&#x5d;" horiz-adv-x="265" d="M119 672 L34 672 L34 744 L203 744 L203 -125 L34 -125 L34 -53 L119 -53 L119 672 Z " />
<glyph glyph-name="parenleft" unicode="&#x28;" horiz-adv-x="276" d="M252 731 Q219 689 195 640.5 Q171 592 155.5 540.5 Q140 489 132 437 Q124 385 124 337 Q124 228 158.5 132 Q193 36 253 -60 L188 -102 Q152 -53 125 1.5 Q98 56 79.5 112.5 Q61 169 51.5 226 Q42 283 42 337 Q42 452 79 566.5 Q116 681 184 776 L252 731 Z " />
<glyph glyph-name="parenright" unicode="&#x29;" horiz-adv-x="278" d="M23 -87 Q56 -46 80 3 Q104 52 120.5 103.5 Q137 155 145 207 Q153 259 153 307 Q153 417 119.5 521 Q86 625 25 722 L90 765 Q126 715 153 658 Q180 601 199 541 Q218 481 227.5 421.5 Q237 362 237 307 Q237 193 199.5 78 Q162 -37 94 -132 L23 -87 Z " />
<glyph glyph-name="emdash" unicode="&#x2014;" horiz-adv-x="991" d="M934 257 L57 257 L57 338 L934 338 L934 257 Z " />
<glyph glyph-name="endash" unicode="&#x2013;" horiz-adv-x="583" d="M525 257 L58 257 L58 338 L525 338 L525 257 Z " />
<glyph glyph-name="hyphen" unicode="&#x2d;" horiz-adv-x="377" d="M319 257 L58 257 L58 339 L319 339 L319 257 Z " />
<glyph glyph-name="uni00AD" unicode="&#xad;" horiz-adv-x="361" d="M311 202 L50 202 L50 284 L311 284 L311 202 Z " />
<glyph glyph-name="guillemotleft" unicode="&#xab;" horiz-adv-x="447" d="M244 462 L128 293 Q156 252 186.5 208.5 Q217 165 244 124 L175 83 L33 293 L175 504 L244 462 Z M403 462 L288 293 Q316 252 346 208.5 Q376 165 403 124 L334 83 L193 293 L334 504 L403 462 Z " />
<glyph glyph-name="guillemotright" unicode="&#xbb;" horiz-adv-x="451" d="M44 123 L160 293 Q132 334 101.5 377.5 Q71 421 44 462 L113 504 L255 293 L113 83 L44 123 Z M208 123 L323 293 Q295 334 265 377.5 Q235 421 208 462 L277 504 L418 293 L277 83 L208 123 Z " />
<glyph glyph-name="guilsinglleft" unicode="&#x2039;" horiz-adv-x="288" d="M244 462 L128 293 Q156 252 186.5 208.5 Q217 165 244 124 L175 83 L33 293 L175 504 L244 462 Z " />
<glyph glyph-name="guilsinglright" unicode="&#x203a;" horiz-adv-x="288" d="M44 123 L160 293 Q132 334 101.5 377.5 Q71 421 44 462 L114 504 L255 293 L114 83 L44 123 Z " />
<glyph glyph-name="quotedblbase" unicode="&#x201e;" horiz-adv-x="381" d="M88 -131 L6 -131 L73 94 L171 94 L88 -131 Z M244 -131 L161 -131 L229 94 L326 94 L244 -131 Z " />
<glyph glyph-name="quotedblleft" unicode="&#x201c;" horiz-adv-x="397" d="M122 698 L204 698 L137 455 L40 455 L122 698 Z M282 698 L364 698 L297 455 L200 455 L282 698 Z " />
<glyph glyph-name="quotedblright" unicode="&#x201d;" horiz-adv-x="389" d="M123 455 L41 455 L108 698 L205 698 L123 455 Z M279 455 L196 455 L263 698 L360 698 L279 455 Z " />
<glyph glyph-name="quoteleft" unicode="&#x2018;" horiz-adv-x="239" d="M122 698 L206 698 L137 455 L41 455 L122 698 Z " />
<glyph glyph-name="quoteright" unicode="&#x2019;" horiz-adv-x="236" d="M125 455 L42 455 L110 698 L207 698 L125 455 Z " />
<glyph glyph-name="quotesinglbase" unicode="&#x201a;" horiz-adv-x="224" d="M88 -131 L6 -131 L73 98 L171 98 L88 -131 Z " />
<glyph glyph-name="space" unicode="&#x20;" horiz-adv-x="210" d="" />
<glyph glyph-name="uni00A0" unicode="&#xa0;" horiz-adv-x="210" d="" />
<glyph glyph-name="florin" unicode="&#x192;" horiz-adv-x="487" d="M205 -9 Q194 -69 159 -103 Q124 -137 56 -137 Q33 -137 9.5 -129.5 Q-14 -122 -37 -103 L7 -36 Q21 -48 35 -53.5 Q49 -59 60 -59 Q91 -59 106 -35 Q121 -11 129 35 L129 36 L187 347 L87 347 L87 424 L200 424 Q207 459 213.5 492 Q220 525 226 559 Q231 586 241 613 Q251 640 268.5 661.5 Q286 683 312 696.5 Q338 710 375 710 Q400 710 426.5 699.5 Q453 689 478 671 L433 606 Q418 617 403 624.5 Q388 632 375 632 Q345 632 330 610 Q315 588 309 557 L309 558 Q303 521 296.5 491 Q290 461 284 424 L384 424 L384 347 L271 347 L205 -9 Z " />
<glyph glyph-name="Euro" unicode="&#x20ac;" horiz-adv-x="611" d="M95 498 Q95 552 116 593.5 Q137 635 171.5 662.5 Q206 690 249.5 704 Q293 718 339 718 Q374 718 408.5 709 Q443 700 473.5 682 Q504 664 529.5 637.5 Q555 611 572 576 L497 538 Q473 587 429 610.5 Q385 634 339 634 Q308 634 279 625.5 Q250 617 227 599.5 Q204 582 190 556.5 Q176 531 176 498 L176 446 L436 446 L422 377 L176 377 L176 334 L438 334 L424 266 L176 266 L176 209 Q176 175 190 149.5 Q204 124 226.5 107 Q249 90 278 81.5 Q307 73 337 73 Q385 73 429 96.5 Q473 120 497 168 L572 132 Q555 96 529 69.5 Q503 43 472.5 25.5 Q442 8 407 -1 Q372 -10 337 -10 Q291 -10 247.5 3.5 Q204 17 170 44.5 Q136 72 115.5 113 Q95 154 95 209 L95 266 L28 266 L43 334 L95 334 L95 377 L32 377 L46 446 L95 446 L95 498 Z " />
<glyph glyph-name="cent" unicode="&#xa2;" horiz-adv-x="475" d="M363 390 Q351 411 328.5 423.5 Q306 436 280 441 L280 80 Q309 85 334.5 101.5 Q360 118 371 152 L442 122 Q433 95 415.5 74 Q398 53 376 38 Q354 23 329 13.5 Q304 4 280 0 L280 -89 L210 -89 L210 0 Q178 5 149.5 18.5 Q121 32 98.5 53 Q76 74 63 103 Q50 132 50 170 L50 350 Q50 388 62.5 417.5 Q75 447 97 468 Q119 489 148 501.5 Q177 514 210 518 L210 609 L280 609 L280 518 Q328 513 368.5 489.5 Q409 466 435 420 L363 390 Z M130 168 Q129 132 153.5 111 Q178 90 210 82 L210 438 Q176 431 152.5 409.5 Q129 388 130 350 L130 168 Z " />
<glyph glyph-name="currency" unicode="&#xa4;" horiz-adv-x="615" d="M109 201 Q85 232 71.5 269.5 Q58 307 58 349 Q58 391 71.5 428.5 Q85 466 109 497 Q96 509 81.5 523.5 Q67 538 56 549 L107 604 L162 549 Q194 573 230.5 584.5 Q267 596 308 596 Q390 596 454 549 Q460 555 467.5 562.5 Q475 570 482.5 578 Q490 586 497 593 Q504 600 509 604 L559 549 L506 497 Q530 466 543.5 428.5 Q557 391 557 349 Q557 307 543.5 269.5 Q530 232 506 201 Q519 189 533.5 174.5 Q548 160 559 149 L509 94 L454 149 Q389 102 308 102 Q268 102 230.5 114 Q193 126 162 149 Q150 138 133 120 Q116 102 107 94 L56 149 L109 201 Z M136 348 Q136 312 149.5 281 Q163 250 186.5 227 Q210 204 240.5 190.5 Q271 177 306 177 Q341 177 372 190.5 Q403 204 426.5 227 Q450 250 463.5 281 Q477 312 477 348 Q477 384 463.5 416 Q450 448 426.5 471.5 Q403 495 372 508.5 Q341 522 306 522 Q271 522 240.5 508.5 Q210 495 186.5 471.5 Q163 448 149.5 416 Q136 384 136 348 Z " />
<glyph glyph-name="dollar" unicode="&#x24;" horiz-adv-x="578" d="M323 397 Q365 388 406 375.5 Q447 363 478 339 Q509 315 526.5 277 Q544 239 541 179 Q538 136 519.5 102.5 Q501 69 471.5 45 Q442 21 403.5 7 Q365 -7 323 -10 L323 -108 L250 -108 L250 -10 Q215 -6 181.5 5 Q148 16 118.5 34.5 Q89 53 65.5 79 Q42 105 28 139 L104 173 Q123 129 162.5 104.5 Q202 80 250 73 L250 329 Q209 338 170.5 350 Q132 362 103 383.5 Q74 405 57 439 Q40 473 43 526 L43 525 Q44 567 61.5 600 Q79 633 107 656 Q135 679 172 692.5 Q209 706 250 711 L250 808 L323 808 L323 711 Q358 708 391.5 697 Q425 686 454 667.5 Q483 649 506.5 623.5 Q530 598 544 565 L469 531 Q449 575 410 599.5 Q371 624 323 629 L323 397 Z M125 521 Q123 495 132 477 Q141 459 158 446.5 Q175 434 199 426 Q223 418 250 412 L250 628 Q200 621 164 594.5 Q128 568 125 521 Z M323 73 Q348 76 371.5 85 Q395 94 413.5 108 Q432 122 444 140.5 Q456 159 459 183 Q460 213 449.5 234 Q439 255 420.5 270.5 Q402 286 377 296 Q352 306 323 313 L323 73 Z " />
<glyph glyph-name="sterling" unicode="&#xa3;" horiz-adv-x="527" d="M139 327 L41 327 L41 399 L139 399 L139 512 Q139 546 149 582.5 Q159 619 182.5 649 Q206 679 245 698.5 Q284 718 343 718 Q384 718 419.5 702 Q455 686 492 653 L433 598 Q410 621 389 630.5 Q368 640 340 640 Q308 640 285 627 Q262 614 247.5 595 Q233 576 226.5 553.5 Q220 531 220 512 L220 399 L376 399 L376 327 L220 327 L220 75 L480 75 L480 0 L41 0 L41 75 L139 75 L139 327 Z " />
<glyph glyph-name="yen" unicode="&#xa5;" horiz-adv-x="614" d="M487 251 L348 251 L348 202 L503 202 L488 133 L348 133 L348 1 L266 1 L266 133 L109 133 L124 202 L266 202 L266 251 L112 251 L127 320 L239 320 L23 708 L119 708 L307 353 L495 708 L592 708 L375 320 L502 320 L487 251 Z " />
<glyph glyph-name="approxequal" unicode="&#x2248;" horiz-adv-x="536" d="M483 366 Q460 332 431 309.5 Q402 287 363 287 Q334 287 307 299 Q280 311 250 328 Q232 339 212.5 347.5 Q193 356 176 356 Q158 356 141 341 Q124 326 108 304 L52 349 Q79 388 112 409.5 Q145 431 182 431 Q213 431 236.5 420 Q260 409 278 398 L277 399 L290 392 Q293 390 299 387 Q305 384 299 386 Q300 384 305 383 Q321 374 335.5 368 Q350 362 367 362 Q397 362 430 413 L483 366 Z M484 229 Q461 194 431 172 Q401 150 363 150 Q333 150 309 160.5 Q285 171 249 191 Q230 202 212 210.5 Q194 219 176 219 Q158 219 141 204.5 Q124 190 109 167 L52 213 Q78 253 111 274 Q144 295 182 295 Q211 295 233.5 285 Q256 275 275 265 L281 261 L277 264 L290 256 L295 254 Q314 243 331 235 Q348 227 367 227 Q382 227 396 238 Q410 249 427 271 L484 229 Z " />
<glyph glyph-name="asciitilde" unicode="&#x7e;" horiz-adv-x="519" d="M472 333 Q463 313 451 294.5 Q439 276 422.5 262 Q406 248 385 239 Q364 230 338 230 Q311 230 287 242 Q263 254 244 267 Q227 278 211.5 286.5 Q196 295 180 295 Q157 295 137.5 274.5 Q118 254 100 226 L48 269 Q58 287 70.5 305.5 Q83 324 99.5 338.5 Q116 353 136.5 362.5 Q157 372 183 372 Q215 372 240.5 359.5 Q266 347 286 333 Q300 324 315 315.5 Q330 307 341 307 Q365 307 384.5 329 Q404 351 422 379 L472 333 Z " />
<glyph glyph-name="divide" unicode="&#xf7;" horiz-adv-x="529" d="M203 479 Q203 505 221 522.5 Q239 540 265 540 Q291 540 309 522.5 Q327 505 327 479 Q327 453 309 435 Q291 417 265 417 Q239 417 221 435 Q203 453 203 479 Z M484 286 L46 286 L46 369 L484 369 L484 286 Z M208 176 Q208 202 226 219 Q244 236 270 237 Q296 237 314 219.5 Q332 202 332 176 Q332 150 314 132 Q296 114 270 114 Q244 114 226 132 Q208 150 208 176 Z " />
<glyph glyph-name="equal" unicode="&#x3d;" horiz-adv-x="533" d="M473 333 L60 333 L60 411 L473 411 L473 333 Z M473 181 L60 181 L60 260 L473 260 L473 181 Z " />
<glyph glyph-name="greater" unicode="&#x3e;" horiz-adv-x="443" d="M414 270 L53 59 L53 152 L312 301 Q246 339 182.5 376.5 Q119 414 53 452 L53 546 L414 331 L414 270 Z " />
<glyph glyph-name="greaterequal" unicode="&#x2265;" horiz-adv-x="485" d="M426 352 L66 149 L66 239 L325 380 L66 525 L66 616 L426 410 L426 352 Z M439 120 L439 43 L53 43 L53 120 L439 120 Z " />
<glyph glyph-name="infinity" unicode="&#x221e;" horiz-adv-x="724" d="M681 290 Q681 254 668 225 Q655 196 634 175.5 Q613 155 585 144 Q557 133 527 133 Q483 133 445.5 157.5 Q408 182 363 230 Q346 211 327.5 193.5 Q309 176 289 162.5 Q269 149 245.5 141 Q222 133 194 133 Q162 133 134.5 145 Q107 157 87 177.5 Q67 198 55 226 Q43 254 43 287 Q43 321 54.5 350.5 Q66 380 87 401 Q108 422 137 434 Q166 446 200 446 Q226 446 248.5 438 Q271 430 291.5 416 Q312 402 330.5 384 Q349 366 366 347 Q384 366 402 384 Q420 402 440 415.5 Q460 429 483.5 437.5 Q507 446 534 446 Q567 446 594 434.5 Q621 423 640.5 402.5 Q660 382 670.5 353.5 Q681 325 681 291 L681 290 Z M200 209 Q216 209 231 216 Q246 223 260 234 Q274 245 287.5 258.5 Q301 272 313 285 L316 288 Q290 319 260.5 344.5 Q231 370 193 370 Q158 370 140 345 Q122 320 122 287 Q122 255 143 232 Q164 209 199 209 L200 209 Z M529 370 Q514 370 499 363 Q484 356 469.5 345 Q455 334 442.5 321.5 Q430 309 419 297 L413 290 Q450 251 476 230 Q502 209 530 209 Q548 209 561.5 216 Q575 223 584 234 Q593 245 598 259 Q603 273 603 287 Q603 328 582 349 Q561 370 529 370 Z " />
<glyph glyph-name="integral" unicode="&#x222b;" horiz-adv-x="338" d="M310 749 Q291 762 277 767 Q263 772 254 772 Q231 772 217 748.5 Q203 725 204 685 L209 434 Q210 375 211.5 312.5 Q213 250 214 192 Q215 134 215.5 84 Q216 34 216 0 Q216 -38 205 -66 Q194 -94 176 -112.5 Q158 -131 134 -140 Q110 -149 84 -149 Q52 -149 8 -130 L27 -63 Q59 -76 76 -76 Q104 -76 120.5 -55 Q137 -34 137 1 Q137 30 136.5 69 Q136 108 135 154 Q134 200 133 250 Q132 300 131 351 Q130 401 129 450.5 Q128 500 127 544 Q126 588 125.5 626 Q125 664 125 691 Q125 730 135.5 759 Q146 788 163 807.5 Q180 827 203 837 Q226 847 250 847 Q287 847 328 821 L310 749 Z " />
<glyph glyph-name="less" unicode="&#x3c;" horiz-adv-x="442" d="M130 301 Q195 263 260.5 226 Q326 189 389 152 L389 59 L29 270 L29 331 L389 546 L389 452 L130 301 Z " />
<glyph glyph-name="lessequal" unicode="&#x2264;" horiz-adv-x="486" d="M419 242 L419 152 L59 355 L59 413 L419 619 L419 528 L160 383 L419 242 Z M432 120 L432 43 L46 43 L46 120 L432 120 Z " />
<glyph glyph-name="logicalnot" unicode="&#xac;" horiz-adv-x="598" d="M56 405 L535 405 L535 161 L456 161 L456 326 L56 326 L56 405 Z " />
<glyph glyph-name="minus" unicode="&#x2212;" horiz-adv-x="630" d="M570 265 L60 265 L60 343 L570 343 L570 265 Z " />
<glyph glyph-name="multiply" unicode="&#xd7;" horiz-adv-x="510" d="M409 509 L465 452 L315 301 L464 152 L407 94 L257 244 L103 90 L47 148 L199 300 L44 455 L101 512 L257 356 L409 509 Z " />
<glyph glyph-name="notequal" unicode="&#x2260;" horiz-adv-x="547" d="M496 331 L331 331 Q325 317 320.5 306.5 Q316 296 311.5 286 Q307 276 302 264.5 Q297 253 290 238 L496 238 L496 161 L256 161 L235 115 Q229 101 219.5 81 Q210 61 205 48 L139 82 L176 161 L51 161 L51 238 L210 238 Q216 251 220.5 262 Q225 273 229.5 283 Q234 293 238.5 304.5 Q243 316 250 331 L51 331 L51 408 L286 408 L305 453 L336 518 L401 488 L364 408 L496 408 L496 331 Z " />
<glyph glyph-name="partialdiff" unicode="&#x2202;" horiz-adv-x="506" d="M67 680 Q94 702 134 720 Q174 738 229 738 Q273 738 315 717 Q357 696 390 652.5 Q423 609 443 542 Q463 475 463 382 Q463 296 447.5 224.5 Q432 153 402 100.5 Q372 48 326.5 19 Q281 -10 221 -10 Q176 -10 142 8.5 Q108 27 85.5 57.5 Q63 88 51.5 127.5 Q40 167 40 210 Q40 267 57 312.5 Q74 358 102.5 390.5 Q131 423 168 440 Q205 457 244 457 Q293 457 327.5 437.5 Q362 418 383 396 Q383 451 371.5 499.5 Q360 548 339 584 Q318 620 288.5 641 Q259 662 224 662 Q186 662 154.5 646.5 Q123 631 100 613 L67 680 Z M223 70 Q253 70 280 88 Q307 106 327 136 Q347 166 359.5 206.5 Q372 247 374 292 Q369 307 357.5 322.5 Q346 338 329.5 351 Q313 364 292 372.5 Q271 381 247 381 Q222 381 199.5 367.5 Q177 354 159.5 331 Q142 308 132 277.5 Q122 247 122 212 Q122 147 148.5 108.5 Q175 70 223 70 Z " />
<glyph glyph-name="percent" unicode="&#x25;" horiz-adv-x="780" d="M591 743 L658 700 L170 -71 L104 -28 L591 743 Z M335 525 Q335 480 323.5 443.5 Q312 407 291.5 382 Q271 357 242.5 343.5 Q214 330 181 330 Q108 330 68 379.5 Q28 429 28 525 Q28 569 39.5 605 Q51 641 71 666 Q91 691 119.5 704.5 Q148 718 181 718 Q253 718 294 668 Q335 618 335 525 Z M253 525 Q253 585 234 611.5 Q215 638 180 638 Q145 638 127.5 611 Q110 584 110 525 Q110 464 127.5 438 Q145 412 181 412 Q253 412 253 525 Z M751 184 Q751 93 708 41.5 Q665 -10 598 -10 Q524 -10 484.5 39 Q445 88 445 184 Q445 274 487.5 325.5 Q530 377 598 377 Q670 377 710.5 327.5 Q751 278 751 184 Z M670 184 Q670 243 650.5 270.5 Q631 298 597 298 Q561 298 543.5 270.5 Q526 243 526 184 Q526 123 543.5 97 Q561 71 598 71 Q670 71 670 184 Z " />
<glyph glyph-name="perthousand" unicode="&#x2030;" horiz-adv-x="1110" d="M589 743 L657 700 L170 -71 L101 -28 L589 743 Z M336 525 Q336 480 324.5 443.5 Q313 407 293 382 Q273 357 244.5 343.5 Q216 330 183 330 Q109 330 69 379.5 Q29 429 29 525 Q29 569 40.5 605 Q52 641 72.5 666 Q93 691 121 704.5 Q149 718 183 718 Q255 718 295.5 668 Q336 618 336 525 Z M255 525 Q255 585 235.5 611.5 Q216 638 182 638 Q146 638 128.5 611 Q111 584 111 525 Q111 464 128.5 438 Q146 412 183 412 Q255 412 255 525 Z M741 183 Q741 138 729.5 102 Q718 66 697.5 41 Q677 16 649 3 Q621 -10 588 -10 Q513 -10 473.5 39.5 Q434 89 434 185 Q434 275 477 326 Q520 377 588 377 Q660 377 700.5 327 Q741 277 741 183 Z M1084 183 Q1084 138 1072.5 102 Q1061 66 1041 41 Q1021 16 993 3 Q965 -10 932 -10 Q857 -10 817.5 39.5 Q778 89 778 185 Q778 275 820.5 326 Q863 377 932 377 Q1003 377 1043.5 327 Q1084 277 1084 183 Z M659 183 Q659 242 639.5 270 Q620 298 586 298 Q550 298 533 271 Q516 244 516 185 Q516 124 533 97.5 Q550 71 588 71 Q623 71 641 98 Q659 125 659 183 Z M1003 183 Q1003 242 983.5 270 Q964 298 930 298 Q894 298 876.5 271 Q859 244 859 185 Q859 124 876.5 97.5 Q894 71 932 71 Q967 71 985 98 Q1003 125 1003 183 Z " />
<glyph glyph-name="plus" unicode="&#x2b;" horiz-adv-x="583" d="M256 591 L337 591 L337 378 L547 378 L547 296 L337 296 L337 81 L256 81 L256 296 L37 296 L37 378 L256 378 L256 591 Z " />
<glyph glyph-name="plusminus" unicode="&#xb1;" horiz-adv-x="549" d="M232 605 L313 605 L313 440 L490 440 L490 360 L313 360 L313 194 L232 194 L232 360 L59 360 L59 440 L232 440 L232 605 Z M492 65 L57 65 L57 144 L492 144 L492 65 Z " />
<glyph glyph-name="product" unicode="&#x220f;" horiz-adv-x="648" d="M442 -66 L442 629 L204 629 L204 -66 L123 -66 L123 629 L26 629 L26 708 L622 708 L622 629 L523 629 L523 -66 L442 -66 Z " />
<glyph glyph-name="radical" unicode="&#x221a;" horiz-adv-x="525" d="M98 291 Q83 286 64 278.5 Q45 271 32 267 L5 339 L149 394 L266 13 L431 821 L515 821 L311 -146 L239 -146 L98 291 Z " />
<glyph glyph-name="summation" unicode="&#x2211;" horiz-adv-x="544" d="M281 305 L42 639 L42 697 L494 697 L494 620 L155 620 L376 308 L139 -10 L509 -10 L509 -83 L30 -83 L30 -27 L281 305 Z " />
<glyph glyph-name="uni2215" unicode="&#x2215;" horiz-adv-x="516" d="M67 -37 L2 3 L448 735 L514 695 L67 -37 Z " />
<glyph glyph-name="uni2219" unicode="&#x2219;" horiz-adv-x="226" d="M55 315 Q55 340 71.5 357 Q88 374 114 374 Q139 374 155.5 357 Q172 340 172 315 Q172 290 155.5 273 Q139 256 114 256 Q88 256 71.5 273 Q55 290 55 315 Z " />
<glyph glyph-name="lozenge" unicode="&#x25ca;" horiz-adv-x="540" d="M304 -30 L232 -30 L22 350 L236 731 L307 731 L518 351 L304 -30 Z M273 612 Q274 610 272 614 Q270 618 268 620 L262 609 L118 352 L268 84 Q268 84 270 80 Q271 83 275 89 L422 350 L273 612 Z " />
<glyph glyph-name="uni2113" unicode="&#x2113;" horiz-adv-x="449" d="M430 120 Q398 58 353.5 24 Q309 -10 252 -10 Q212 -10 183 4 Q154 18 135 42.5 Q116 67 106 100 Q96 133 94 171 L50 136 L20 193 Q46 217 62 233.5 Q78 250 94 266 L94 524 Q94 593 107 639 Q120 685 140.5 712.5 Q161 740 187 751 Q213 762 239 762 Q269 762 291.5 749.5 Q314 737 329 715 Q344 693 351.5 663 Q359 633 359 599 Q359 505 308 414 Q257 323 172 235 L172 213 Q172 172 179.5 144 Q187 116 199 99 Q211 82 227 75 Q243 68 261 68 Q295 68 324.5 97 Q354 126 371 167 L430 120 Z M172 343 Q221 405 252 467.5 Q283 530 283 597 Q283 631 273.5 657.5 Q264 684 236 684 Q225 684 213.5 676.5 Q202 669 193 651.5 Q184 634 178 604 Q172 574 172 529 L172 343 Z " />
<glyph glyph-name="ampersand" unicode="&#x26;" horiz-adv-x="630" d="M445 226 Q457 247 471 270 Q485 293 496 312 L566 277 L502 170 L619 35 L512 35 L454 99 Q434 74 412 54 Q390 34 365.5 19.5 Q341 5 312 -2.5 Q283 -10 249 -10 Q204 -10 165 4 Q126 18 97 44.5 Q68 71 51.5 108 Q35 145 35 192 Q35 230 47 262 Q59 294 79 320 Q99 346 124.5 367 Q150 388 178 405 Q150 437 127.5 474.5 Q105 512 105 557 Q105 595 120 625 Q135 655 159.5 675.5 Q184 696 216.5 707 Q249 718 284 718 Q316 718 345.5 707 Q375 696 397.5 676 Q420 656 433.5 628.5 Q447 601 447 567 Q447 531 435 504.5 Q423 478 403.5 457 Q384 436 359 420 Q334 404 307 390 L445 226 Z M281 643 Q243 643 216 619.5 Q189 596 189 558 Q189 543 195 527.5 Q201 512 210.5 497 Q220 482 231 468 Q242 454 253 442 Q272 451 291.5 462.5 Q311 474 327 489 Q343 504 353.5 522 Q364 540 364 563 Q364 598 340.5 620.5 Q317 643 281 643 Z M230 351 Q210 339 190.5 322 Q171 305 154.5 285 Q138 265 128 241.5 Q118 218 118 194 Q118 165 129 142 Q140 119 159 103 Q178 87 203.5 78.5 Q229 70 258 70 Q305 70 340 95.5 Q375 121 401 156 L230 351 Z " />
<glyph glyph-name="asciicircum" unicode="&#x5e;" horiz-adv-x="559" d="M520 417 L422 417 L277 607 L138 417 L39 417 L248 698 L305 698 L520 417 Z " />
<glyph glyph-name="at" unicode="&#x40;" horiz-adv-x="760" d="M612 548 Q577 592 521 615 Q465 638 402 638 Q341 638 289.5 614.5 Q238 591 200 551.5 Q162 512 140.5 460 Q119 408 119 351 Q119 287 136.5 234 Q154 181 189 142.5 Q224 104 276.5 83 Q329 62 399 62 Q422 62 447 66.5 Q472 71 502 83 L536 19 Q497 4 464 -2.5 Q431 -9 399 -9 Q307 -9 239.5 19 Q172 47 128.5 96 Q85 145 64 210.5 Q43 276 43 351 Q43 426 70.5 491.5 Q98 557 146.5 605.5 Q195 654 260 682 Q325 710 400 710 Q471 710 531.5 687.5 Q592 665 636.5 625.5 Q681 586 706 532.5 Q731 479 731 417 Q731 356 711 303.5 Q691 251 658 212 Q625 173 584 151 Q543 129 501 129 Q478 129 458.5 142.5 Q439 156 437 191 Q418 161 386 147 Q354 133 322 133 Q293 133 268 146 Q243 159 225 180 Q207 201 196.5 227.5 Q186 254 186 281 Q186 332 201.5 382.5 Q217 433 246 473 Q275 513 318 538 Q361 563 415 563 Q429 563 444.5 558.5 Q460 554 474 545.5 Q488 537 498 524.5 Q508 512 511 495 L524 530 L603 527 L516 258 Q513 250 510.5 240.5 Q508 231 507 223.5 Q506 216 509.5 211 Q513 206 522 206 Q544 206 567.5 225 Q591 244 610.5 274.5 Q630 305 642.5 342.5 Q655 380 655 417 Q655 493 614 545 L612 548 Z M262 283 Q262 250 280.5 229 Q299 208 330 208 Q360 208 386 228 Q412 248 431.5 277.5 Q451 307 462 341 Q473 375 473 404 Q473 442 458 465 Q443 488 411 488 Q373 489 345 468.5 Q317 448 298.5 417.5 Q280 387 271 350.5 Q262 314 262 283 Z " />
<glyph glyph-name="bar" unicode="&#x7c;" horiz-adv-x="204" d="M62 -169 L62 742 L142 742 L142 -169 L62 -169 Z " />
<glyph glyph-name="brokenbar" unicode="&#xa6;" horiz-adv-x="214" d="M66 338 L66 696 L148 696 L148 338 L66 338 Z M66 -137 L66 222 L148 222 L148 -137 L66 -137 Z " />
<glyph glyph-name="copyright" unicode="&#xa9;" horiz-adv-x="817" d="M42 349 Q42 425 71 491.5 Q100 558 150 607.5 Q200 657 266.5 686 Q333 715 409 715 Q485 715 551.5 686 Q618 657 667.5 607.5 Q717 558 746 491.5 Q775 425 775 349 Q775 273 746 206.5 Q717 140 667.5 90.5 Q618 41 551.5 12 Q485 -17 409 -17 Q333 -17 266.5 12 Q200 41 150 90.5 Q100 140 71 206.5 Q42 273 42 349 Z M119 349 Q119 289 142 236.5 Q165 184 204 144.5 Q243 105 296 82 Q349 59 409 59 Q469 59 521.5 82 Q574 105 613 144.5 Q652 184 675 236.5 Q698 289 698 349 Q698 409 675 462 Q652 515 613 554 Q574 593 521.5 616 Q469 639 409 639 Q349 639 296 616 Q243 593 204 554 Q165 515 142 462 Q119 409 119 349 Z M522 445 L516 454 Q502 479 472 490.5 Q442 502 409 502 Q388 502 368 497 Q348 492 332 481 Q316 470 306.5 453.5 Q297 437 297 415 L297 273 Q297 251 306.5 235 Q316 219 332 208.5 Q348 198 368 192.5 Q388 187 409 187 Q445 187 478 206 Q511 225 522 264 L590 231 Q580 201 561 178.5 Q542 156 517.5 141.5 Q493 127 465 120 Q437 113 409 113 Q374 113 340.5 123 Q307 133 281 153 Q255 173 238.5 203.5 Q222 234 222 275 L222 415 Q222 456 238.5 486.5 Q255 517 281 537 Q307 557 340.5 567 Q374 577 409 577 Q460 577 507.5 553 Q555 529 583 481 L522 445 Z " />
<glyph glyph-name="dagger" unicode="&#x2020;" horiz-adv-x="499" d="M26 514 L208 514 L208 698 L291 698 L291 514 L473 514 L473 437 L291 437 L291 -120 L208 -120 L208 437 L26 437 L26 514 Z " />
<glyph glyph-name="daggerdbl" unicode="&#x2021;" horiz-adv-x="555" d="M54 141 L236 141 L236 437 L54 437 L54 513 L236 513 L236 698 L319 698 L319 513 L501 513 L501 437 L319 437 L319 141 L501 141 L501 66 L319 66 L319 -120 L236 -120 L236 66 L54 66 L54 141 Z " />
<glyph glyph-name="degree" unicode="&#xb0;" horiz-adv-x="359" d="M180 426 Q151 426 125 437 Q99 448 80 467 Q61 486 50 512 Q39 538 39 567 Q39 596 50 621.5 Q61 647 80 666 Q99 685 125 696 Q151 707 180 707 Q209 707 234.5 696 Q260 685 279 666 Q298 647 309 621.5 Q320 596 320 567 Q320 538 309 512.5 Q298 487 278.5 467.5 Q259 448 233.5 437 Q208 426 180 426 Z M180 500 Q207 500 226.5 519.5 Q246 539 246 566 Q246 593 226.5 613 Q207 633 180 633 Q153 633 133 613 Q113 593 113 566 Q113 539 133 519.5 Q153 500 180 500 Z " />
<glyph glyph-name="estimated" unicode="&#x212e;" horiz-adv-x="868" d="M210 146 Q210 142 214 134 Q258 92 317 63.5 Q376 35 441 35 Q513 35 575 66.5 Q637 98 683 150 L775 150 Q744 114 706 84.5 Q668 55 625 34 Q582 13 535 1.5 Q488 -10 440 -10 Q357 -10 284.5 18 Q212 46 158 95 Q104 144 72.5 209 Q41 274 41 349 Q41 424 72.5 489.5 Q104 555 158 604 Q212 653 284.5 681.5 Q357 710 440 710 Q523 710 595.5 681.5 Q668 653 722 604 Q776 555 807.5 489.5 Q839 424 839 349 L839 326 L210 326 L210 146 Z M671 371 L671 554 Q671 562 666 567 Q621 610 564 636 Q507 662 441 662 Q377 662 318 634.5 Q259 607 216 565 Q210 559 210 550 L210 371 L671 371 Z " />
<glyph glyph-name="paragraph" unicode="&#xb6;" horiz-adv-x="565" d="M242 252 Q188 254 147.5 273.5 Q107 293 79.5 324 Q52 355 38.5 393.5 Q25 432 25 472 Q25 514 40 555 Q55 596 86 627.5 Q117 659 162.5 678.5 Q208 698 270 698 L499 698 L499 -120 L417 -120 L417 626 L325 626 L325 -120 L242 -120 L242 252 Z " />
<glyph glyph-name="registered" unicode="&#xae;" horiz-adv-x="816" d="M42 349 Q42 425 71 491.5 Q100 558 149.5 607.5 Q199 657 265.5 686 Q332 715 408 715 Q484 715 550.5 686 Q617 657 666.5 607.5 Q716 558 745 491.5 Q774 425 774 349 Q774 273 745 206.5 Q716 140 666.5 90.5 Q617 41 550.5 12 Q484 -17 408 -17 Q332 -17 265.5 12 Q199 41 149.5 90.5 Q100 140 71 206.5 Q42 273 42 349 Z M122 349 Q122 290 144.5 238 Q167 186 206 147.5 Q245 109 297 86.5 Q349 64 408 64 Q467 64 519 86.5 Q571 109 609.5 147.5 Q648 186 670.5 238 Q693 290 693 349 Q693 408 670.5 460 Q648 512 609.5 551 Q571 590 519 612.5 Q467 635 408 635 Q349 635 297 612.5 Q245 590 206 551 Q167 512 144.5 460 Q122 408 122 349 Z M272 547 L422 547 Q494 547 530.5 514.5 Q567 482 567 424 Q567 371 541 341.5 Q515 312 478 301 L582 157 L497 157 L395 297 L344 297 L344 156 L272 156 L272 547 Z M394 365 Q412 365 429.5 367 Q447 369 461.5 375 Q476 381 484.5 392.5 Q493 404 493 424 Q493 439 486.5 449.5 Q480 460 469.5 466.5 Q459 473 445.5 476 Q432 479 419 479 L344 479 L344 365 L394 365 Z " />
<glyph glyph-name="section" unicode="&#xa7;" horiz-adv-x="478" d="M108 32 Q124 -13 158.5 -34.5 Q193 -56 231 -56 Q250 -56 269 -50.5 Q288 -45 303.5 -34.5 Q319 -24 328.5 -9 Q338 6 338 26 Q338 44 328 59 Q318 74 301.5 86 Q285 98 263.5 108.5 Q242 119 219 130 Q188 144 158 159 Q128 174 104 194.5 Q80 215 65 243 Q50 271 50 310 Q50 356 75.5 386 Q101 416 136 435 Q107 456 90 484.5 Q73 513 73 553 Q73 593 89.5 623 Q106 653 132.5 673.5 Q159 694 193 704.5 Q227 715 262 715 Q314 715 361 690 Q408 665 430 607 L357 567 Q343 602 316.5 619 Q290 636 259 636 Q240 636 221.5 630.5 Q203 625 188.5 614.5 Q174 604 165 588.5 Q156 573 156 553 Q156 535 165.5 521.5 Q175 508 191 496 Q207 484 227.5 473.5 Q248 463 271 453 Q301 439 330 424 Q359 409 382.5 388.5 Q406 368 420.5 341 Q435 314 435 277 Q435 234 415 203 Q395 172 362 151 Q388 130 405 100.5 Q422 71 422 35 Q422 -6 406 -38 Q390 -70 363.5 -92 Q337 -114 303 -125.5 Q269 -137 232 -137 Q200 -137 170 -129 Q140 -121 114 -104.5 Q88 -88 67 -63 Q46 -38 33 -3 L108 32 Z M289 190 Q299 197 310.5 206 Q322 215 332 225.5 Q342 236 348 248 Q354 260 354 272 Q354 287 347 300 Q340 313 329.5 323.5 Q319 334 307 341.5 Q295 349 284 355 L218 393 Q204 388 189 380.5 Q174 373 162 363 Q150 353 142.5 340.5 Q135 328 135 312 Q135 279 152 263 Q169 247 194 234 L194 235 L289 190 Z " />
<glyph glyph-name="trademark" unicode="&#x2122;" horiz-adv-x="837" d="M153 635 L30 635 L30 708 L352 708 L352 635 L229 635 L229 312 L153 312 L153 635 Z M390 708 L469 708 L581 464 Q608 524 637.5 586 Q667 648 693 708 L772 708 L772 312 L696 312 L699 552 L610 356 L551 356 L464 547 L466 312 L390 312 L390 708 Z " />
<glyph glyph-name="acute" unicode="&#xb4;" horiz-adv-x="213" d="M249 889 L147 756 L59 756 L144 889 L249 889 Z " />
<glyph glyph-name="breve" unicode="&#x2d8;" horiz-adv-x="240" d="M104 756 Q77 756 53.5 766.5 Q30 777 12.5 795 Q-5 813 -15 837.5 Q-25 862 -25 889 L48 889 Q48 864 64.5 846.5 Q81 829 104 829 Q127 829 144 846.5 Q161 864 161 889 L237 889 Q237 862 226.5 837.5 Q216 813 198 795 Q180 777 155.5 766.5 Q131 756 104 756 Z " />
<glyph glyph-name="caron" unicode="&#x2c7;" horiz-adv-x="257" d="M-45 889 L54 889 L123 823 L188 889 L289 889 L161 756 L83 756 L-45 889 Z " />
<glyph glyph-name="cedilla" unicode="&#xb8;" horiz-adv-x="240" d="M125 -64 Q171 -63 190.5 -86.5 Q210 -110 207 -143 Q203 -184 180 -206 Q157 -228 124.5 -234.5 Q92 -241 56.5 -234 Q21 -227 -8 -211 L14 -157 Q35 -168 55 -173 Q75 -178 91.5 -176.5 Q108 -175 118.5 -167.5 Q129 -160 130 -146 Q132 -125 112 -116.5 Q92 -108 57 -118 L44 -106 L86 -1 L150 -1 L125 -64 Z " />
<glyph glyph-name="circumflex" unicode="&#x2c6;" horiz-adv-x="262" d="M284 756 L189 756 L128 825 L64 756 L-34 756 L93 889 L167 889 L284 756 Z " />
<glyph glyph-name="dieresis" unicode="&#xa8;" horiz-adv-x="281" d="M-3 822 Q-3 845 12 860 Q27 875 49 875 Q71 875 86 860 Q101 845 101 822 Q101 800 86 785 Q71 770 49 770 Q27 770 12 785 Q-3 800 -3 822 Z M178 822 Q178 845 192.5 860 Q207 875 230 875 Q252 875 267 860 Q282 845 282 822 Q282 800 267 785 Q252 770 230 770 Q207 770 192.5 785 Q178 800 178 822 Z " />
<glyph glyph-name="dotaccent" unicode="&#x2d9;" horiz-adv-x="240" d="M69 823 Q69 847 85.5 863.5 Q102 880 126 880 Q150 880 166.5 863.5 Q183 847 183 823 Q183 799 166.5 782.5 Q150 766 126 766 Q102 766 85.5 782.5 Q69 799 69 823 Z " />
<glyph glyph-name="grave" unicode="&#x60;" horiz-adv-x="210" d="M65 891 L147 757 L65 757 L-42 891 L65 891 Z " />
<glyph glyph-name="hungarumlaut" unicode="&#x2dd;" horiz-adv-x="667" d="M291 756 L216 756 L277 881 L375 881 L291 756 Z M441 756 L366 756 L433 881 L534 881 L441 756 Z " />
<glyph glyph-name="macron" unicode="&#xaf;" horiz-adv-x="240" d="M-12 851 L245 851 L245 779 L-12 779 L-12 851 Z " />
<glyph glyph-name="ogonek" unicode="&#x2db;" horiz-adv-x="240" d="M193 -211 Q161 -233 129.5 -239 Q98 -245 72.5 -238 Q47 -231 30.5 -213 Q14 -195 11 -168 Q7 -126 29.5 -82.5 Q52 -39 103 0 L169 0 Q143 -22 125.5 -43.5 Q108 -65 98.5 -84 Q89 -103 86 -117.5 Q83 -132 86 -141 Q91 -157 101 -164 Q111 -171 123 -171.5 Q135 -172 147.5 -167.5 Q160 -163 170 -155 L193 -211 Z " />
<glyph glyph-name="ring" unicode="&#x2da;" horiz-adv-x="240" d="M11 629 Q11 651 19.5 670.5 Q28 690 42.5 704.5 Q57 719 76.5 727.5 Q96 736 118 736 Q140 736 159 727 Q178 718 192 703 Q206 688 214 668.5 Q222 649 222 628 Q222 607 214 588 Q206 569 192 554.5 Q178 540 159 531 Q140 522 118 522 Q96 522 76.5 530.5 Q57 539 42.5 553.5 Q28 568 19.5 587.5 Q11 607 11 629 Z M163 629 Q163 649 150 663.5 Q137 678 117 678 Q97 678 84 663 Q71 648 71 628 Q71 608 84.5 594 Q98 580 117 580 Q137 580 150 594.5 Q163 609 163 629 Z " />
<glyph glyph-name="tilde" unicode="&#x2dc;" horiz-adv-x="271" d="M-15 793 Q-7 836 21.5 861.5 Q50 887 82 887 Q101 887 116.5 879.5 Q132 872 145 862.5 Q158 853 168 845.5 Q178 838 187 838 Q195 838 207 844.5 Q219 851 225 874 L284 853 Q271 802 246 782.5 Q221 763 193 763 Q176 763 162 771 Q148 779 135.5 788 Q123 797 110 805 Q97 813 82 813 Q71 813 59 801.5 Q47 790 42 772 L-15 793 Z " />
<glyph glyph-name="uni0326" unicode="&#x326;" d="M152 -254 L78 -254 L128 -88 L215 -88 L152 -254 Z " />
<glyph glyph-name="uni02C9" unicode="&#x2c9;" horiz-adv-x="240" d="M-22 675 L255 675 L255 598 L-22 598 L-22 675 Z " />
</font>
</svg>
